/* XPM */
static char *_476b82068894fdda2d8c7bd296b885bPuef7J1aWImjxTWx[] = {
/* columns rows colors chars-per-pixel */
"64 64 198 2 ",
"   c #13180E",
".  c #041715",
"X  c #051A15",
"o  c #0B1A16",
"O  c #081718",
"+  c #051C1B",
"@  c #0B1D1C",
"#  c #1C1A15",
"$  c #131C1A",
"%  c #37170E",
"&  c #2B1714",
"*  c #231A13",
"=  c #2D1E16",
"-  c #371714",
";  c #351913",
":  c #3C1B15",
">  c #04221D",
",  c #0B201E",
"<  c #0E291E",
"1  c #1E2419",
"2  c #252217",
"3  c #24241D",
"4  c #071F20",
"5  c #101F20",
"6  c #052423",
"7  c #0D2322",
"8  c #092927",
"9  c #0B2A26",
"0  c #0F2C2A",
"q  c #112425",
"w  c #1E2520",
"e  c #112827",
"r  c #112728",
"t  c #11292A",
"y  c #12292A",
"u  c #112A2B",
"i  c #122A2B",
"p  c #112C2A",
"a  c #122D2A",
"s  c #112B2C",
"d  c #112D2D",
"f  c #1C2D2B",
"g  c #09332C",
"h  c #11312E",
"j  c #112E30",
"k  c #073536",
"l  c #0A3330",
"z  c #0D3934",
"x  c #113231",
"c  c #113432",
"v  c #113532",
"b  c #113634",
"n  c #1A3735",
"m  c #113936",
"M  c #123936",
"N  c #113C3A",
"B  c #1A3C38",
"V  c #252A23",
"C  c #22392E",
"Z  c #3A3525",
"A  c #393E36",
"S  c #5A0F09",
"D  c #4C140C",
"F  c #5B1407",
"G  c #54130A",
"H  c #53170A",
"J  c #5C140B",
"K  c #5A190C",
"L  c #441A14",
"P  c #4E1C14",
"I  c #541813",
"U  c #5B1B12",
"Y  c #640F07",
"T  c #6C0E05",
"R  c #6A0F09",
"E  c #750E04",
"W  c #7B0D03",
"Q  c #621307",
"!  c #63140B",
"~  c #6B140C",
"^  c #64180C",
"/  c #6A1A0E",
"(  c #751106",
")  c #7E1005",
"_  c #74140B",
"`  c #7D130C",
"'  c #74190E",
"]  c #6E1610",
"[  c #641C12",
"{  c #6A1B12",
"}  c #7B1611",
"|  c #771912",
" . c #721D13",
".. c #43281D",
"X. c #5A241B",
"o. c #6F2316",
"O. c #752014",
"+. c #7A2214",
"@. c #77271B",
"#. c #402B22",
"$. c #4D372E",
"%. c #4C3F35",
"&. c #602E25",
"*. c #702922",
"=. c #67362C",
"-. c #753428",
";. c #11413D",
":. c #2B423C",
">. c #384D3E",
",. c #7C423C",
"<. c #124543",
"1. c #114A45",
"2. c #124946",
"3. c #1B4843",
"4. c #114D4A",
"5. c #12524D",
"6. c #115451",
"7. c #155951",
"8. c #155E59",
"9. c #314B43",
"0. c #38544C",
"q. c #355051",
"w. c #12645E",
"e. c #126661",
"r. c #287973",
"t. c #444F42",
"y. c #654440",
"u. c #605D4D",
"i. c #775646",
"p. c #4D6057",
"a. c #5A6859",
"s. c #63604F",
"d. c #800E07",
"f. c #821105",
"g. c #85140B",
"h. c #87180B",
"j. c #8C190F",
"k. c #831B12",
"l. c #8B1C11",
"z. c #851E1A",
"x. c #901912",
"c. c #852216",
"v. c #8C2115",
"b. c #86241E",
"n. c #8B2319",
"m. c #842D1B",
"M. c #8D291F",
"N. c #962C1D",
"B. c #9A2A1B",
"V. c #8D2C26",
"C. c #962D22",
"Z. c #982E21",
"A. c #833325",
"S. c #8B3324",
"D. c #87342E",
"F. c #9A3226",
"G. c #96332E",
"H. c #9B362A",
"J. c #973829",
"K. c #893C31",
"L. c #913836",
"P. c #9B3D31",
"I. c #993D39",
"U. c #A63C2B",
"Y. c #A43E30",
"T. c #874238",
"R. c #9B4435",
"E. c #94543C",
"W. c #AA402B",
"Q. c #A7433D",
"!. c #B44B3C",
"~. c #A1583E",
"^. c #8C4D43",
"/. c #974F4A",
"(. c #895344",
"). c #98574B",
"_. c #965D52",
"`. c #AC4E4C",
"'. c #AF5846",
"]. c #AB5A4E",
"[. c #B25445",
"{. c #BA5748",
"}. c #B25752",
"|. c #B7604E",
" X c #8D7065",
".X c #A46A64",
"XX c #AC7866",
"oX c #B3786A",
"OX c #C36459",
"+X c #C97A6B",
"@X c #B5806E",
"#X c #BA8377",
"$X c #C9887A",
"%X c #C28D86",
"&X c #C69083",
"*X c #C2998C",
"=X c #CFA99B",
"-X c #D4ACA0",
/* pixels */
"2.j r r q r r r q , r q q r q r q q q V 7 q r q r e q r q r y b x y q e y q e q q q q r q q r r u q q q q r q q q r r q r r h m ",
"4.j u p q s r r u r u r q u r y u q y q r q r q q u q u q y u m b d u q y r y y s s q s r r e e u r s q q q q e q q r r s r x m ",
"<.s r r q r r q r q r q q r q r q q q q r $ 7 q w q q q q q u c d y u r q q y q q 3 q q 7 q q q e q q q q q q q q q r 7 q r d m ",
"2.u r e 7 r q r r q r w q q q y q q q q r q r r r q q u q r r x d u r q y q e q y q q r q 7 r r e q q q q q 5 r w r r q r r d c ",
"2.d r r r u q r q q y q y y r y r u u q u q r r q r r r r r r m j u r r y q q q q r q y q r e y y q q q r r r r r q u q e q d m ",
"<.u r r 5 q r 5 q q q q q q q q q q q q q , q $ q 7 5 q q q r x j r r 5 q q q q q q q q q q q q q q q q q q 5 q q q q q r q p c ",
"4.s s s r s r r y r q q r q r y r u q q r q r q r u r r r r u n b s u r y r y r r r q r q u e y e q r q q q q q q r r q u r x N ",
"<.r q r 5 r 5 r q q q q q q q e q q q q q 5 q q 5 q 5 r 5 r r x x r r q q 5 q q q q q q q q q y q q q q q q $ q $ q q q r q p m ",
"4.p u y q y q y r q e q r q q p e y r q q V u q q q q q q q p c x u r q 9 r u r r q q q q r q y e q q q q q q r q q q q r u d b ",
"2.p e e q y q q r q q q q r q y q r r q r q q q q q q q q y p c x u r u r q r r q r q u q r q q q q r q q q q q q q q q r q x N ",
"2.u e q < q q q q q q , q q q q q q q q r q q @ q q q q q , q c h p q q q q q q q q q q , q r e q r q q q q q q q q q q q q u m ",
"4.d y e r y e e r r u q e r q a u r q q r q r q q q q q q q q M h p q q e r e q r e q r q r r y y r e q r r q q q q q q f e h m ",
"<.u r r q q q q q q q , q q q q q r q q q q q q q q q q q , q h u e q q , q r q q q , q q q q q q q q q q q q q , q 7 q q q e h ",
"5.d u u 7 p q e q r y r r u q y r u q r e e y e q y u e u e y m d u r e e q e q r r r u q e e d p q y r e e q q r r e q r r h m ",
"2.p e u q e q r q q e r r r r u u r y q e q y e q u q q e e p z h u r r e r r q r r q e q y r u u r y q r y q e e q e r e e h m ",
"5.d y u r u q u r r e q q r q u e u y q y q e q r p q e 7 e e B n p e e e r u r e e q e q y e e u u e r r u q e y q e y a q h m ",
"4.p r r q e q r q q r q r q 5 r r r q q r q q q q q q q q 7 p 9.<.6 > 7 7 r r q r q q r q r q u r q e r q q q q r 7 r q q q h c ",
"2.y r r q q q q q q q $ q q q r q r q q q q q q q 7 @ @ @ 7 C s.q.d > X + @ 7 q 7 q 5 q q q q q q q q q q q 5 V q 5 r $ 7 q p h ",
"5.s y u r u q r r q u q r 7 u u r r r q r q r q 7 7 o $ X > C u.3.6 > , @ X + 7 q q q u 5 r r u q q r r q r q e r r r q e e h m ",
"<.y u r , r $ q q 5 q w q $ q q q q , q q q q $ @ @ . . # : &.(.y...= o + + O @ q , 5 q $ q q r q 5 q q < q q q q 5 r q 9 q 0 h ",
"5.y u y q e q y q q q $ q q q y r q q r r q 7 @ O . # L K K @.E.,.[ U I % @ O o @ 7 q r r r r r y q q q q e q q q q r q u r x b ",
"2.e r r q q q q q q q < q q q r q q q 5 7 @ @ O O : G F J / m.E.K.{ ^ ^ J P o X @ @ @ q $ q q q q q q q q q q q q q r q q q d x ",
"4.u r y q y q q q q q q q y q e r r q 5 7 + @ . : Q J Q ~ ' S.].^. .] ] / ! H o 7 + , q q r q u r , q q q q q q q q r q r r x b ",
"4.u y y q y q q q q e q q q q e q q q q 7 X . - K Q ~ R ~ _ N.[.I.} | ] ~ ! / L X @ @ q , q q r q q e q q q q q q q r q r r j b ",
"4.u r 7 , q q q q q q q q q q q q q q , + .   G F ! R T E f.B.[.I.g.g._ R ~ ! S & + + 7 7 q q q q $ q q q q q q q q q q q q d x ",
"5.s u u r r q r q q q q q q q u q e r q @ X % S F Y T E ) f.N.'.L.g.d.W R R Y ! D X + + q 7 q e u , r q q q q 7 q q u r r y x b ",
"2.e u q q r 5 r q q q 5 q q q q q q , < @ o D F Q Y E W ` k.Q.+X/.| } ` ( R ! ! G   @ + @ q q q r , q q , q q q 5 , q q q q d h ",
"6.d u e r u q r r w u q q r u y q q q 5 + & J F Q T W W ` c.|.*X.XV.k.` d.( R J J & + + 7 u r r q q u q q q q r r q q q y y b m ",
"5.p r r q r q 7 q 5 r , q q q q q r q @ + - J ! ~ W W g.k.Z.$X#X%XG.b.k.g.` _ ~ ^ : > > 7 q r u q q q q q q q q q q q , q q b x ",
"e.b x p e p e d u u u e p u u d u u r u p #. .+.g.h.l.H.U.{.-X-X=X}.G.M.g.g.|  .^ X.> > 6 u u j d u y e u h q u u y p e d d N N ",
"r.2.<.;.m N z N m m N c N N m ;.m N m z :.%.S.S.C.B.C.H.!.Y.&X+X$X`.Q.n.x.l.k.+.O.X.g u g N n N N c N m m m c N m c ;.m ;.;.4.5.",
"8.N z x d h d d j u h u h p u c d x d 8 < 3 +.+.k.h.j.l.H.!.+X&XoX[.P.F.Z.Z.S.A.-.=.;.z u x j h x d x d p h p x d d h p c c ;.2.",
"5.x y p y p e y u q u r r r r j u e r , X # / ~ ( ) W g.c.W.{.$X`.P.V.l.l.l.+.+.o.Z 0 8 7 u s s u r u r r r q r r r u r u r x ;.",
"4.h y u q y q q u q q q r r 7 s r r r 7 @ # Q / / ( f.f.h.B.!.OX`.V.k.g.g.' ' { ^ 3 q < q e r r s q q r q q q r r q r u u r x N ",
"2.d e u r u r r r q u q r r r r r q r , + # K ! / ' W g.h.v.!.+XI.z.g.g.` |  . .X.+ 5 7 7 r q r e q r q q q q r , u q q r r d c ",
"4.d e e r u r r u r s r r r 3 d e e r 7 , + L Q ^ ~ ( f.g.j.W.|.G.l.g.} ' ~ ] { = > + r 7 u r u u q e q r r q q q q q e e u x m ",
"<.r r r 5 q q q r q q q q q , e r q q $ @ + # D K Q / ' ` j.U.|.V.k.| ] / ! ] I o + @ 7 , r q u r q q q q , q q q 5 q $ r r p h ",
"4.j u u r y r r u q d q r r q d r u u 7 7 O + ; G F ! ~ +.m.W.].D.@.] [ Q ! U $ + @ 7 u q e q y u q r r r w q r q r s q r q h m ",
"2.u r r q q q q r q q q r q q r q r q q $ + O o - K Q O.J.).R.XX_.K.*.o.U U * > $ 4 q r q r q y r q q q q q q q q r q q r q h m ",
"2.s r u r r r r r q q q r r q u q q q q q @ O o @ : U  .T.).E.@X_.^./.(.X.* 6 w + q q q q r q q q q r q q r q r q q r q r r d m ",
"2.j y r r r r r r q r q q r q f r r q q q $ 7 $ @ X 2 X.-.T.~.XX^.-.=.$.9 > V + 8 r q u q q q y r q q q q q q q q q q q r q d N ",
"<.r q e q q q q q q q q q q q e r r q q q q 7 5 @ @ @ 6 1 Z i. XA u 8 6 7 @ 7 7 q q q q q q q q r 5 q q q q $ q q 5 q 5 q q p x ",
"4.d r y q y q r q q q q r q q y q q u q r r r 7 q q @ q q 8 t.a.k u 7 6 , 7 u q q r q u q r e y y q q q q s q q q q r q e e x N ",
"<.y r q q r q q q q q q q q q q r q q q r 5 q q q q , , > p >.p.l 6 4 4 q , q , q q q q < q q q r q q q q q q q q q q q q q h b ",
"5.d e y q e q y u r u , y q q u u y q q r q q q q q 7 q q 9 :.0.l r 7 e e q r r y y q y q y q y y q r q q u q q q q q q u r x x ",
"3.y r e q q q q q q r q q q , q q y q u r q q q q q q q q q f B d u q q r q q q q q q q q e q y r q q q q q q q , q q q q q d n ",
"2.u y y q y q e r q r q r r q u y q q q q q u q r r r e q q e h p u r e e q r r y q q u q y y y s w r r q r q u u q e q q e h h ",
"5.h a h a h y p d e p u u u u h y d y y d f p u e d r p u e h ;.c x p d h e p u p u u d e d p d d y d y u a q p p q p u p p m N ",
"2.u r r q q q q r q r 5 q q q q r u r q q q r q < q q q q q q h u u q q q q q q q q , q q r q r s r r q q q q q q q q , q q p h ",
"6.j p e q y q e y q q V r r r r 7 r r r r q r q q r w r r r e m h d u u r r r r q r q r q r r s s u y r r u q r e e r r e e h m ",
"2.u r r q q q q q q q < q q q r q q q q q q q q q r q q q q r l y y q q q q q q q q q q $ r q r q q q r q r q r q q r , q q h h ",
"4.i e r q r q r q q e q q q r e r r q q r q r r r r q r r r u m h d q r q q u q q q , r q r r r u q r q q q q r w r r q e r h z ",
"2.u r r q r q q V q q < q q q r r q V q q q q q q q q q q r s x d d q q r q r q q q < q q q q r q q q q q q q q q q q r e r d h ",
"2.u r r q q q q q @ q q q q q 0 q q 7 q q 5 q q q q q q q q r b y d q q q q r 5 q q 5 q 5 q 5 r u $ q q q q q q q q r q r r h c ",
"5.u r u q e q q r q q q r r q u r r q q r q q q q r q q r q r n d d y y r q r q w q q q q r 7 0 q q q q q q q r q r r q r r x b ",
"2.r r 7 , q q q q 5 q @ q r $ q 5 q q 5 q 5 5 < @ q q q q q q x y q q q r 5 q q q q q q 5 q q r q < q $ q q $ q q q q q q q d x ",
"6.p u e r r q r q q r q q q q r q r q q e q q q q q q y r r u m h d q e y q y r e q q q q q q r q q q q q q q e q q r r u u x n ",
"2.r r q q q 5 q 5 q q 5 q q q q , q q q q q q q q q q q q q r h u u q q q q r $ , q q q q q q q q q q q q q q q q q r w q q d j ",
"5.0 p e q r q r q q q q q q q q r r q q q q q q q r q e r r u m u p q e r q r r e r q e q q V r r q e q q q q q q q r r r r x b ",
"4.u e r q r q r q q q q q q q s q q q < q q q q r q , r q q u m d u r e r q q q e q q e < q q r q , q , q q , r q 5 r q r r c c ",
"6.d u r q q q e r e e q q q r q y r q q r q r r q q q q 7 e p m d d r e r q r q r q q e r q r p e q q q q q q q 7 q e q 7 r c c ",
"8.x s u u u u q r 7 e q u r r u p q q q e q e e q r q u e q p ;.x d e e r r p r e r q e q q r d y q y q q u q e u q e q s u N m ",
"w.m z h d h u h u p h p d h u x p h p p d p h p p x y h h h m <.m N h h d d d u h h a h e h d h h y h p p h e h p p h p h c ;.;.",
"r.4.4.N m ;.c ;.m m N m N m N ;.m N N m N c N N m N b N ;.;.2.7.2.5.N N N m N b N m M ;.c ;.N N N b N M z N m N N m ;.m <.;.5.5."
};
