/* XPM */
static char *f801192b849f4c57e840512be007ac66UM5OicTFyLTxqrCk[] = {
/* columns rows colors chars-per-pixel */
"64 64 178 2 ",
"   c #0E1A16",
".  c #071E1A",
"X  c #0C1E1D",
"o  c #131A16",
"O  c #1C1A16",
"+  c #151E1A",
"@  c #1C1D1A",
"#  c #32170F",
"$  c #34180E",
"%  c #291714",
"&  c #251A15",
"*  c #2D1916",
"=  c #2E1C1B",
"-  c #3D1A14",
";  c #371B1A",
":  c #0B201E",
">  c #13201E",
",  c #1D241B",
"<  c #242117",
"1  c #22231E",
"2  c #29201A",
"3  c #38231F",
"4  c #3C2B1E",
"5  c #0A1F20",
"6  c #101F21",
"7  c #0E2323",
"8  c #0E2A27",
"9  c #0E2B2A",
"0  c #112425",
"q  c #112827",
"w  c #112728",
"e  c #112A2A",
"r  c #0C342E",
"t  c #11312E",
"y  c #1D312E",
"u  c #112E30",
"i  c #0F3331",
"p  c #113432",
"a  c #113936",
"s  c #113C3A",
"d  c #1C3D38",
"f  c #3F2B22",
"g  c #343028",
"h  c #283C37",
"j  c #5A0F09",
"k  c #4B130B",
"l  c #5B1407",
"z  c #56140B",
"x  c #581709",
"c  c #5C140B",
"v  c #53190D",
"b  c #451911",
"n  c #4B1C14",
"m  c #551B13",
"M  c #5E1A11",
"N  c #640F07",
"B  c #6C0E05",
"V  c #6A0F09",
"C  c #750E04",
"Z  c #7B0D03",
"A  c #621307",
"S  c #63140B",
"D  c #6B140C",
"F  c #65180C",
"G  c #6A1A0E",
"H  c #751106",
"J  c #7E1005",
"K  c #74140B",
"L  c #7D130C",
"P  c #74190E",
"I  c #6E1610",
"U  c #631B12",
"Y  c #6A1B12",
"T  c #701710",
"R  c #7B1611",
"E  c #721D13",
"W  c #7D1B13",
"Q  c #4F221C",
"!  c #5C2117",
"~  c #6F2316",
"^  c #752014",
"/  c #7A2214",
"(  c #77261B",
")  c #472B25",
"_  c #4F2921",
"`  c #57342B",
"'  c #4B3D36",
"]  c #702922",
"[  c #6B352C",
"{  c #11413D",
"}  c #21423C",
"|  c #644A3D",
" . c #7B413B",
".. c #114543",
"X. c #114A46",
"o. c #114D4A",
"O. c #12524D",
"+. c #115451",
"@. c #155951",
"#. c #155E59",
"$. c #12645E",
"%. c #126661",
"&. c #287973",
"*. c #7E4F43",
"=. c #79645A",
"-. c #800E07",
";. c #821105",
":. c #85140B",
">. c #87180B",
",. c #8C190F",
"<. c #831B12",
"1. c #8B1C11",
"2. c #851E1A",
"3. c #901912",
"4. c #852216",
"5. c #8C2115",
"6. c #86241E",
"7. c #8B2319",
"8. c #842D1B",
"9. c #962C1D",
"0. c #9A2A1B",
"q. c #8B2A22",
"w. c #8F2E29",
"e. c #962D22",
"r. c #982E21",
"t. c #833325",
"y. c #8B3324",
"u. c #87342E",
"i. c #9A3226",
"p. c #96332E",
"a. c #9B362A",
"s. c #93382F",
"d. c #873D31",
"f. c #8A3A31",
"g. c #913836",
"h. c #9B3D31",
"j. c #993D39",
"k. c #A63C2B",
"l. c #A43E30",
"z. c #834037",
"x. c #8C4438",
"c. c #9F4331",
"v. c #974831",
"b. c #93533C",
"n. c #AA402B",
"m. c #A7433D",
"M. c #B44B3C",
"N. c #A1583E",
"B. c #8B4C43",
"V. c #974F4A",
"C. c #8F5049",
"Z. c #9E5342",
"A. c #9B5A49",
"S. c #965D52",
"D. c #AC4E4C",
"F. c #AF5846",
"G. c #AB5A4E",
"H. c #B25445",
"J. c #BB5345",
"K. c #B25752",
"L. c #B7604E",
"P. c #BF6456",
"I. c #A46A64",
"U. c #AC7766",
"Y. c #B17867",
"T. c #B5786D",
"R. c #CE776A",
"E. c #C07F6E",
"W. c #B5806E",
"Q. c #BA8377",
"!. c #C5877E",
"~. c #CC8978",
"^. c #C28D86",
"/. c #C69083",
"(. c #C2998C",
"). c #CFA99B",
"_. c #D4A897",
"`. c #D4ACA0",
/* pixels */
"..u w w 0 w w w w > 0 0 0 0 0 e 0 e 0 0 w 0 0 0 0 q 0 w 0 w 0 p p e 0 q e 0 0 0 0 0 0 q 0 0 w w e 0 w 0 0 0 0 0 0 0 w 0 w 0 p p ",
"o.p e e w w w w e w e 0 0 e w e q q w 0 0 0 0 0 w w w w w e e s p e e e e w e e w w 0 e 0 w e e e 0 w w 0 0 0 w 0 w 0 0 e e p d ",
"..e w w 0 w w 0 w 0 w 0 0 w 0 e 0 q 0 0 0 0 0 0 0 w 0 w 0 w w p p e w 0 w 0 w w 0 0 0 0 0 0 0 0 q 0 0 0 0 0 0 0 0 0 y 0 w w e a ",
"X.e w e 0 w 0 0 w w w 0 0 0 0 e 0 0 0 0 q 0 0 0 0 w 0 q 0 0 w p e e w 0 w 0 w 0 e w 0 w 0 0 0 q q 0 0 0 0 0 0 0 0 0 0 0 w w e p ",
"X.e w w w e w w w 0 0 0 w w 0 e q e 0 0 w 0 0 0 0 y w w w w e a u u e w w 0 w 0 0 w 0 e 0 w w q w 0 0 w 0 w 0 w 0 w w 0 q 0 t a ",
"..e 6 w 6 w w 6 0 > w 0 0 0 0 w 0 0 0 0 0 0 0 0 + 0 6 0 0 0 w e e e 6 6 0 0 0 0 0 0 0 0 0 0 0 w 0 0 0 0 0 0 6 0 6 0 0 0 w 0 e p ",
"o.u w u w e w w e w w w w w 0 y w w w 0 w 0 0 0 0 w w w w w e s p u e w e 0 w w w w 0 e 0 e q q w 0 w 0 0 0 0 0 w w e 0 q w i s ",
"..w w w 6 w 6 w 0 6 0 0 6 0 0 w 0 w 0 0 0 > 0 0 6 w 6 w 0 0 w y y w w 0 0 0 0 0 0 0 0 0 6 0 0 w q 0 0 0 0 0 6 0 0 0 0 0 w w e a ",
"O.e q e 0 e 0 q w w q w w 7 w q q e 0 0 0 0 0 0 0 0 0 q 0 w e p p e w w q w q w w 0 0 q 7 w w q q 0 0 0 0 w 0 7 0 0 0 0 0 0 t a ",
"X.e w q 0 q 0 w w 0 w > 0 w 0 e 0 w w 0 e 0 0 0 0 w 0 7 0 q e p p w w w w 0 q w 0 w 0 q 0 w 0 w w 0 w 0 0 w 0 0 6 0 0 0 w w t s ",
"X.e w q 0 q 0 0 0 0 0 0 0 0 0 w 0 0 0 0 0 0 0 0 0 0 > 0 0 7 w t t e 0 0 w 0 0 0 7 0 0 w 0 0 0 w w 0 0 0 > 7 > w 0 0 0 0 0 w e a ",
"o.e e q 0 q w q w w e 0 q q 0 q w w w 0 q 0 0 0 0 w 0 0 w 0 q a p e q 0 q 0 w w q w 0 w 0 q 0 e q w w w w q 0 w 0 0 0 0 q w t d ",
"..e e w 0 0 > 0 0 0 0 : 0 0 0 w w 0 0 0 0 0 0 0 0 0 > 7 0 > 7 t e q 0 0 0 > w 0 0 0 0 0 0 0 0 w w 0 0 0 0 0 > 0 7 > 0 0 w 0 e t ",
"O.e e e 8 e w q w w w w w q 0 e w e w w q 0 e w 0 q w e q w e a t e w q 9 0 w 0 w w w e 0 q e e e w w w w e w q q q q 0 w 0 t a ",
"X.t e e w e 0 w w 0 q w w e w e e w q w q w e q w e w w q q 9 p t e e q e 0 q 0 7 w 0 q 0 e w e e 0 q w w q w q e w q 0 q q t a ",
"O.e e e 7 q w q w 0 q 0 w 7 0 e q e q 0 e 0 q 0 w q 0 q q q e a e t e q q w 9 w e q 0 q 0 q w q e w q w w q 0 w q 0 e 0 e q t a ",
"o.e w w 0 w 0 w w w w 0 0 7 0 w w e w 0 w 6 w 0 0 q 0 w w 0 q p t e q q w 0 w 0 w w 0 w 0 w w q e w w w w w 0 w w 0 w 0 0 0 t p ",
"X.e w w 0 w > 0 7 > 0 > 0 0 0 w 0 w 0 0 7 0 0 0 0 > > 7 0 7 0 t e w 0 7 0 5 w 0 7 7 + w + 0 0 w w 0 0 0 0 w + 7 0 : 0 > 7 0 9 t ",
"+.e e e w 9 w w w 0 q 0 q 0 0 e w w w w w 0 w w w w 0 q 7 8 e d p 9 7 7 0 0 w 0 w w 0 q 7 w 0 e w 0 w w 7 e 0 e w 0 w 0 e q t a ",
"..w w w 0 w + 0 0 > 0 > 0 0 + 7 0 0 + 7 0 6 0 0 7 0 X : O = ) | ' 3 & o X . 7 6 7 + 6 0 6 0 0 w w 7 + 0 > 0 0 > 0 > w 0 8 0 e t ",
"+.e e e 0 w 0 q q 0 w 0 w 0 w e w 0 0 w w 0 w 7 7 : @ - x x ( b. .U M m $   . 7 7 0 0 w w w 0 w q 0 q w w 0 0 0 0 0 w w q 0 t a ",
"..e w 7 0 0 > w 0 > 0 > 0 0 0 q 0 0 0 6 0 6 0 6 : ; k l x F ( D.d.U U F c n o 5 0 0 + 0 > 0 0 w 0 > 7 > > 0 0 0 0 0 0 0 w w e i ",
"o.e e q w w 0 w 0 0 w 0 0 w 0 q 0 w 0 6 w 0 7 X ; x A A G P y.G.B.E I I D F v   7 0 7 w 0 w w q w 0 0 0 w w 0 q 0 0 w 7 w w p p ",
"o.e w w 0 w 0 w 0 0 w > 0 0 0 q 0 0 7 0 w 7 X * v A D A D L 9.H.j.W T I D S S b . 7 7 w : 0 0 w w 7 w 0 0 0 > w 0 0 w w w e e a ",
"o.e 9 w 0 w 0 0 0 0 0 0 0 > 0 w 0 0 0 0 7 7 o k c N V B C ;.0.H.j.:.:.K V I N c % X 7 7 6 0 7 w 0 > 0 0 0 0 > 0 0 0 w 0 0 w e t ",
"+.e e w 0 w 0 0 0 0 w 0 w 0 0 q 0 q 0 0 7 X # z l N B Z Z ;.9.F.g.:.-.J V V S j k . 7 w 0 w 0 0 8 0 w 0 0 0 0 w 0 0 w 0 q w p a ",
"X.9 w w 0 w 6 w > 0 0 + 0 0 0 w 0 0 0 > X   k l A N C C L W n.E.V.W R L C S N S z o X w + 0 0 0 w + 0 : : 0 0 0 0 > w 0 0 0 e p ",
"+.e e q w e 0 e w w w 0 w 0 w e q q 0 0 7 & z c S B Z Z L 6.L.(.I.q.R -.;.H V S c % : 8 w w w w 9 7 w 0 w w 0 w 0 0 w 0 e e p a ",
"O.9 e w 7 w 0 7 0 7 0 > q w 0 w 0 w w 0 X $ F S D Z -.:.<.i.~.Q.^.s.6.<.:.L K I F - : 7 0 w 0 w w 0 0 0 0 w > 0 0 0 0 0 0 q a p ",
"%.a p e e e q 9 w e e q 9 q e t e q e q 9 f ^ / :.,.1.i.n.M._.`.).K.p.q.:.:.T T Y n 8 9 w e e e e w e e 9 e w 9 8 q 9 e e e s s ",
"&.....s a s p s a s s a s s a { a { s a h ' y.y.e.0.9.a.M.l.~.!.!.m.m.7.3.1.4./ ~ _ r s p s s s s a s a a s a s a a { t { { o.O.",
"#.s a i e p t t e e t 9 t e e p e t e 9 8 1 ^ ^ <.>.,.2.a.H.R./.T.H.h.r.r.r.y.y.t.` t t e t p e p e p e e t e p e e t t p t { X.",
"O.p e e e e q e e w e w w e w e e e q 7 7 O G D D Z ;.:.4.n.J.!.K.h.q.2.3.7./ / ( 4 8 8 w q e e e w e w w w 0 7 w w e w e w p { ",
"o.p e e 0 e 0 0 0 0 w 0 w w 0 e w e q w 7 @ c G K H ;.;.>.9.M.P.D.q.:.:.:.R P G U , 7 q w q w w e w q w 0 0 0 w w w q w e q p s ",
"..e q e 0 e w w e 0 e 0 w w 0 w w 0 0 > 0 + v S G G J ;.>.5.M.R.j.2.,.:.W R E T m : 0 0 7 w w w w w w 0 0 0 0 w 0 0 0 0 e 7 e a ",
"o.u e e 0 e w w e w e w w w w y q q w w q 7 ; A F K H ;.:.,.n.P.p.1.:.R K K G U 2 7 0 e w w w e q 0 q 0 w w 0 e 0 0 q q q w u s ",
"..e 0 0 6 0 0 0 w 0 0 0 0 0 0 w w 0 0 0 7 5 @ k x S S P L ,.k.L.w.W R I D S F m : 0 0 0 > w 0 q w 0 0 0 > 0 + 0 0 6 0 6 w 0 e p ",
"o.u e e w e w w e 0 e 0 e e 0 w w e w 0 w 0 7 * x l S D P 8.c.F.u.W Y Y c F z 0 0 e w q w w w e e 0 w w w w 0 w w w e w w w t a ",
"..e e e 0 0 0 0 w 0 w 0 w 0 0 e 0 0 0 0 w 7 7 X - c S ^ f.G.v.Y.S.d.] Y M m @ 0 0 0 0 w 0 7 0 q w 0 0 0 0 0 0 0 0 0 0 6 w w t a ",
"o.e w e w w w w w 0 0 0 0 0 0 e 0 w w X 7 + 0 . . ; c ^ z.A.Z.W.S.B.C.*.Q 1 7 0 w 0 0 w 0 w 0 0 0 0 w 0 0 w 0 0 0 0 w w 7 w e a ",
"o.u w w w w 0 w w 0 w w w w 0 e 0 e w 0 0 0 0 0 : . < ! ] x.N.U.B.[ ` g 7 0 e w w q 0 e 0 w 0 e w w w 0 7 w 0 w 0 0 0 0 0 0 e { ",
"..w 0 w 0 0 0 0 0 0 0 > > 0 0 q 0 w 0 0 0 6 0 + 6 : : 7 > g | =.h e 6 w 7 0 w w w 0 0 0 0 0 0 0 w 6 0 6 0 w + 0 6 0 0 0 0 0 e p ",
"o.e w e 0 e w e w 0 e w e w 0 e q e w 0 w 0 w 0 0 0 : w 0 8 y } i e w w q w e w q q 0 e 0 e q e w w w w 0 w 7 e 0 0 0 0 q q p s ",
"..w w w 0 w 0 6 7 0 0 > 0 5 0 0 0 0 0 0 w 6 0 0 0 0 0 > 0 > 8 t e w 0 0 0 0 0 > 0 0 0 0 > 0 0 0 0 0 0 6 0 0 + 0 0 0 0 0 w 0 y p ",
"o.y w e 0 w 0 w q w q 0 w w 0 e 0 e 0 0 q 0 q 0 0 0 0 0 0 0 q a t e q q q 0 w w w w w q w q 0 e e 0 w 0 0 q > w 0 0 q 0 w w t p ",
"X.e w q 0 w 0 0 w 0 w 7 0 0 0 w 0 w 0 0 0 0 w 0 0 w 0 0 0 0 w t e e 0 0 0 0 w 0 0 w 0 w 0 w 0 e w 0 0 0 0 w 0 w 0 0 0 > w 0 t t ",
"o.e e w q e 0 q q w w w w 7 0 e e w w w w 0 w 0 w q w q 0 0 q p e e w w q 0 q w q w w q 0 e q e e 0 0 e e e 0 q 7 0 0 0 0 q t t ",
"O.t e t e e y e e q e q e e w p e e e w y e y e e e q e e q t s a p e t t q e e y e w e w e e t e e e e e e q e e q t e e e a { ",
"X.e e w 0 0 0 0 0 0 q 0 0 0 0 0 q w w 0 0 0 0 0 0 0 0 0 0 0 0 t e e q 0 0 0 0 0 0 0 0 0 0 0 w w e w w 0 0 0 0 0 0 0 0 0 0 0 e t ",
"+.e e e 0 q 0 e e 0 q 0 0 q 0 e 7 w e w w 0 w 0 0 q 0 q w w q a t y w w e 0 w 0 w w 0 q 0 w w e e w y e e q 0 q q 0 0 0 q q t a ",
"..e w w 0 0 6 w 0 0 0 > 0 q 0 0 0 0 0 0 0 0 0 0 0 0 0 0 0 0 w p e e 0 0 0 0 0 0 > 7 X 0 > w 0 w 0 0 w 0 w w 0 7 0 0 0 0 w 0 t t ",
"o.e q q 0 w 0 w 0 0 q 0 q 0 0 e w w 0 w w 0 w w 0 q 0 q w w e p p e q w 0 0 e 0 0 0 0 w 0 7 w w 0 0 w w w w 0 w 0 0 q 0 q q t r ",
"o.e w w w w 0 0 0 0 0 0 0 0 0 w w 0 0 > w 0 w : 0 q 0 0 w 0 e p e u w 0 0 0 0 0 0 0 > w 0 0 0 w q 0 0 0 0 0 0 0 0 0 w w e 0 t t ",
"X.e w w > w 0 w 0 0 0 + 0 0 0 w w 0 0 0 w > 0 0 0 0 0 w 0 0 w p e e 0 0 0 0 w 0 0 0 > w 6 0 0 7 w + 0 0 0 0 0 0 0 0 w 0 e w t p ",
"o.e e e 7 7 0 0 0 0 0 0 0 0 0 e w w 7 0 w > w 0 0 e 0 w 0 0 e a t e e w 0 0 e 0 0 w 0 q 0 w 7 e w w w 0 0 7 0 w 0 0 w 0 w w p p ",
"X.w w 0 0 w 0 0 0 + 0 0 0 0 0 0 6 0 0 + 0 0 7 > > 0 + w 0 0 0 p e w 0 0 0 0 0 0 0 : 0 0 > 0 0 w 0 + 7 0 > 0 + 7 0 0 0 0 0 0 e p ",
"+.e e q w w 0 w 0 0 0 0 0 0 0 e 0 q 0 w q 0 w 0 0 w 0 w e q e s e u q q e 0 e 0 q w 0 q 0 w 0 e q 0 q 7 0 w 0 0 0 w w w e w y s ",
"X.w w 0 0 0 6 0 0 0 0 0 0 0 6 0 0 0 0 > 0 0 w > > 0 0 w 0 0 0 t e e 0 0 0 0 0 6 0 0 > 7 > 0 0 0 7 > 0 0 0 7 > 0 6 0 0 0 w 0 e u ",
"O.9 9 w 0 q 0 w 0 0 0 0 0 0 0 e q q q 0 w 0 0 0 7 w w q w w e a e t e q w w 0 0 q 0 w q 0 q w q q 0 0 0 0 0 0 w w 0 w 0 e w p p ",
"o.e e q 0 w 0 0 0 0 0 6 0 0 0 0 0 7 0 > 0 7 0 0 0 w > w 0 0 q p e e w 0 w 0 0 0 0 0 0 q > w 0 0 7 0 0 0 7 0 0 0 0 0 0 0 w w p p ",
"+.e e w q e 0 w q 0 q 0 q 0 0 e w w 0 0 0 0 0 0 0 w 0 0 0 0 e s t e w q w w w w 0 q 0 q 0 w e e w 0 0 0 0 w 0 0 : 0 0 0 0 w p p ",
"#.p e e q e w w w 0 q 0 e q w e q q 0 0 q 0 e q w w w 7 0 0 t { p u q q w 0 q w q 0 0 q 0 q w e e 0 q w q q 0 q w w 8 0 e e a s ",
"$.s a p e t e t e e t e t e e p 9 t e e t e t e e t e t t t p ..a s t t t e e e t t e t q t e t e e t e 9 t e t e t t t t t { { ",
"&.o.o.s a { p { s a { a s a s { a s s a { a s s s s a s { { o.@.X.O.s s s p ..a s s a { p { s s { a s a a s a s a a { d { ..O.O."
};
