/* XPM */
static char *_bd9f735fbb14b0f9fec9c2beb72faaeq7IXkvMlDjQMXL8d[] = {
/* columns rows colors chars-per-pixel */
"64 64 209 2 ",
"   c #13180E",
".  c #011515",
"X  c #0B1716",
"o  c #021916",
"O  c #0A1A16",
"+  c #021718",
"@  c #081719",
"#  c #021B1B",
"$  c #0A1D1C",
"%  c #121A17",
"&  c #191B16",
"*  c #1C1B15",
"=  c #121C1B",
"-  c #37170E",
";  c #291914",
":  c #241E1C",
">  c #351913",
",  c #3C1B15",
"<  c #03211E",
"1  c #0B211D",
"2  c #0E291E",
"3  c #14211E",
"4  c #1B221C",
"5  c #1E2A1F",
"6  c #27231B",
"7  c #071F20",
"8  c #0D1F20",
"9  c #101F20",
"0  c #042422",
"q  c #0D2222",
"w  c #022B25",
"e  c #0C2925",
"r  c #0A2728",
"t  c #032D2A",
"y  c #0C2B29",
"u  c #112425",
"i  c #1D2322",
"p  c #112827",
"a  c #1D2825",
"s  c #112728",
"d  c #1C272A",
"f  c #12292A",
"g  c #112A2A",
"h  c #112C2A",
"j  c #112B2C",
"k  c #112E2D",
"l  c #1A2D2B",
"z  c #06342C",
"x  c #0A322D",
"c  c #11312E",
"v  c #12312F",
"b  c #1C312E",
"n  c #042C31",
"m  c #112E30",
"M  c #053633",
"N  c #0B3531",
"B  c #033A33",
"V  c #0B3D36",
"C  c #0A3F3A",
"Z  c #113131",
"A  c #113532",
"S  c #113433",
"D  c #1C3232",
"F  c #113936",
"G  c #123937",
"H  c #113C3A",
"J  c #252C25",
"K  c #272828",
"L  c #2A2D2A",
"P  c #372C26",
"I  c #26352A",
"U  c #2B332C",
"Y  c #393528",
"T  c #223236",
"R  c #233C33",
"E  c #263A39",
"W  c #393E36",
"Q  c #5A0F09",
"!  c #4C140C",
"~  c #54130A",
"^  c #571509",
"/  c #5C140B",
"(  c #5A190C",
")  c #441A14",
"_  c #481A14",
"`  c #541813",
"'  c #5B1B12",
"]  c #640F07",
"[  c #6C0E05",
"{  c #6A0F09",
"}  c #750E04",
"|  c #7B0D03",
" . c #621307",
".. c #63140B",
"X. c #6B140C",
"o. c #64180C",
"O. c #6A1A0E",
"+. c #751106",
"@. c #7E1005",
"#. c #74140B",
"$. c #7D130C",
"%. c #74190E",
"&. c #6E1610",
"*. c #641C12",
"=. c #6A1B12",
"-. c #7B1611",
";. c #771912",
":. c #721D13",
">. c #43281D",
",. c #5A241B",
"<. c #6F2316",
"1. c #7A2214",
"2. c #762418",
"3. c #402B22",
"4. c #4D372E",
"5. c #4C3F35",
"6. c #602E25",
"7. c #67362C",
"8. c #753428",
"9. c #11413D",
"0. c #1B433E",
"q. c #21453D",
"w. c #34453E",
"e. c #7C423C",
"r. c #0E4947",
"t. c #124543",
"y. c #114A46",
"u. c #114D4A",
"i. c #1C4B48",
"p. c #12524D",
"a. c #115451",
"s. c #155951",
"d. c #155E59",
"f. c #294640",
"g. c #274F45",
"h. c #374D46",
"j. c #2B554B",
"k. c #34564A",
"l. c #2F5A52",
"z. c #335853",
"x. c #12645E",
"c. c #366259",
"v. c #126661",
"b. c #287973",
"n. c #444F42",
"m. c #415848",
"M. c #505E58",
"N. c #605D4D",
"B. c #4C6156",
"V. c #556A5C",
"C. c #676251",
"Z. c #78635B",
"A. c #446962",
"S. c #800E07",
"D. c #821105",
"F. c #85140B",
"G. c #87180B",
"H. c #8C190F",
"J. c #831B12",
"K. c #8B1C11",
"L. c #851E1A",
"P. c #901912",
"I. c #852216",
"U. c #8C2115",
"Y. c #87281A",
"T. c #8D291F",
"R. c #962C1D",
"E. c #9A2A1B",
"W. c #8D2C26",
"Q. c #962D22",
"!. c #8B3324",
"~. c #843328",
"^. c #98352A",
"/. c #893C31",
"(. c #983B33",
"). c #993D39",
"_. c #A63C2B",
"`. c #A43E30",
"'. c #874238",
"]. c #9B4435",
"[. c #94543C",
"{. c #AA402B",
"}. c #A7433D",
"|. c #B24134",
" X c #B44B3C",
".X c #A1583E",
"XX c #8C4D43",
"oX c #895344",
"OX c #97564E",
"+X c #9A5548",
"@X c #AC4E4C",
"#X c #AC594B",
"$X c #B25445",
"%X c #BA5748",
"&X c #B25752",
"*X c #B7604E",
"=X c #8D7065",
"-X c #A87165",
";X c #B3786A",
":X c #C36459",
">X c #C97A6B",
",X c #B5806E",
"<X c #C9887A",
"1X c #C28D86",
"2X c #C69083",
"3X c #C2998C",
"4X c #CFA99B",
"5X c #D4A897",
"6X c #D4ACA0",
/* pixels */
"t.m s s u s u u s 9 s u s u u s u f u u u u p u u s s s u u f G Z f u u f u f u u u u p u u s u f u u u u u u f u u f u f u Z G ",
"u.Z g j u m u j g g d f s g u g p p f u p u u u f d s p f f h G G j g p h u h f f f u f u u p p f s p f u f u u f u f u f u Z H ",
"t.g g s u u s u f u f 9 u s u g u u u u u u u u u u u s u u f Z j h s u u u f u u u u u u s u s p u p u u u u u u u u u u u j G ",
"y.g s s u j 9 u s u s u u u u f u u u u u u u u u s u u u u f Z j h s u f u f u f u u f u s u s p u u u u u 9 u u u u u g g j S ",
"y.j j j u j u j s u s s f s u f f f u u s u s s u p u s s g f G m m u j f u u u u u u f q s s g f u f u u f f f f u s u p g g G ",
"t.g u u 9 9 s 9 u 3 u u s u u u u u u u q 3 u q u s u u u u u v j s u 9 u u u u u u u u u u u s u u u u u u 9 u = u u u u u h S ",
"u.j j m j m u u g s s u s s s f s g s u g u s u u s s s u f f G S m j s f s f s f f u f u g p p p u f u u u u q j f f u p g Z H ",
"t.s u u 9 u 9 s s = s 3 u u u u u u u u u 9 s % = s u u u u f j m s u u u 9 u u u u 9 u u u u s u u u 9 u u = u 9 9 u u s u h G ",
"y.h g f u p u f s q q s p s u p p f f u u u s u u s 3 s p p e S S y s s p s g s s u u s u s s p g u s u u u u q u u u u u f j G ",
"y.h s p u f u u s s s u s s s p u s u u f u s u u s u s 1 1 e w.t.q 8 1 u u s u s s u p q s s u s u u e u s u s u u u u f u Z G ",
"y.j p s u p u u s u u 3 u u u s s s u u u u u 3 1 u 1 $ o # w m.j.0 # # @ $ u u u u u u 3 s u s s u u 3 u u 3 u u u u u u u v S ",
"p.j p h u p s p s s g u p s u p q s s u p u u u $ @ @ . = 3 x m.g.0 # I U . # $ q s u p u s s p g u s u s p u s u u u u f p v G ",
"t.g s s u u u u u u s 3 u q u s u u u u u $ @ . @ O . . o o z k.u.7 # + # + u a . $ 8 s u u u s u u u u u u u u q 3 u u u u h v ",
"p.j g g e h u u s q s s s p u g j s s u $ @ % . . . . . o o z j.r.7 + + . . . < . # $ y s s s j g u f f s p u s g u u g p p v G ",
"y.j p g s g u s s u p s p s s p s s e $ . o O . . . . . o o x k.r.7 # + . . . . . 1 p 1 = j s g g s s u s p f p g s p p p p v S ",
"p.h g g q p s s g u e u u s s g g s $ X 1 . . . . . . . 1 6 q.B.M.n d 8 + + . . . # $ # $ q y g g s p s s p u u s u p p f p v G ",
"u.h s s u s u s u u g q s u u s u $ . & . . . . @ . J 4 # 0 S B.i.w < < < i . . . # + # l 1 u p g u s s s s u u u u u 3 s e h S ",
"y.j s s u u 3 u u u u 3 u u u s = o . . . . . . P # . # + 2 R C.z.h < o # < # $ . . . + 0 l $ q s u u u q u 3 u u 1 u u u u h Z ",
"p.m s g s p s p u u s e s s u g $ = . . . . . . o o o % o < I N.i.0 1 1 $ o # i $ . + . # # # r s g s s s s u s u u s u g p v G ",
"t.s s s 3 s 9 u u u = 3 3 q $ $ @ @ . . . @ : # o X . o * , 6.oXe.>.; 3 # o @ . + 1 + . . + l $ 1 = = u u u 3 u u u u u s u h x ",
"p.g g g s p e s s u s u s s $ # . . . . . @ . . . . ; ) ( ( 2.[.7.*.' ` - $ o o . p X . . + # q q q u u s s u u u u s s p s v G ",
"t.s s s u u u u u 3 u 3 u u $ 4 . . . . 6 . o o @ , ~ Q ( o.Y.+XXX*.*.../ ` % o @ # # o + . # . $ = u u u 3 u s u u s u s u j Z ",
"u.j s s u s u u u u s u u 1 . * . . . . o # O o ) /  . .X.O.!.#XXX:.&.&.O.o.~ O e # < P # . . . $ q s s u s u s u u s q s s Z Z ",
"u.g f s u f u s u u s u u @ . . . . . % . @ . > ( ....o.[ $.R.$X).-.&.#.X.o.o.) . $ # < # # # # I 8 q s u u 3 q u u s s p s j G ",
"u.y s s u u u s u u u 3 u o X . . . X . . o   ~ /  .[ [ +.D.E.$X).F.$.+.{ &. ./ ; # # < J # . # p @ u u e u = u 3 u s u u u j v ",
"a.j g p u s q s u u s u s o % . . . . . X o - Q Q  .[ | @.D.R.$X).F.| $.{ { { ..! . $ # U # # + + + q u u s u s s u s s p s Z G ",
"y.p s s u s 9 s 3 u u 3 u @ . . . .   . . X ~ Q  . .} | $.J.{.<XOX-.-.$.+.{ ] / ~   $ # # # # # # $ $ q = u 3 s u 3 s u u u j v ",
"a.j g p s p s p q s s s g . . . . X . . . ; ^ /  .[ | | $.Y.&X3X-XL.-.F.S.#.{ ../ ; $ o 0 q # + # u 1 q s s s s u u q s p g G G ",
"p.y s s u s u u u u s 3 u $ . . . . . o # > /  .X.| S.F.K.Q.<X;X1X(.L.J.F.$.#.X.o.) < < 0 j # # # # q q u u 3 u u q u u u p S S ",
"v.G Z h p h h j s g y p e e w < 0 q w w h 3.<.1.G.G.K.^._.$X5X5X4X&X^.T.F.F.%.:.O.) < w 0 0 # $ < < q y g j g y h p h p g j 9.H ",
"b.y.t.9.G H N H G G H S N B B B M V R 9.w.5.!.!.Q.E.Q.^. X|.1X<X<X}.}.Y.P.K.L.;.2.,.z y M E t t t W M G G G G G G G 9.N 9.9.y.p.",
"d.H N S j Z j v v g v y y < 1 < < < 5 0 2 6 1.1.J.G.F.U.^. X>X2X;X@X`.^.E.Q.!.~.~.7.9.B 9.0.C B B h.N y y v h S g g v h S S 9.y.",
"p.G j h g h u s p u g u q # # . . o # < o * X.X.+.@.@.F.H.{.%X<X&X(.W.K.K.L.1.1.<.>.z w t t t w t w r e s s u s s s g s g s S 9.",
"u.j g g u h u s s s s u < # # # . . 4 . O & o.O.O.+.D.D.G.E. X:X@XW.J.F.F.$.%.=.o.6 p < h < # < < < q q u u u f u s p s g s Z H ",
"y.j g p u g s s s s p u $ . . . . . i @ o * ( o.O.O.| D.G.U. X>X).L.J.F.$.-.:.:.,.< 8 < l # < # y 0 q q u u u u u u u u s s j G ",
"u.y p p u g s f f s g s s # # . o o 6 . # $ ) / ..#.#.D.G.H.{.*X^.K.F.$.%.X.X.=.; 1 # # < o # # E q q g s s u f s u p u p s Z G ",
"t.g s s u u u u s u u u u # % . . . o . @ o 4 ~ ( ..X.#.@.K._.*XW.J.;.:.X.o.&.` $ # # b < . . # 7 $ q u 9 u 9 u u 9 u u s u h Z ",
"u.m f g s j u s p s f u s 8 O . o . o O . = o - ^ ^ ..O.1.Y.].#X/.2.=.X./ o.' % o @ # $ # # # 0 # 7 s s s f u u s s s u e s Z G ",
"t.j f s u u u u u u s u u u # . . . . K o o o X , / ..<./.+X[.,XOX/.<.*.' ' : # = # u # . # # D 7 8 u q u u u u u u u 9 g u g G ",
"u.j s s u f u s f u u u g u $ # . . @ o o # @ O $ , ^ :./..X[.,XOXXXOXoX,.: < a # < i . . # # b # 7 s u u u u f u u s u s u v G ",
"y.j f h g s s s s u u u u u q i # . . # J $ # $ O # 6 ,.8.'..X,XXX8.7.4.e < J # < < # # # # # # $ 8 s s u s 3 s u u f u f u j H ",
"t.s u u 9 s u u u 8 s u u u = $ . . # . . # # # # < 1 0 4 Y e.=Xh.d 0 0 e $ # 0 Y # . . # y p # q u q % 3 s q u u 9 u = u u h S ",
"u.j f f s f u s s s e s u s s 1 . o . . . . i = # . # i 2 x n.V.M y q q < $ r # # # # # # D # $ q s s s s s s s u u s u p p v H ",
"t.f f u u s u u u u u 3 u u u u $ 4 o . . . # . $ 1 # < 1 e w.B.N 0 0 # # $ f # # . # # # # # q u u u q u u = u u u u u u u v S ",
"u.j f f u u u p p s g u s s u p e q # . . . @ . # 3 # u 2 x j.B.M t 7 K q # # + # # $ T $ # q u j u s s u p 3 u u u u u f f v S ",
"i.f p p u u u u u s s q u u u s u q $ $ # . + . # # # q e G Z.V.q.E 7 # # # # # # . j 0 7 0 u g s u s u u u s s q u u u u u h S ",
"y.h p f u f u p s u s u e s s g s u q $ L # . . . . . # < z j.A.t 0 # @ # # # # w # $ < 8 g s j g u s s s s u u u u g u u p v b ",
"p.v h v h Z f h j p h s p g g y g j y q $ # q # # # . # < w j.c.n 0 7 7 # # # y d 0 q e f y g j j g h p g h s h h g h y h h G H ",
"y.g s s u u u s s 3 p u u u 3 e p h s q $ $ $ i # # # # < t g.l.t 7 # # 0 g # # $ $ $ u u s u s g u p u u u u u u u u u u u h v ",
"a.Z g p s p u p s s p u s u s g q u s s s 8 q $ # # J 1 $ x j.c.n y 0 # s 0 7 8 q s s g s q s j f f f f f f u f p p u u p p v G ",
"t.g s s u u u u u u u 3 u u u s u u u u s u q = 8 # $ $ $ x h.z.t 0 # @ $ = s 3 s u 3 q 3 u u s u u f u u p u e u u u u u u x v ",
"u.j p s u s u s u u u u u u s p s u u s s u s s s e 1 q u y D 0.y j u e g u s u u s u s u q u j u u f u u u u s u u p u g p v v ",
"u.g g s u s u s s s s u s u 3 g u u u u s q s 3 u u 1 u s u g Z j j s s u u g u u s 3 q u q u s p u u u u u u u u u u f g p g S ",
"y.g s s 3 s u s u = u = u u u g s u u 3 s 3 u u u u u s u s s S j j s q u u u u u 3 u s 3 u u u s 3 u s u u u s u u f u u p v S ",
"u.g g g s s u s u u s u s s u g s s s u s u s u u s s s u u s G j j s s s u g u s s u s s s u g u s s u u s u q u f u u s g Z S ",
"t.g u q u q u = u 3 u 3 u u = s 8 u u % u u 1 u = s = s u u s m y s u s u u u = u q 3 u = u u s u = u 3 u = = s u u u u u u j Z ",
"p.g g g s u u s s u s u s s u p u p u s p u u u q s u s g u h G v j s p p u g s s u u s u s u p u u g q u s u s u u f s f f D G ",
"t.s u u u u u u q 3 u u u 3 q u u u u 3 u u u u u u u s u u p v g g u u u u u = u u 3 e = u u u u u u 3 u q 3 u 9 u s u u u j j ",
"a.j y g u s u u s u u q s u u g p s u u q u u u u s s p s s g G h h p p s u s u p u u p u s u p s q s u u u u u u u f u s s S G ",
"u.h u s s s u s u u u 3 u u u u p q 3 u s u u u u s 3 s u u g G j j s p q u s u u u u p u u u p s u u e 3 u u u u u u u s s Z S ",
"a.j y g s p e s u p p u s u u p s s u u u u u s u s 3 s u u h G Z j u p s u s s p g u p u u s g u e u u u s u u 3 e p u s p S S ",
"d.Z g g p g u s s q p u p s s h g u u u g s p u u s s q u p j 9.Z j p p g s g u p u u p u s s h u u u u u g u s u g p u s g G G ",
"x.H G v h v g v h j v h Z h g Z h v h h j h x h h v h v v v N y.G G v v j j m g v v h v p v j v j g Z h h v y j h h v e G v 9.9.",
"b.u.y.9.G 9.S 9.G G H G H H G 9.G H G G H G H H G H G H 9.9.y.s.y.p.H 9.H G H G H G G 9.S 9.H H 9.G H G V H G H G G 9.G 9.9.p.s."
};
