/* XPM */
static char *bd23814ff0974562bd3ac82e80ab364bz6GNI3KsG1AW7WWr[] = {
/* columns rows colors chars-per-pixel */
"64 64 204 2 ",
"   c #13180E",
".  c #031615",
"X  c #0A1716",
"o  c #041916",
"O  c #0B1A16",
"+  c #031719",
"@  c #081718",
"#  c #031C1B",
"$  c #0A1D1C",
"%  c #131814",
"&  c #1C1A14",
"*  c #121B1A",
"=  c #1B1E19",
"-  c #37170E",
";  c #291914",
":  c #221E1C",
">  c #351913",
",  c #3C1B15",
"<  c #04211D",
"1  c #0A211D",
"2  c #0E291E",
"3  c #1A251D",
"4  c #252217",
"5  c #24231D",
"6  c #0C1F20",
"7  c #101F20",
"8  c #1C1F20",
"9  c #042422",
"0  c #0D2323",
"q  c #022924",
"w  c #0C2A25",
"e  c #0A2628",
"r  c #042D2A",
"t  c #0C2B29",
"y  c #112425",
"u  c #1C2422",
"i  c #112827",
"p  c #112728",
"a  c #112929",
"s  c #122A2B",
"d  c #112C2A",
"f  c #112B2C",
"g  c #112D2D",
"h  c #1E2928",
"j  c #1A2D2D",
"k  c #05332C",
"l  c #0A322D",
"z  c #11312E",
"x  c #11312F",
"c  c #112E30",
"v  c #0E3633",
"b  c #073937",
"n  c #0C3D36",
"m  c #113231",
"M  c #113432",
"N  c #113532",
"B  c #113634",
"V  c #113936",
"C  c #123936",
"Z  c #113C3A",
"A  c #252624",
"S  c #2D2B26",
"D  c #232D2A",
"F  c #25362C",
"G  c #373328",
"H  c #233B32",
"J  c #263939",
"K  c #393E36",
"L  c #5A0F09",
"P  c #4C140C",
"I  c #5B1407",
"U  c #54130A",
"Y  c #53170A",
"T  c #5C140B",
"R  c #5A190C",
"E  c #431815",
"W  c #441A14",
"Q  c #4E1C14",
"!  c #541813",
"~  c #5B1B12",
"^  c #640F07",
"/  c #6C0E05",
"(  c #6A0F09",
")  c #750E04",
"_  c #7B0D03",
"`  c #621307",
"'  c #63140B",
"]  c #6B140C",
"[  c #64180C",
"{  c #6A1A0E",
"}  c #751106",
"|  c #7E1005",
" . c #74140B",
".. c #7D130C",
"X. c #74190E",
"o. c #6E1610",
"O. c #641C12",
"+. c #6A1B12",
"@. c #7B1611",
"#. c #771912",
"$. c #721D13",
"%. c #43281D",
"&. c #5A241B",
"*. c #6F2316",
"=. c #752014",
"-. c #7A2214",
";. c #77271B",
":. c #402B22",
">. c #4D372E",
",. c #4C3F35",
"<. c #602E25",
"1. c #702922",
"2. c #67362C",
"3. c #753428",
"4. c #11413D",
"5. c #24433D",
"6. c #36473E",
"7. c #7C423C",
"8. c #0C4440",
"9. c #114543",
"0. c #114A46",
"q. c #114D4A",
"w. c #1C4B48",
"e. c #12524D",
"r. c #115451",
"t. c #155951",
"y. c #155E59",
"u. c #214840",
"i. c #2F5148",
"p. c #325248",
"a. c #345451",
"s. c #12645E",
"d. c #126661",
"f. c #287973",
"g. c #444F42",
"h. c #505E57",
"j. c #605D4D",
"k. c #775646",
"l. c #4D6155",
"z. c #4A6258",
"x. c #556A5C",
"c. c #676251",
"v. c #78635B",
"b. c #800E07",
"n. c #821105",
"m. c #85140B",
"M. c #87180B",
"N. c #8C190F",
"B. c #831B12",
"V. c #8B1C11",
"C. c #851E1A",
"Z. c #901912",
"A. c #852216",
"S. c #8C2115",
"D. c #86241E",
"F. c #8B2319",
"G. c #842D1B",
"H. c #8D291F",
"J. c #962C1D",
"K. c #9A2A1B",
"L. c #8D2C26",
"P. c #962D22",
"I. c #833325",
"U. c #8B3324",
"Y. c #87342E",
"T. c #9A3226",
"R. c #96332E",
"E. c #9B362A",
"W. c #893C31",
"Q. c #983B33",
"!. c #993D39",
"~. c #A63C2B",
"^. c #A43E30",
"/. c #874238",
"(. c #9B4435",
"). c #94543C",
"_. c #AA402B",
"`. c #A7433D",
"'. c #B44B3C",
"]. c #A1583E",
"[. c #8C4D43",
"{. c #974F4A",
"}. c #895344",
"|. c #9E5342",
" X c #965D52",
".X c #AC4E4C",
"XX c #AC594B",
"oX c #B25445",
"OX c #BA5748",
"+X c #B25752",
"@X c #B7604E",
"#X c #BF6456",
"$X c #8D7065",
"%X c #A87165",
"&X c #B3786A",
"*X c #C97A6B",
"=X c #B5806E",
"-X c #C9887A",
";X c #C28D86",
":X c #C69083",
">X c #C2998C",
",X c #CFA99B",
"<X c #D4A897",
"1X c #D4ACA0",
/* pixels */
"9.c p p y p y p p 1 p u 0 p y p i p y y p y p y p i p p p p p B m s p y i y i y u 0 0 p y y p p i y p y y p y p y y p y p p f C ",
"q.m s f p f p p s p s y p s 0 s i y p y p y p y y i p i p i i C B f s i f p s s p s p s y p i i s p i p p p y y p y i p s i B Z ",
"9.f i p y p p y p u p y p p y s p y y y y u 0 y p i p p y y s m z s p y p y i y p p y y y p y p y u p y y y y p y p p y i 0 d N ",
"9.s p s 0 p y y p p p y p p y s y y y y p 1 p y y 0 u y p p p m f d p y p y p p t 0 u p 0 y y p w y y y u y 1 p u 0 0 y i p f B ",
"9.z p p p p p p p y p y p p y s s s p y s y p y p p y p p p p C c f p p p 0 p p y p p p y p p s s y p p p p p p y p p y s y z B ",
"9.s p p y 0 y 7 y y y y y y y p y y u y y $ y 0 * y y y u y p m t f 7 y y u y y y y y y 1 y y p y y y y y y 7 p y y y y p y d B ",
"q.f f f p f p p p p p p p p y i p p p y p y p y p p p p p p p C B c f p f p p p s p p f p s i i i y p p y 0 y 0 y p p p i p m Z ",
"9.p p p 7 p 7 p p * y y 0 0 u i p y y y y 7 0 3 y y 6 p y y p m c p y y 0 7 y y y y 7 y 8 p y p p y y * y y * y 7 y y y p p d B ",
"q.d i s y i p p p p 0 p s p p i p s p y p y p y y p y i y p i B m s p i i p s p p p y i y p p i s y p y y p u y y y p u 0 p f C ",
"9.d p i y p y p 0 y p u p 0 p s p p y y p y p y y p y 0 y p s B N s y p p y p y p y y i y p y y p y y y y p 0 p y y p y s p z Z ",
"9.f p p 1 s u w p y y 1 y y y y y y u 1 p u y 1 0 y u 0 y 1 s z d s y y p y y y y y y y 1 p y i p 1 y y y 0 1 y y y y 7 y p d N ",
"e.z i s y i p i s p s y w p p i t p p y p y p y y p y y y p s C m d i i w y p p i p y p y p p i s p i y p p y p y y y y i i z Z ",
"9.s p p y y y y y y p 7 y y 1 p p p y y y 3 y y 1 u y 0 1 u 0 z s p p p y * p y y y y y y y p p p u y y y y y y 0 3 p 1 p y i z ",
"e.f s i w d y p p p p y p p y j p p p p s p i p p s 0 p 2 2 w C z t 0 0 s p s p p p p s y p i f s p p p i i y p p p p s p p z C ",
"9.t s s p i y p p y i w p s p s p t p p w y s p p s y 0 < < k 6.8.9 # 6 w 0 p 0 0 i p i y s p i s 0 p p p i p i p p i i i i z C ",
"e.d s s 0 s y p p y i y p 0 y s i s p p p p y y w 0 $ # o S 5.l.h.e h 6 @ 0 p 0 i i y i y i p i s s s 0 p i y y p p i i i i z C ",
"e.f p i y p y p p y s u y y y p p p p p p y y y 6 $ D 8 + 9 g l.w.q < 1 < u $ 1 y y y p y y p p s p p p p p y p y y y y s y d B ",
"9.f p p y p 1 y y 1 y 1 y y y p y y y y y 7 0 @ S # + o o w 5.c.a.z < o # < + # @ y $ p 1 y y p p y y y p p * p y 1 y * w y d l ",
"r.f s i p s p p p y y y p w p s p p p p p 0 0 . o . o % o < j j.w.9 < 1 # @ + u $ # 7 p u p y s 0 u p p 0 d y p p y p y s p z B ",
"9.s p p 1 y 0 u p * y y y * 6 p y y 1 * 6 $ : . . . @ . & , <.}.7.%.; 1 # # @ o + $ $ 0 7 0 y p p y $ y * y y y 3 0 p y y y d z ",
"e.f s s y s p s p 0 p u p y y s p y y y $ + . . . . & W R I ;.).2.O.~ ! - @ @ @ o y O w p p p p s w p y p i u p y y p y f p z B ",
"9.s 0 p u 0 y y u 1 p 1 y y y t y 0 y @ A . . + O , I I I { 3.|.[.O.O.' T Q % # @ # # $ $ p y p p * y 1 u 1 1 y y y p y p y f m ",
"q.t p s p p y y y y y y y p u p p y 1 + . + @ o , I I ` ]  .U.XX[.$.o.o.{ [ Y O 0 # < S $ 0 p p p y y y p p y p y y p 0 p p m B ",
"q.f p p y p y y y y p y y y y i w y $ O . @ o > R ' ] ] ( #.J.oX!.@. .o.] ' { W o $ # # + 1 y p p y p y y y y y y y p p i s f B ",
"q.s p p y y y y y y y * p p y p 1 1 * @ . o   U I ` ( / ) n.K.oX!.m... .( ( ' T ; @ # < D $ y y p * y y 0 y 3 y 1 u p y y p d z ",
"r.f s i p i y p y y i p 0 0 1 s p y @ . X . - L I ^ / _ | n.J.oX!.m.b._ } ( ( L P + # # F 6 0 p w y p 0 p y y p 0 p p y i p m B ",
"9.i p 0 y y 7 p u 1 y y y u y p y 1 X . . O P L ` ^ ) ) ..B.(.*X{.#.@...} ( ' ' U   $ # + # 0 p p * p y y y 1 p y y y y y p f m ",
"r.z f i p s y p 0 p p y p y p s p 0 . @ . ; T T ` / _ _ ..D.@X>X%XD.B...b. .( T R ; # # 9 0 p s w p 0 y y y y p p y p y p s C C ",
"e.t t p y p p y y y y 3 0 y y p 0 $ o @ o > ' ' ] _ | m.C.P.-X*X;XR.D.M.m... .o.[ , < # 9 p 0 p p y y y y p 6 y y y y 1 y p B z ",
"d.C m d i s d f p s l i t s s c s w q w i G =.-.m.N.V.T.~.oX<X1X,X+XR.L.m.m. .$.[ &.< q q 9 0 f s p s s t d p s s i d d d f 4.Z ",
"f.9.9.4.C 4.B Z C B Z B Z Z C Z B n H 4.6.,.U.U.P.K.P.E.'.~.:X-X-X.X`.F.Z.V.C.-.=.&.k s k J v Z Z B Z C C Z B C C B 4.v 4.4.q.q.",
"y.Z C B f z d t v s f d f f d B t t 3 q 2 4 $.-.B.M.M.S.E.'.*X:X&XoXQ.T.K.P.U.I.I.2.Z n 4.4.v z m d m f d z d B f d z d N N 4.0.",
"e.m f d i d i p i y p p s p p f s 1 # # o & { ]  ._ | m.B._.OX-X.XQ.L.V.V.C.A.-.=.G l r r q e f f p i p p p y p p p s p s p B 4.",
"q.c s s p s y p p p s y 0 p y j 0 # 3 o @ & [ { ] } n.n.M.J.'.#X.XL.B.m.m. .#.{ [ 4 y < d < 0 s f p i p y y y p p y p p s p m Z ",
"9.c s w y s p p p p s y p p y p i 0 3 @ o = R [ { { b.n.M.S.'.*X!.C.B.m...#.$.$.~ < 6 # j < 0 p p y y y y y y 0 1 y y y p p f B ",
"q.f i i y s p i s p f p p s p d t 0 5 o @ # W T [  . .n.m.N._.#XE.V.m... . .] O.4 1 # 9 # # p t d p i y p p p f p s i i i s z C ",
"9.s p p 0 p 7 y p u 0 p y y 1 i p y $ . @ o & P R [ ]  ...N.~.@XL.B.@.o.+.' o.! O < # j 6 $ y 0 y y y y y y = 0 7 y p 7 p p d z ",
"q.m s s p f p p p y s p p p p s p p $ X . $ @ > U I ` ] X.G._.XXY.;.o.O.I ' ~ = # @ + $ # 0 0 s s y p p y p y p p p p y 0 p z Z ",
"9.s p p y y y y p y p y p p y s y y 0 A o o @ X , R [ =./.].(.&X XW.1.O.O.~ = < $ + y + 6 0 y y p y y y y y y y y y y 7 p y z C ",
"q.f p p y p y p p y y y y p y p p p 0 $ # o @ X # E ~ +./.|.).=X X[.{.}.&.4 < u @ 9 u 6 6 t p p i y y y y y y y y p p y p p z N ",
"q.f i p p p y p p y p p p p p s p p y 0 D $ + $ < o 4 &.3.(.].&X[.3.2.>.w < A # < # < 0 y p p i p p y y y p y p y y p y p p f Z ",
"9.p y p y y y y y y y 1 0 u 3 p y p y 6 $ . # + + # 1 9 2 G k.$XK j 9 9 w $ < 9 G 6 y p 0 u 0 y p 7 y y y p * y y 7 y 7 y y d B ",
"q.f s s y s y p p y s p p p p s i p p y 0 $ u 7 + # # 8 3 w g.x.b t 0 9 < # w # 0 p p s p s p i y s y y y i y p y y p 0 i i z Z ",
"9.p s y y p y y y y y * y 0 1 p y p y u p 6 $ + 6 < + # < w p.l.v 9 9 # # # h $ y y 1 y 1 y y y y y y y y y 6 u y y y u p i z z ",
"q.f i s y i y i i p s y p p y s i i p y p y y $ $ y # u < k p.z.b q # D p $ p y p p p i p i p i s y p y y i 1 p y y 0 0 p p z N ",
"9.s p i y p u p y p p y y y y w p p u y p y p y 7 w $ w w 4.v.x.J J 9 1 0 y y y p p y p y p p p p y p y y y y p y p y u p y z z ",
"q.d i s y s 0 p p y p y w y y s p p p p p y i p y 0 y 0 2 e u.a.r e 0 s y y i p p p p i y s i j s s p p y p y p w y i y y s z z ",
"e.z d z s z s d f i t p s s s f d f s s g i s s s f i d f w z Z B m f f g s t s i s i d p d d g g s d y s d s s s p d s d d C Z ",
"9.s p p y p 1 p p u y u w y 1 i y p p y 0 y p u 0 y 1 p y y i z d d y y y y p y y y y 0 y p y p s p p u y p u y y y p 1 y y d z ",
"t.c s s p i p p p y i p p y p s y s s p s y p y p s y p i y i C z f i y p p p p p y y y y p p f s p s p s i 0 s y p p y s p z N ",
"9.s 0 p y y 7 p y y y 1 y y u 0 y p 0 u y y y y y y u p 0 y p m d j y y p y 0 0 2 y y y * p 0 p p y p y y p p 0 y y y 2 y y z z ",
"q.f i s p p y p y y y y y p p f p 0 p p p y p y y i y p p p s C t f y p p y p u y y y s y 0 y s y y p p p s p p y y i y i p z B ",
"q.f i p y p y y y y y u p y 1 s p y y y p y y y y y y p p p s m f f s i p y p y y y * p u 0 y p y 1 w y y y u y y y p p s p d l ",
"9.s p p y y u p y y 0 1 y y u p y y y 1 p * y y y y y u y p p B f f y p p y y y y y y p 1 y y p 0 u u y y y 1 p u p p y p p g B ",
"e.t f p y i y p p u p y p y 0 f p p p y p y p y y i p p y y p B f s p i t y p y u p 6 p p p 0 s s p p p y y 7 p w y p y p p m B ",
"9.p p p 1 p y 1 y $ p * y y y p 7 y y $ p * 0 3 1 y 1 y y y p c d p y y 0 u y y p 1 y y * y y p y * y 1 y $ 7 y y 7 p 0 u p g m ",
"e.d s i p p y p p p p y p p u t p 0 i y i y p p y p y y p y s C z f i i i y p p p y y p u 0 y s s y p p y p y p p y p p s p N C ",
"0.p p y y y 6 y u 1 y 7 y 1 7 y 3 y y y y y y 1 y y y y y y s z i s y y p y 0 * y y 1 p 1 p y y y $ u 1 y y 7 y 7 y y y y y j m ",
"r.t s i y p y y 0 y p y y y y s y i p y p y y y y p y s p p s C f d p i p y s p i y p i y y 0 i p y p y y y y y p p p y f p m B ",
"q.s s y p p y p 0 y y y y y p p y y y y y y y y y y y p y y i B z d p y y y p y y y y i u p p i p 1 p 1 y y 2 p y 7 p y p p c m ",
"r.f f p p i w p p i y y p y y i p y y 1 p y y p y y 0 p y y d Z f g p i p y p y p y i i y p p s p y y y y s y y 1 y s y 0 s m B ",
"y.m t s p s y p p 0 i y p p p d s p p y p p i i p p y i i i d 4.B c i i p p t p i i y i y i p f p y i p y s y y p y w y s s Z C ",
"s.Z B m z z d z d f z d z d s m d z g d d d l d d z s z z z N 4.C C z z f d f s z z d d i z d z z s z s d z s z d d z d N z 4.4.",
"f.e.9.4.C Z B 4.C C 4.C Z Z C 4.C Z Z N 4.N Z C Z Z B Z 4.4.q.t.q.e.Z 4.Z C 4.B Z Z N 4.B 4.Z Z Z B Z C C Z C Z Z C 4.Z 4.4.e.e."
};
