/* XPM */
static char *eca8a19520884356a9b7ee75e1b29e0dHzk0IpfEOfWb0AJp[] = {
/* columns rows colors chars-per-pixel */
"64 64 230 2 ",
"   c #15170D",
".  c #011515",
"X  c #0B1716",
"o  c #021916",
"O  c #0B1A16",
"+  c #021718",
"@  c #081719",
"#  c #021B1B",
"$  c #0B1D1C",
"%  c #141712",
"&  c #1B1612",
"*  c #131915",
"=  c #1C1C14",
"-  c #131C1A",
";  c #1C1E19",
":  c #36170E",
">  c #241713",
",  c #281712",
"<  c #2C1B16",
"1  c #241D1C",
"2  c #351B14",
"3  c #381B17",
"4  c #3C1C16",
"5  c #03211E",
"6  c #0B211E",
"7  c #12231C",
"8  c #1B221C",
"9  c #23231C",
"0  c #28251A",
"q  c #2E221C",
"w  c #36211C",
"e  c #0C1F20",
"r  c #101F20",
"t  c #032422",
"y  c #0D2322",
"u  c #032A25",
"i  c #0C2925",
"p  c #072628",
"a  c #032D2B",
"s  c #0C2D2A",
"d  c #112425",
"f  c #1C2422",
"g  c #122826",
"h  c #1B2A24",
"j  c #112728",
"k  c #1C272A",
"l  c #112A2A",
"z  c #1A2D2C",
"x  c #033127",
"c  c #03332D",
"v  c #0B332D",
"b  c #11312E",
"n  c #1C322C",
"m  c #042C31",
"M  c #112E30",
"N  c #1F2E30",
"B  c #0B3631",
"V  c #033A33",
"C  c #063836",
"Z  c #0A3A33",
"A  c #113432",
"S  c #1E3134",
"D  c #113935",
"F  c #113D3A",
"G  c #222623",
"H  c #2C2223",
"J  c #252B25",
"K  c #2D2B24",
"L  c #232D2B",
"P  c #2C2E2B",
"I  c #362522",
"U  c #342A25",
"Y  c #3C2B26",
"T  c #322A29",
"R  c #3C2E2C",
"E  c #22322C",
"W  c #29332B",
"Q  c #34352A",
"!  c #3B312C",
"~  c #243737",
"^  c #233B33",
"/  c #353A34",
"(  c #5A0F09",
")  c #4C140C",
"_  c #54130A",
"`  c #56160A",
"'  c #5C140B",
"]  c #5B190C",
"[  c #431511",
"{  c #451A14",
"}  c #4B1B15",
"|  c #451C18",
" . c #4B1D1B",
".. c #5B1B12",
"X. c #521C1A",
"o. c #6C0E05",
"O. c #680F08",
"+. c #750E04",
"@. c #7B0D03",
"#. c #621307",
"$. c #63140B",
"%. c #6B140C",
"&. c #64180C",
"*. c #6B190D",
"=. c #791006",
"-. c #74150C",
";. c #7D130C",
":. c #73190E",
">. c #6E1610",
",. c #641C12",
"<. c #6B1C12",
"1. c #701710",
"2. c #7B1611",
"3. c #721D14",
"4. c #7B1C13",
"5. c #44221D",
"6. c #4B231A",
"7. c #52221C",
"8. c #5A221A",
"9. c #78200F",
"0. c #6B2416",
"q. c #762619",
"w. c #7D241A",
"e. c #442623",
"r. c #462A26",
"t. c #4D2C26",
"y. c #4C2D2B",
"u. c #532A23",
"i. c #522C29",
"p. c #582F2D",
"a. c #49342A",
"s. c #553327",
"d. c #5A322D",
"f. c #4C3630",
"g. c #433E37",
"h. c #573832",
"j. c #682C26",
"k. c #702922",
"l. c #65342C",
"z. c #783327",
"x. c #673735",
"c. c #703D32",
"v. c #11413D",
"b. c #18463F",
"n. c #24443C",
"m. c #3B493E",
"M. c #51403B",
"N. c #73463C",
"B. c #0E4947",
"V. c #114543",
"C. c #114A46",
"Z. c #114D4A",
"A. c #1C4C49",
"S. c #12524D",
"D. c #115451",
"F. c #155C56",
"G. c #274B43",
"H. c #344E47",
"J. c #28554B",
"K. c #325549",
"L. c #3C574A",
"P. c #3B5A4E",
"I. c #2D5451",
"U. c #385A54",
"Y. c #12645E",
"T. c #356359",
"R. c #3B625B",
"E. c #126661",
"W. c #287973",
"Q. c #49564A",
"!. c #43594A",
"~. c #51564B",
"^. c #505E58",
"/. c #644942",
"(. c #605D4D",
"). c #775646",
"_. c #4C6156",
"`. c #556A5C",
"'. c #706356",
"]. c #446962",
"[. c #800E07",
"{. c #831206",
"}. c #85140B",
"|. c #88180D",
" X c #8C190F",
".X c #831B12",
"XX c #8A1B12",
"oX c #851E1A",
"OX c #8A2014",
"+X c #87241B",
"@X c #832C1A",
"#X c #952A1D",
"$X c #98281A",
"%X c #8D2C25",
"&X c #942C22",
"*X c #853327",
"=X c #8B3323",
"-X c #943125",
";X c #9C362A",
":X c #97392D",
">X c #893C31",
",X c #983B36",
"<X c #A23C2F",
"1X c #874238",
"2X c #9B4435",
"3X c #94543C",
"4X c #A64C35",
"5X c #B24739",
"6X c #B34B3B",
"7X c #8C4D43",
"8X c #895344",
"9X c #995547",
"0X c #97564E",
"qX c #AC4C44",
"wX c #AD584C",
"eX c #B65848",
"rX c #B35751",
"tX c #926259",
"yX c #BB6252",
"uX c #8D7065",
"iX c #A87165",
"pX c #B3786A",
"aX c #C36459",
"sX c #B5806E",
"dX c #C9887A",
"fX c #C28D86",
"gX c #C69083",
"hX c #C2998C",
"jX c #D2A999",
"kX c #D4ACA0",
/* pixels */
"V.M j j d j d j j 7 j d d j d j j j d d d d j d d d d j d j g D M z j j g j j d d d d j d d j j l d d d d d d d d d j d l d A D ",
"Z.A l l j l j j l j z d j j d l g g j d g d j d d g j l d l l D D l l j l j l g g g d g j j j l l j l d j d d d d d l d l j A F ",
"V.l j j d j j d j d j d j y d j j d d d d 7 j d f j d j d d l A l l j d j d l d d j d j d j d j d d d f d d d d d d j d l y l A ",
"C.l j l j j r j j d j d j j d z d d d d g d d d j d d g d j j b M i j j j d d d j j d j 7 y d j g d j j d d d j d d d d j j z A ",
"C.l j j j j j j j j j j j j d l l k j d l d j j j j d j j j l D B l j j l d j d j j j j y j j g l d j j j j d j j j j d g j l D ",
"V.l j j r j j r j - d d d d d j d d d d j - d e r d d j d d g v l j d d d d d d d d 7 j d j d j d d d y d d d d r d d d j d l A ",
"Z.M j l j l j j l d g j j j j l j l j d y j j d y y $ 6 G U s.N./.y.Y h 6 $ r y y l d j d l j g g d j j d j r j j j l d g j A F ",
"V.j j j r j r j d d j - d d d j d d d d d $ 6 $ r q  .u.e.K ^ ~.U.n P r.u.6.0 6 $ y - d d d d j j d d - d d - y r d d d g j l D ",
"S.l g l d l j g j d d y j d d g j g j d d y 7 5.6.8 + # 5 5 v !.J.p e # # # h i.r.6 6 y y l j g j d j d d j 7 j d d d d j l z D ",
"C.g j g d g d j d d j d j j d l d j d $ 6 X.4 @ @ . . . o 5 x P.A.p # # . o o @ $ t.t.5 $ y d j j d j j d j d j d d j d j d b F ",
"C.i j j 7 j d d d d d d d d d g j d $ 9 | O # . . . . . . o x !.I.t # # . . + . # # j j.f t y y d d d 7 d y - j d d d r d j l D ",
"Z.M j g j l g g j j l d y j j g y d w , @ . . . . . . . 7 7 x P.J.t # L W . + + . . # # r.U y y y j j d j j d j d d d d j l b D ",
"V.l j j d j d d d d y - d y r y 6 2 * . . . . . . O . . . 5 x K.C.t # + # + d J # . . o # P e.$ y d d d d d d d $ d d d d d g b ",
"D.l l l g l d d j j l j g j y d 2 * @ . . . * @ . . . . . o s m.B.e # + . . . 5 # . . + o @ T H 6 y j j j g d j j j l g j j b D ",
"Z.l l l d i d j j j j d j y $ 4   . . . . . X . . . . . . 5 v L.B.t # + . . . . . 6 g # # # # R 8 @ y j g l d g l d g y g g b D ",
"S.l l l j l y l j d g j j e 4 & . . . X O . . . . . . . o K n._.^.p k e + . . . . o $ $ + + + # y.$ $ y j g d j j j g j l g b D ",
"Z.l l j j j d j j d d d d = : . . . . & . . . . . o J f # 5 b _.A.u 5 5 t f o . . . + # L # + # y i.@ e d j d j j d d d j d s A ",
"C.l y j d j d d d d d 7 y _ . . . . . . . . . . Y # # . # y n.(.I.n 5 o # # # @ . . + . t z # # # W f $ e j - j d $ d d d d g b ",
"D.l z j j l d j j d j d H % . . . & . . . . . . o o X O @ 5 E (.A.t 5 6 $ X # f $ o + . + # # . + e i.e y j j j j d j d i g b D ",
"V.l j d 7 j - d d r r - } . . . X . . . . . 1 . o @ o O = 4 s.3XN.5., 7 # o @ o # 6 + . . # n + o + L 9 $ d 7 d d 7 d d l g l b ",
"S.l l l j l d j j d e <   . . . . . . . X . + . . . , [ ] ] q.3Xc.,...X.: O @ O + 7 $ . . + # y + . 5 5.y y y j d d j d l j b D ",
"V.j j j y d d j d e $ } . . . 8 . . . . H . . @ @ 4 ` ( ] &.@X9X1X<.&.$.' } * # @ # # o + . # # . # # T y 6 7 j d d j d j d l B ",
"S.l l g d j d d j e = : . . . = . . . . o o O o 4 ' ' #.%.:.@XwX7X4.>.>.*.&.` O y # t U # + . o # + # g T y 6 l d d j d d j M D ",
"Z.l j j d j d j y $ : X . . . . . . . * . @ o 2 ] #.%.%.o.-.#XeX,X2.1.>.%.&.&.{ o $ # $ # # o # / o o 5 i.y 6 y d d j d j j M A ",
"Z.j j j 7 j d d d @ [ . . . . . . . X . . X   ) ( #.o.o.+.{.$XeX,X.X}.-.O.>.O.' , $ # # L # . # g # . # e.5 $ j d d j d d d z A ",
"D.s l j j j y j d * : . . . % . . . . . O . : _ #.#.o.+.=.}.#XeX,X}.[.@.o.O.O.( ) o $ # W # # + + . # # W h 6 j d d j j l d A D ",
"C.l j j d j r j 6 = > . . . o . . . % . X O ) ( #.O.+.@.=..X4XpX0X4.2.;.+.O.O.' _   $ # # # # # # $ + # z J $ y r d d d d d l M ",
"D.l l g j l d j y 2 X . . . . . . X . . . , ` ' #.o.@.@.}.OXeXhXiXoX2.;.[.-.%.$.' , $ # t y + + # d + # s Q y j d j d d l j D D ",
"S.s j j d j j d r | $ o . O . . . . o @ o 2 &.&.%.@.{.}..X-XdXdXfX:X+X2.}.;.-.>.&.{ 5 5 u l # # # 5 # # s ! d j d d d d d j D A ",
"E.D A l l l l l z e.7 5 5 5 u 5 e e s 7 u r.0.q.w.|. XXX;X5XkXkXjXrX,X#X X|.4.4.0.8.x g c S t u a ~ u u Z M.y s y j s l l s F F ",
"W.C.V.F D F B F A f.E c V c c c c D B Z D M.=X=X=X&X$X&X;X5XdXpXfXqX:X-X#X#X%X*X*Xd.D Z Z n.V V V H.c C b./.D F F D v.A v.v.C.S.",
"F.F D B l A l M l Y 8 x u s 5 u t b 7 s i w 0.9.9.4.{.|.OX;XdXgXpX5X%X#X$X#X@Xw.q.t.B c c c c c x v a c D g.A A l l b l D b v.C.",
"S.A l l l l l j g w 8 o o 6 # # o o o 5 O 7 ] &.o.-.=.{.{.OXaXdXrX%X.X}.}.2.1.<.&.0 g 5 l u # # t 5 5 t n E s i j j l j l j D F ",
"Z.M l l j j j j i 8.5 5 o d # # 5 6 5 6 $ 2 &.*.:.-.{.{.|.$X6XaXqX%X.X}.[.2.-.<.&.8 7 5 l 5 t # 5 t # 5 n E j j j j g d l l A F ",
"C.l l l d j j j y 6.O # o $ o o o o @ o $ = ] $.*.*.=.{.|.OX5XaX,XoX.X}.;.2.3.3.8.5 y # z # # # i t # # / g e d d d d d j y l D ",
"Z.M i g j l j j y q - . . o o o o o q # @ # { ' &.*.=.{.|. X4XyX,XXX}.;.-.%.>.,.< 6 # e 5 # # # ~ t # # r.y y j d d g g l j M F ",
"V.l j j e j r j 6 - > o . . - . o o $ . O o = _ ] &.%.-.|.OX<XyX%X.X1.>.>.&.&...O 6 # z $ o # # t # # 5 t.y e d j r j r j d l B ",
"Z.l l l d M j j y @ 4 o . . $ . . . . O . $ o 2 ` ( #.%.9.@X;XeX>Xw.>.>.' &...- # @ # $ # o # 5 # # # s I t y d d j j d j j b D ",
"C.l j j d d d d d $ X.. . . . . o . . H . @ X O 4 ' &.9.=X9X2XsX0X>Xk.0.,...1 # O # d # o # # S e # # R y y y d d j j r j d l D ",
"Z.l j l d j j d j $ 3 * . . . @ o . o o # # O O # 4 ' 0.1X3X3XsXtX7X7X8X8.9 5 f @ 5 f # . + # S # + # t.e y d j d d j d j j b D ",
"Z.j l j d j j j j y $ { . . . 8 . . . # L $ # $ 5 o 0 8.z.1X3XsX7Xc.l.h.i 5 J # 5 # # # # # # # # @ n G $ y 7 j d d j d j d l F ",
"V.j d d r j d d d $ $  .O . . . o o . o . # $ + o $ 6 t 7 Y ).uX/ z t 5 i 6 # t Q # # # # i g # # t d.y 6 j r d d r f r d d l A ",
"S.M j l d l j j j d y % 2 @ . . . @ o . . + f $ # @ # f 7 v M.`.C i y 6 $ # i # # o o # # S # # # n G $ y l j j j j j d g g A F ",
"V.j j j d j d d d d d $ } X . . . 8 o . . . o . $ 6 # # 6 v m.].B t t # # $ l # + # + # # # # # t d.$ e r d - d r d d d j g l D ",
"Z.z l l d l d k j j g y 6 } X . . # # . . + o . # d # d t v K._.C a e z d . # + # # 5 ~ # + # # a.7 $ d d g d d d d d d j j b A ",
"C.l d g d d d j j d y j 6 w 1 # . o . y # . . . o # # y g D '.`.n.~ e # # # # # + # b t # # 5 n R 5 y d d j d j d d d d j d b b ",
"Z.l l l d g d j j j j d j $ 5.- . . . @ P # # . . . . o 5 c J.].m t e # # # # # u 5 # # # # l p.y y j j j g j i d d g d d g b b ",
"S.b l b l A g g l l l g l y @ 7.- o o . . o y # # # o # 5 a J.T.a t # e # # # j k # # # # s p.y y g l l l l g l l g l l l l D v.",
"C.l j j d d d j d d g d 7 d $ $ 7.O # . o o # G @ o # # 5 a G.T.a e + # t s # # # # o # l i.y y i j j d d d d d d d j y d d b b ",
"D.M l l d l d j d d d d j j d $ @ X.; o # . . o # # K 6 5 b K.T.m l t # j e # # # o 5 L y.5 e j l l j j l l d l d d j d j y b Z ",
"V.l j j d d d j d d d d d d 7 y $ $ e.5.o # o # . o # 5 5 Z _.R.m t # # o # # e 5 t i.U 6 y y j j d j j d l d y d d j 7 d d l b ",
"Z.l g j d j d j g d d d j j d j y y $ 8 k.8 # o # # # # # c P.R.a t # + # # # t R l.i y $ d y j j d j j d g d j f j g j l j b D ",
"Z.l j j j j 7 d d d d d d d r j d y $ $ t q k.K # # # # t V P.R.a t # # # i f.l.d y 6 y e d d j d 7 d j d d d d d d j d l g l A ",
"C.l j j 7 j d j d 7 j - j d d j j d d 7 6 $ $ 9 6.6.U h v Z Q.U.m B N r.u.I g y d $ r d d d d d d d d d d j d j d d l d d j b A ",
"Z.l l l j j d j d d j d d d d l j j j d j e y r # $ f ! d.N.3XtXx.f.P d 6 $ d j d d d j d j y l j d j d d d d j d d j d j j A D ",
"C.j j y d y r d d d d d d d r j r d d r d r r 6 y 6 $ y g g m.H.s j y d y r d - d d d d - d d j d - d 7 d $ - d d d d d j j l M ",
"D.l l g j j d j d d j d d d d g j g j j g j j j d y d d j j l F l M j j g d l j j d d j d d j l j d j d j j d j d d j j j l A D ",
"C.j j d d d e d d - d d d d d d 7 d d - d d d 7 d d d j d d d b l s d d d y j - d d 7 j 7 d 7 d y r 7 d 7 y 7 d d d d d j d z M ",
"D.i l g j j d d j d j j d d d j d j j d y d d d d j d g j j l D l l l l j j j d d d j g j j j j j d j d d j d d d d k d j j A A ",
"Z.l g j d j d j d d d - d d d j d d d d j d d d d j d d d d l D l l j g j r j d j d d g 7 j y j y d d y d d d d d d d d j j A A ",
"D.M l j j g y j g g g d d j j g d j j 7 j d j j d j d d y g l F A l j g j d j d g j d g d j j l g d d d j d d d d d g d y j A A ",
"F.A l l j l j l j y g d g g j l l j j d j d g g d j d j j g l v.A l j l l j i j i j d g d l j l l j j j j l d j d j i j l l F F ",
"Y.D D A l b l A l l b l v l l b s b l g l l v l l b l b b b D v.F D b b l l l l b b g b g b l b b g l l l b g b l l b g A v v.F ",
"W.Z.Z.F F F A F F F F D F D F v.D F F D v.D F F D F D F v.v.C.F.C.Z.F F F D V.D F F D v.A v.F F F D F F D F Z F F D v.F v.b.S.D."
};
