/* XPM */
static char *_76859a3116944c6e9f629e9e61a2a28MtMxILVHpKnhrJne[] = {
/* columns rows colors chars-per-pixel */
"64 64 243 2 ",
"   c #112525",
".  c #112827",
"X  c #122628",
"o  c #112B2A",
"O  c #11312E",
"+  c #1D302F",
"@  c #112E30",
"#  c #113432",
"$  c #113936",
"%  c #113D3A",
"&  c #273435",
"*  c #283536",
"=  c #273738",
"-  c #273A3A",
";  c #283A3A",
":  c #11413D",
">  c #303E59",
",  c #1D3A69",
"<  c #1D3D73",
"1  c #253C6C",
"2  c #223D73",
"3  c #243F79",
"4  c #114543",
"5  c #114A46",
"6  c #114D4A",
"7  c #12524D",
"8  c #125753",
"9  c #2E4351",
"0  c #2E486B",
"q  c #36496C",
"w  c #294479",
"e  c #364977",
"r  c #3A527A",
"t  c #1D6F69",
"y  c #4D4E7B",
"u  c #46557B",
"i  c #715379",
"p  c #737274",
"a  c #8F5A7A",
"s  c #AE5E7B",
"d  c #9B707F",
"f  c #AC6577",
"g  c #C86378",
"h  c #2E4B83",
"j  c #294885",
"k  c #344C82",
"l  c #3B5383",
"z  c #38558A",
"x  c #3A5A95",
"c  c #3D619A",
"v  c #3960A5",
"b  c #435483",
"n  c #4D528A",
"m  c #465A88",
"M  c #4B5C8B",
"N  c #565987",
"B  c #465D95",
"V  c #725D89",
"C  c #53638D",
"Z  c #486298",
"A  c #4B639B",
"S  c #566698",
"D  c #666998",
"F  c #716E95",
"G  c #4A67A8",
"H  c #546BA4",
"J  c #5A6CA6",
"K  c #536DAC",
"L  c #5A71A9",
"P  c #5B73AC",
"I  c #4C6CB7",
"U  c #546DB3",
"Y  c #516EBA",
"T  c #4E71B4",
"R  c #5571B4",
"E  c #5B73B4",
"W  c #5E7BB4",
"Q  c #5573BC",
"!  c #5B75BB",
"~  c #5D7ABD",
"^  c #696FA5",
"/  c #6776A8",
"(  c #6274AC",
")  c #757AA8",
"_  c #6276B3",
"`  c #6675B7",
"'  c #647AB4",
"]  c #6C7BB5",
"[  c #637BBB",
"{  c #6A7DBB",
"}  c #727DB7",
"|  c #4E72C2",
" . c #5474C4",
".. c #5B76C2",
"X. c #5579C4",
"o. c #5C7BC4",
"O. c #5576CB",
"+. c #557ACC",
"@. c #5C7CCB",
"#. c #567BD2",
"$. c #5C7ED3",
"%. c #637CC3",
"&. c #6B7DC2",
"*. c #6F7DC7",
"=. c #627ECB",
"-. c #697FCF",
";. c #90718F",
":. c #AF728C",
">. c #B77389",
",. c #8F7BA7",
"<. c #A47FA4",
"1. c #CC778F",
"2. c #5782BA",
"3. c #6A85B7",
"4. c #6C81BC",
"5. c #7383BC",
"6. c #7B85B9",
"7. c #5D83C9",
"8. c #5E83D4",
"9. c #5D82D9",
"0. c #6582C4",
"q. c #6B83C4",
"w. c #6482CC",
"e. c #6B84CC",
"r. c #6B8AC8",
"t. c #7284C4",
"y. c #7787C6",
"u. c #7B8AC5",
"i. c #7285CB",
"p. c #748ACC",
"a. c #7B8CCD",
"s. c #6192CA",
"d. c #7A92CB",
"f. c #6384D4",
"g. c #6A85D3",
"h. c #6B8AD4",
"j. c #6386DB",
"k. c #6588D9",
"l. c #6C8BDC",
"z. c #728BD3",
"x. c #7389D5",
"c. c #7A8CD2",
"v. c #728EDA",
"b. c #7D92D4",
"n. c #7A97D6",
"m. c #7492DD",
"M. c #7C93DC",
"N. c #698CE1",
"B. c #7090E3",
"V. c #7895E4",
"C. c #99848B",
"Z. c #998B8D",
"A. c #998D91",
"S. c #9A9294",
"D. c #B1818E",
"F. c #B8899D",
"G. c #B7949D",
"H. c #9985AE",
"J. c #8788BA",
"K. c #908FB6",
"L. c #B899A5",
"P. c #AC90B4",
"I. c #AA94BA",
"U. c #B9A4A7",
"Y. c #B9A5A9",
"T. c #B9A9AC",
"R. c #BAADB1",
"E. c #CE8798",
"W. c #E68796",
"Q. c #EE8B90",
"!. c #C896AA",
"~. c #D896A8",
"^. c #CC94B0",
"/. c #EE97AD",
"(. c #E798AA",
"). c #F69BAB",
"_. c #D8A6B4",
"`. c #D7A7B9",
"'. c #F3A3AB",
"]. c #FBA4AC",
"[. c #EAAAB6",
"{. c #EAA9BA",
"}. c #F5A7B6",
"|. c #FCABB3",
" X c #FCADBB",
".X c #FCB4BA",
"XX c #FDB3BC",
"oX c #858CC6",
"OX c #8893C8",
"+X c #8B94CD",
"@X c #9597C8",
"#X c #868FD0",
"$X c #8393D4",
"%X c #8998D7",
"&X c #959CD5",
"*X c #A696C4",
"=X c #AC95CE",
"-X c #9BA5CB",
";X c #9AA6DB",
":X c #B6A7C8",
">X c #A7A7D8",
",X c #B0B0D2",
"<X c #869BE5",
"1X c #8F9EF2",
"2X c #9BA4E6",
"3X c #98A4F2",
"4X c #B0ABF1",
"5X c #C999C9",
"6X c #D49DC6",
"7X c #D7A9C8",
"8X c #D1B1CE",
"9X c #D8A9D6",
"0X c #C7B9D7",
"qX c #E4ACC3",
"wX c #F7AEC1",
"eX c #E8B5C8",
"rX c #FCB4C3",
"tX c #FEBBC5",
"yX c #F4B8C9",
"uX c #FDBCCB",
"iX c #E7BBD5",
"pX c #F5BDD4",
"aX c #FDBDD2",
"sX c #D7B0E5",
"dX c #E1B6EF",
"fX c #EEC2CB",
"gX c #FEC2C6",
"hX c #F4C2CA",
"jX c #FEC3CC",
"kX c #FECACE",
"lX c #EDC2D8",
"zX c #FEC3D3",
"xX c #FECBD4",
"cX c #F5C4D9",
"vX c #FDCBDA",
"bX c #FED2D6",
"nX c #FED5DA",
"mX c #FFDADE",
"MX c #DBC7E7",
"NX c #E7C7E4",
"BX c #F4C9E1",
"VX c #FED7E2",
"CX c #FFE2E5",
/* pixels */
"4 @ X X   .               X   X   .                   X     o $ @ o     o   .               X X .   X X                 o   O $ ",
"6 # o o   o   o o   o     o   o . .     .         .   o X o o $ $ o o o o   o o o o   .     . . . X o                   o   # % ",
"4 o X X         X         X   X                       X     o # o o X       X                 .                         .   o $ ",
"5 o   o   .     o   X         o         .             .       O o o X   X   X   .     .         .                       .   o # ",
"5 o X X X X         .   X X   + o o               o   .   o o $ O o . . o             .     X o o   o     o         .   o   O $ ",
"4 o X X   X                                           .       O o o                                                         o # ",
"6 @ X = L.G.G.G.G.G.L.U.Y.Y.Y.U.U.Y.Y.T.U.U.T.Y.Y.Y.R.R.T.T.G.U.Y.Y.R.R.R.U.U.Y.T.T.T.T.Y.U.T.U.U.U.U.L.G.G.F.G.G.F.U.U.p . # % ",
"4 X X & wXJ.) 6.3.3.:XrXyX.XgXyXgXkXeXhXgXeXhXgXhXyXnXmXnXnXgXtXgXxXmXbXmXgX7XgX.XeXfXgX7XeXuX`.7X.XY.7XE.G x v v v n.xXA.  o # ",
"6 o o = (.b e b q e K.>.H *X~.B OX(.z OX(.x K.}.S 4.xXbXnXbXgXgXuXxXmXnXbX1.x ,X1.H ,X(.D OX).N oX/.n u.1.b b z z k d.bXA.. o % ",
"5 o X = (.e 2 m y n K./.}.wXrX}.wX.X/.yX X}.rX.X X XgXeXgX'.G.}.F.`.tXeXgX|.}.XXXXtXuXtXuXuXuXrXtXtXwXwX1.,.,.V l 3 s.hXZ.. O % ",
"5 o X & ~.e 2 I./.qXrXuXzXaXzXzXjXzXjXzXjXuXtXrX'._..X'.uX.X].|.]..X.X'.tXW.7XgXjXxXkXxXvXxXvXkXxXvXvXvXaXaXwX).V k r.cXZ.  o $ ",
"6 @ X = (.b e *X7XiXlXpXvXzXzXzXzXzXaXpXyXrXL.yXrXtXuXuXuXyX[.7X7XeXyXtXzXtXuX|.F.iXyXpXcXpXvXzXcXlXpXBXcXBXeX}.y w 7.xXZ.  O % ",
"4 o X & (.e < *XqXpX*XoX&XoX&X@XoX@X6.6.^ J.K.oX@XJ.oXOX5.OX) 3.6.5.@X6.%XOXu.&Xu.oXF i.@XoX%X+X$X&X#X%X&XNXaX}.V e r.xXZ.  . # ",
"7 o o & rXE.>.iXiXiX&X#X;X#X%X+Xa.+Xq.+XOXc.&Xu.%Xu.p.J.5.OX5.5.6.5.+Xd.d.+XM.2X%X<X%X$X+Xx.1X%X<X2X%X3X2XMXBXaX).'.yXbXS.X o $ ",
"5 o o = tX:.) rXaXpXoX=.$X=.l.&.o.q...j.w.@.z.G q._ %.] A ! J Z S T p.R r.q.' h.f.B.x.$.a.=.B.k.N.<Xk.V.$XMXvXuXW.v 0XnXA.o # $ ",
"7 @ o ; uXa B uXaXpX*Xc.<Xi.c./ ' $Xi.M.c.[ d.5.y.L e.6./ J.4.4.6.3.OXF 6.*X+X>XJ.<X%X&X>X#XoX#X2X>X&X2X2XNXvXaX).S 0XmXS.  O $ ",
"6 o X & jX).(.uXzXpX@X-.$X%.o.4.7.v.$.f.~ ! { [ 0.%.8.e.! e.E Q ~ X.-.` 2XsXsXdX=Xv.4XdX5Xf.B.sXdX9X-.V.+XMXvXxXtX}.gXmXS.  o $ ",
"5 o X & tXF.J.uXaXaXoX*.#XS _ { %.h.Q q._ M ] ! g.%.o.q.S W P H J ` *.` 2X6X*.#X*.c.4XsX5Xg.1X4XsX6XoX%X;XMXVXvX).D 8XmXA.  o O ",
"7 @ X ; gX;.S uXzXcX*Xt.#X&.p.i.w.y.[ [ } [ y.[ z._ w.z.@.h.%.X.e.@.M.*.>X^.` #X*.$X) 3X5Xh.B.#X4X{.) $X&XMXVXvX).n 0XVXA.. O $ ",
"4 X X = gX).~.tXaXpX,._ _ Q $.=.G [ b J [ Q _ Z w...#.f. .8.U Q ~  .-...2X5X,.oX` l.i.4X5X{ e.i.3X6X^ x.oXdXVXxXrX|.zXnXA.  o O ",
"7 o o = kX~.H.uXzXpXI.*.%Xp.z.t.{ y./ y.{ %.a.e.v.l.l.v.j.l.0.7.e.f.M.p.4X9X9X9X<.B.%X4X^.` <X#X3X9X+X+X&XMXVXvX|.D ,XmXA.. # # ",
"4 o X * jXi z uXzXwXF P z.o.@._ B [ E o.Z Q e.O.N.@.#.$.O.@.I G ! | j.o.1X5X&.*.-.-.*.3X6X` g.} 3X9X*.t.y.sXvXzX).n ,XbXS.  o # ",
"7 o o = gX/.(.tXaXwXH.] $X%.e.' S t.W w.q.=.v.$.N.g.f.h.o.w.J M _ ~ v.t.2X5Xy.<X#XV.#X2X9Xu.c.y.3X9X#X<X@X0XnXxXXX|.hXmXS.X # # ",
"6 o o = kXF.,.tXrXE.J.0.M.! w.&.! q.A =.e.$.N.$.N.=.$.j. .X.B j G T f...1X5X*.$X*.B.#X3X5X*.g.D <X9X*.v.J.OXvXzX].n -XnXZ.X @ # ",
"6 X X & gXa k rX.X'.H.! p.R J W ! 0.L 7.=.#.l.O.j.%.O.@.Y K b 3 z G 7.W <X9XsXsX=X-.c.3X5X..g.} <X6X&.M.OX0XxXzX).N -XmXZ.  O O ",
"7 @ o & kX].(.tX}.`.I.p.$Xq.L y.&.q.w.l.v.j.V.-.N.g.=.e.! P u w c K 0.%.g.#X-.M.M.V.$XB.#X*.B.#X4.#Xy.<X&X8X8XxXtX|.tXmXS.. # # ",
"5 X o & gXF.F |.W.}.,.Q 0.E ~ ' G o.Q 9.$.O.j. .$.!  .U B B > < 0 z G T  .%. .l.@.$.g.+.-.O.$.&.S o.( k.y.0XyXzX].n @XbXA.  o # ",
"8 @ o - hX:.C |.'.rXI.5.J.P e.t.' c.e.l.x.j.m.w.g.%.Q [ C u b j u r H W @.x.-.B.x.B.M.N.1X-.g.M.h.$Xa.M.&X0XtXcX X;.,XnXA.. $ $ ",
"6 o o * kX.X[.|.:.XXH.J } n ! _ G e.O.9.@.O.$.Y X.Y G K u e b 2 z 9 c Z I ! | 9.O.$.w.#.j.+.9.7.+.h.%.w.y.,X|.eXkXgXbXmXA.. # # ",
"t $ O : nXxXtXtX XrXH.J 5.D ' ( E e.X.8.=.O.f.B U H Z M 9 r r w z q r Z B E R R o.8.g.$.N.f.k.f.k.5.7.z.+X0XjXaXbXbXmXCXS.o : % ",
"t 5 5 9 nXnXgX.X{.rXP./ 6.' 0.[ ! h.=.j.w.O.f.U R M b u q q 0 w 0 0 r r l Z I X.Q +.7.#.j.@.9.~ 7.4.! r.y.,X XL.vXbXmXmXS.: 6 7 ",
"8 : $ - gXxXXX|.}.}.,.B / G R H I @.Y O.Q G U A Z m q u 9 e q 1 z 0 0 q q m x K H I Q Y 7.Q 7.~ | 0.E ~ 5.-XyX'.zXkXkXbXZ.O : 5 ",
"7 $ o & kXkXXXrX}._.H./ 3.' 0.( ~ h...=.` A A z x l r z w h h j z w z j h c h c z v ! Q g.[ 8.4.X.3.' r.u.-X{.!.fXkXjXxXC.o $ : ",
"5 # o *  XtX|.W.!.!.,.Z ' Z T R G  .G I G h j 2 w w < w 1 w 2 < 3 , w 0 < h < j w j G G X.G | S I L Z T 3.K._.:.`..XtXgXd o O % ",
"5 o o * kXkXXXXX'.[.H.( 3.( ~ P Q g.! @.%.U ( A H A B m r r 0 j r r z r Z H G P J L { @.h.%.8.r.2.r.( r.+X-XyX XkXbXbXVXZ.  o $ ",
"6 o o - vXbXgX.X[. XH.S ] S ~ P Q g. .$.@.Q ..I R K Z A q l 0 w h w z c x T G ~ R  .=. .j...#.0...f.~ 7.e.-X XL.xXbXbXVXZ.o O $ ",
"4 X X = bXbXgX.X~. XH.P 4.H ! ' T f. .@.@.| $.Y | Y I K b r r < r q x G T Q T 7...#.g.O.j.=.o.=.@.[ 7.k.d.>XtXeXxXbXnXVXA.  O O ",
"6 @ o ; bXhXXXXX}.XXI.} u.] q.t.K p.w.k.x.$.B.=.f.w.Q E Z B u j z r G K Q f.@.j.w.f.h.f.l.e.f.z.8.3.0.f.%X>XuXuXhXtXfXnXA.  O $ ",
"5 o X ; gX:.m  Xf }.H.` 4.N K ` B %.Q +.@.| f. .+.! I R b B q 2 w r Z G I o.| @...#.$...8.%. .%.Q f.%.7.y.-X'.eXXXi 2.bXZ.  O $ ",
"6 X X ; kX>.n .X]. XP.t.u./ ( 5.[ y.w.l.v.f.v.g.l.e.%.e.! P M k x Z ~ [ 8.h.f.B.x.N.$Xh.N.} f.y.] x.6.m.-X>XcXjXXX1.K.bXS.  o $ ",
"6 X X = kX.X]..X X>.H.[ p.! ~ %.Q E ! @.@.O.k.O.$.%.| ..I H M 3 z r R ' T w.Q 9.w.#.g.X.f.~ O.' m 7.[ f.u.K.:XuXtX].|.bXZ.  O % ",
"4 X X * gX>.n tXXX1.H.4.z.K o.E Q w.U @.f.+.l.=.f.=...f.Q Q N 3 x Z ~ o...h.@.h.w.j.l.@.w.w.f.y.E r.r.l.+XK.iXkXtXa 2.bXZ.  o # ",
"7 @ X ; gX>.M uXuXrXP.t.$Xq.&.^ E x.[ ' e.=.v.=.j.e.@.g...! L w c K 7.o.@.h.@.l.w.j.l.o.8.w.7.0.%.h.p.k.J.J.pXzXuX>.] xXZ.. O : ",
"4 X X = gX|.).tXuXrXV _ z...G ' U w.Y K !  .f. .$.@. .f. .X.J l G G X.Q X.w. .8.=.#.q. .f...Z X.R 8.0.7.) d.pXxXuX X|.bXZ.. o # ",
"7 o o ; xX1.D tXaXyXP.} +Xi.z.y.0.4.&.p.i.%.c.w.v.v.f.m.w.g.{ P 3.E f.e.f.z.w.m.x.e.e.w.v.e.w.a.p.V.$Xy.+X>XcXvXgXf T bXA.. O # ",
"5 o . * gXd k tXaXuXP.N { ` o.W G E Z  .%.U K Y +.%. .@.Q O.E G Q G X. .| 0.Q o.U  .g.Q R o.X.%.X.j.%.H r.+XcXxXtXf T xXZ.  o # ",
"5 o X ; hX.X'.tXzXaXI.] u.{ w.i.o.e.o.%.q.~ e.%.~ f...e.W 7.{ K W R o.[ o.r.o.%.&.w.p.( ~ q.f.V.h.V.p.v.%X;XBXxXkX X|.kXZ.. O # ",
"7 # O - kX1.N rXzXaXI.&.y.S w.i.@.k.%.! C K q.o.o.[ H C S ! / u C S C C A W ! o.` P 0.! w.%.$.v.8.0.' g.b.&XBXzXtXs G kXZ.o # : ",
"4 o X * tX;.e tXaXaX*X` -.` O.g.O.k.Q G ' U 0.U Q { S S B L C r C z Z C T P R W S m ~ E @.w.9.l.o.N.p.9.M.%XcXvXuX>.G cXZ.  O O ",
"8 o o = xX X/.tXzXaX:Xa.<Xa.e.q.g.V.e.e.t.[ a.S S 3.' ) / 4.] J D L / / 3.D N W F S [ e.B.z.h.b.~ V.b.V.;X;XBXnXjX|.].hXZ.. O $ ",
"4 o X = tX>.N tXaXuX*X%.v.=.$.e.U q.! @.w.Q o.H K ( u u A P C u C u u S K S b C u m 2...f.0.K w.@.N.e.j.c.$XBXaXuXs Z fXC.  O O ",
"6 o o = uX:.k rXaXpX=Xy.<Xv.m.M.%.{ &.i.c.e.b.q.0.5.P / L 3.D C D 3.S ^ 2.6.S ' / 3.p.y.b.oX0.%Xb.V.<XV.2X2XNXvXtX1.H lXZ.. O O ",
"6 o X = tX).(.].rXuX*Xq.$Xi.g.#X%.y.^ S u.' p.&.e.t.W ] _ J / C 3.C L 3.P y._ 0.3.W y.^ K 4.%.b.q.N.#Xj.$X%XNXuX}.].'.gXC.. O O ",
"6 X X & XXV y I.wXiX*X4.c.i.e.a.%.a.] ` 6.S 6.] 4.J.] u.] { 6.H 3./ 3.J.] oX] 5.J./ 5.} y.oXy.%Xy.b.#Xx.&X&XNXpX/.V r OXC.  O O ",
"6 o X * |.N 1 K.7X9X9X9XiXiXiXiXiXiXiXeXqXqXqXE.G.{.{.qX{.}.[.~._._.[.}.}.{.}.F.5XeXiXyXpXpXpXcXpXpXlXpXlXpXiXyX/.y w s.C.. O $ ",
"5 X X & ).e 1 ) {.qXiXyXaXaXaXaXaXaXyXaXzXrXuXrX}.|.f _.).~.|.Q.!.].E.}.W.G.XX.XuXuXxXzXzXxXzXzXzXvXvXaXzXrXeX X(.y < 2.d   o O ",
"8 o o & ].y 0 6.!._.qXXXuXaXuXuXuXzXuXrXaXuXzXtXXX.X.XkXgXeX.X'._..XyXgXgXgXtXtXgXgXjXjXzXuXkXkXuXaXjXtXtX}.^.!.F.N r 0.C.. # $ ",
"4 X X & ].q , e 1 2 M /.;.<.}.:.;.|.;.;.}.>.;..X>.;.eXkXkXkXgX].gX.XzXxXxXtXs D eXf F `.1.V I.W.i K.Q.y J.g j 0 2 e 1 7.;.  o O ",
"7 @ o = }.b < h 3 2 S (.S / |.D Z yXV H wXV J {.;.^ 8XmXmXmXkXgXkXgXmXmXbXkX;.( {.D.3.7X~.) :X(.D @X).D K.1.z k j x j s.C.  # $ ",
"6 X o = rX_.!.!.^.^.{.tXuXuXgXtXtXkXgXgXxXgXkXkXgXkXbXmXmXmXbXgXgXkXmXVXmXmXkXkXkXkXkXkXzXkXgXkXgXkXxXgXgXXXeX{.{.qXqXfXZ.. O # ",
"7 @ @ X & & & & & & & & & & & ; & & & & = & = & * * & * & * - 9 ; - = * - & - & * * * * * * * - - & & & & & & & & & & & + . # O ",
"8 # @ X . o   .   .     X   X o . o .   .   . . . o   . . . O : # #   o o   o   .   . .   X o o o   . .   .             . o $ % ",
"8 % # # o O o O o o O o O o o # o O o o O . O o o O o O O O # : % % O O O o # o O O o O o O o O o o O o . O   O O o O O # # : : ",
"t 6 5 % $ : $ % % $ % $ % $ $ 4 $ % % $ % $ % % $ % $ % : : 6 8 6 6 % % % $ % # % % $ : # % % % : $ % $ $ : $ : $ $ : $ : : 7 8 "
};
