/* XPM */
static char *f4e74b4c3fea49de952b99a3ea18e6dbZVu8cFcCTvmZbvv0[] = {
/* columns rows colors chars-per-pixel */
"64 64 204 2 ",
"   c #001314",
".  c #041718",
"X  c #031C1C",
"o  c #0C1D1E",
"O  c #0C201F",
"+  c #0C1F20",
"@  c #101F20",
"#  c #022425",
"$  c #0D2324",
"%  c #002827",
"&  c #0D2927",
"*  c #002728",
"=  c #0C2728",
"-  c #022B2B",
";  c #0C2B2B",
":  c #112425",
">  c #112827",
",  c #112728",
"<  c #112A2A",
"1  c #00302E",
"2  c #11312E",
"3  c #012E31",
"4  c #092F32",
"5  c #112E30",
"6  c #013433",
"7  c #0B3534",
"8  c #013934",
"9  c #01363A",
"0  c #023C3B",
"q  c #0B3B3B",
"w  c #113131",
"e  c #113532",
"r  c #113433",
"t  c #113936",
"y  c #183836",
"u  c #143738",
"i  c #113C3A",
"p  c #01413F",
"a  c #0D413D",
"s  c #11413E",
"d  c #023E41",
"f  c #024343",
"g  c #0A4342",
"h  c #004946",
"j  c #0B4D47",
"k  c #044449",
"l  c #034B4B",
"z  c #0A4C4C",
"x  c #124543",
"c  c #184340",
"v  c #114A46",
"b  c #114D4A",
"n  c #01514E",
"m  c #0E524F",
"M  c #12524D",
"N  c #035354",
"B  c #0C5252",
"V  c #085957",
"C  c #0A5759",
"Z  c #035C5D",
"A  c #0D5B5B",
"S  c #125451",
"D  c #195654",
"F  c #155951",
"G  c #1C5956",
"H  c #145D5A",
"J  c #1C5C5A",
"K  c #244545",
"L  c #284F4E",
"P  c #235552",
"I  c #225E5A",
"U  c #09605E",
"Y  c #17635E",
"T  c #035F63",
"R  c #0B5E61",
"E  c #056263",
"W  c #0C6363",
"Q  c #066669",
"!  c #0B6769",
"~  c #07696C",
"^  c #0D6B6C",
"/  c #126464",
"(  c #1B6362",
")  c #156768",
"_  c #136A69",
"`  c #1B6B6B",
"'  c #15706F",
"]  c #1D716E",
"[  c #147374",
"{  c #1C7474",
"}  c #187778",
"|  c #236564",
" . c #276967",
".. c #2B6867",
"X. c #246B6A",
"o. c #2C6C6B",
"O. c #356460",
"+. c #346A66",
"@. c #386864",
"#. c #326E6C",
"$. c #22736F",
"%. c #2C726E",
"&. c #33726D",
"*. c #3B716C",
"=. c #237472",
"-. c #2B7574",
";. c #237874",
":. c #2C7976",
">. c #247B7B",
",. c #2C7C7B",
"<. c #337573",
"1. c #397674",
"2. c #357977",
"3. c #337E7B",
"4. c #3B7D7B",
"5. c #46736A",
"6. c #53716D",
"7. c #437672",
"8. c #487B76",
"9. c #4A7B76",
"0. c #447C7A",
"q. c #547D76",
"w. c #547C79",
"e. c #617F78",
"r. c #35817F",
"t. c #3C807D",
"y. c #43817E",
"u. c #4D817D",
"i. c #54827D",
"p. c #5D847E",
"a. c #62847D",
"s. c #6B857D",
"d. c #2C8384",
"f. c #2B8689",
"g. c #2F8A8C",
"h. c #328281",
"j. c #3C8482",
"k. c #3B8885",
"l. c #388889",
"z. c #458480",
"x. c #4C8683",
"c. c #4C8A86",
"v. c #438C8A",
"b. c #498E8A",
"n. c #538682",
"m. c #5A8581",
"M. c #538A84",
"N. c #5D8B86",
"B. c #548D89",
"V. c #5B8D89",
"C. c #49908E",
"Z. c #53908C",
"A. c #5A918D",
"S. c #4A9391",
"D. c #549491",
"F. c #5B9491",
"G. c #5D9B94",
"H. c #638B85",
"J. c #6C8C85",
"K. c #648E8B",
"L. c #698F8A",
"P. c #748B83",
"I. c #708E88",
"U. c #798F89",
"Y. c #62918C",
"T. c #6C948E",
"R. c #74938D",
"E. c #7C948D",
"W. c #659692",
"Q. c #6E9591",
"!. c #649995",
"~. c #6D9893",
"^. c #739591",
"/. c #7B9791",
"(. c #739A94",
"). c #7C9A93",
"_. c #759D99",
"`. c #7C9D99",
"'. c #6AA19F",
"]. c #77A39E",
"[. c #7AA19B",
"{. c #839C95",
"}. c #899B93",
"|. c #829C99",
" X c #84A39C",
".X c #8BA49D",
"XX c #94A49C",
"oX c #9AA69D",
"OX c #95A89F",
"+X c #A3A99F",
"@X c #8EA7A2",
"#X c #87A9A4",
"$X c #9DA7A0",
"%X c #93ABA4",
"&X c #9CABA3",
"*X c #99B0AB",
"=X c #A3ACA4",
"-X c #A3AFA8",
";X c #A9B1A7",
":X c #A4B2AA",
">X c #ACB4AC",
",X c #B2B1A5",
"<X c #A9B7B1",
"1X c #B1BBB4",
/* pixels */
"x 5 , , , : , : : : , : : , : , , , : : , @ > : : , : : > > > e 5 < : : < : < : : : : > : : , , , : , : : : : : , : , : , , 2 y ",
"b w < < < , , , , , < : , < : < > > , : , : , : > , : < > , , i w 5 , > < , < < < , : , > , > , < , < , : : : > , , > : < > e i ",
"v < , , : , , , , : , : : , : , , : : : > : : : : > : , > > y 7 2 < , > : : , : : , : > @ : : > : : : , : : : : : : , : > > < e ",
"v < , , : , @ , , , , : : : : < : : : : > @ : : : > : , : ; #.j - , : < , : < : , : : > : > : , > : : : : : : : : : : : > : < e ",
"v < < 5 @ 5 , , , : < : < , : < < < , : < : : : : > : , : , X.p = 5 < , , : , : > > : , : > , , < : , > > : : : , : , : < : e u ",
"x < @ , @ @ , @ : @ : : : : : < : : : : : @ : : : : : , : : Y 0 + 5 @ @ : : : : : : @ > : > $ $ : @ : o o . o : : : : : : : < w ",
"b 5 < 5 , 5 , < < : , : , : : < , < , : : : : : : , : , : = <.f # ; < < , , < : o $ o : $ $ O + o . X .     . $ : : , , , < w i ",
"x < : : @ , @ @ : : : : : : : , : : : @ : : : : : : @ : : 5 Y.H # : : : : @ : @ X X 8 p f z k m m S z f 0 z 7 # $ o @ : > : < t ",
"b < < < : > , > , : < : : , : < , , , : , : : : : > O : > z {.B.6 , , , , : , o # * =.z.T./.R.{./.#Xn.^.X.K.+.# 6 X . : > > < i ",
"v < > > : > , : , : : : : , : < > : , : , : : : : : : : ; 0.n.m.z = : , , = - 9 0 6 A {.Y.y.{.{.L.F.z./.J.-.V 8 z 0 # : > : 2 y ",
"v < > : : > : : : : : : : : : : : > : : : : : : : : : $ 9 1.-.U ( = : > : + | H.K.g l .X-.H.H.8.H.b.M.H.L.i.+.f i.i.p : > : 2 t ",
"S < < > : > > > , : < : , , : < , , , : : : < : : > : ; Y &.z.R W.6 $ > = = 3.I 0 - 8 k d l j f k l l f k k 8 1 N :.G : < > 2 t ",
"c , , , : : : : : : : : : : : , > > : : : : > : : : @ ; 4.H z.T Y.d $ > : # %.S * # # - - - 1 1 - 1 # % # # # - 0 ] M : : : < 2 ",
"S < < , > < : > , , , , , , : < < , : , , : , , > > $ ; c.n _.W 0.z & > , ; r.G 8 % 8 0 8 8 p p f f 1 % # % 6 1 p -.D > : > 2 u ",
"v 2 < < : < : , : : > : > > , > , , > > < : , , , < $ 0 Y.N #X_ | ( - , , - 3.G - % h ).j d Y.E.E.J.g % # 3 -.5.l :.G > > > 2 y ",
"M 2 < < : < : > , : > , : , > < , < , > , : > > : = $ g #.n #X] B X.- $ & - -.S 3 * l &XS h `.E.u..X5.1 % 8 M.a.l =.M > < > 2 t ",
"b < , , > > : > > : > : : : : > > > , : , : : @ $ = 6 ` #.Z >XD.C B.d 3 + d j.J 8 6 V >XI l %Xs.Z [.s.8 1 0 Y.P.N r.G : , : ; e ",
"v , > , : > : : : @ : @ : : @ , : , : : , : : @ $ g K.).l / >XF.l X._.4.+ w.W.G 0 0 V &XI h  X}.E.oXO.0 0 d n.s.n $.D @ > : 2 2 ",
"S < < , > , : , : : > : > : > < , , , > , : > , $ q { N.l Z %X:.l A C.) * C v.( h.a.E :XJ h .XE.i.&.p z ^.A K.J.n 2.F > < > 2 e ",
"x , , , : : @ : : @ : @ : @ @ , : : @ @ : : @ : $ 7 ) #XT t.-X_.! 0.h.C # d j.( 3..Xz.;XS h  Xq.f 8 8 h &Xu.).e.n :.G > > : < 2 ",
"b 5 < , : > : , : : : : < : : < : > : : , : , : : & f F.r.t.XXY.F.y.R 4 $ 4 -.J l n.E.m.0 0 x.I - - % 8 <.R.a.b f -.D > , > 5 7 ",
"v , , > : : : > : : : : : : : : : : : @ : @ @ : : # n _.f.{ &Xv.F.:.{ = : : j.J 0 p f 0 6 3 0 - - % - % 6 0 0 8 l ,.G @ > > < w ",
"b < , < : , : : : : : : : : : > : > : : > : , : $ & N (.f.W.XX(.].=.d.; , : :.S 8 * 1 - # # # # # # # # # * * - f ] S : > > e u ",
"b < < , : , : : : : > : : : : < , : : : : @ : : $ & n A.d.p.R.i._.` ;.= < = -.G 0 8 9 8 3 3 3 3 - 6 6 - 6 3 6 8 l { D > , , < u ",
"b , = > : : @ : : : : : : : : : : : : : : : : @ : - n `.g.x.{.R.!.{ d.< : @ <.n.y.2.4.0.<.1.0.<.2.z.4.1.0.4.1.0.c.Y.D : > > < 2 ",
"S 5 < , > > : , : : > : : : : > : > : : > : : : $ 6 n n.d.3.a.p.V.^ z.9 , , u o.&. ...#.X...<.X.X.&.o...<.o...#.O.K , : > > w u ",
"v < , > : > : > : : : @ : : : , : : : @ : : : @ + - R -.g.4.a.m.A.T C.d @ @ @ @ : @ @ : @ + @ O $ o $ o $ : @ : : : : : : > < w ",
"F < , > > , : , : : , : , > > , > > : > > : > > : 4 / 4.'.z.R.T.^.} D.d = : 5 , > > > > : > > , > : > : : : : > > : > : > > u t ",
"m ; , > : > : $ : @ : : : : : > : : > : > : : : @ 4 R h.`.0.I.a.L.v.v.f = @ < @ > : @ : : > > , > : : : : > : > : : > @ : , u 2 ",
"/ u 2 < < < , < , < < > < > , 2 < > < , < : 2 < = 4 ) Q.^.L..Xi.~._.!.q ; < 5 , < < > 2 > < , < , , < & < < : & & > < < < ; s i ",
"$.v s s t s e i i i i t s t t s y y i t i u i t u 7 / OX;.N.<XA.C.L.!.0 u w d y i t t i w i i i i u i i t i e i t t s 2 a s b M ",
"Y i t e ; w < 2 < < 2 < 2 < < e 2 2 < < e , 2 < ; 6 _ |.,.H.-XN.A.4.!.f % , 5 < 2 2 , w < 2 2 2 w < w < < 2 < w 2 < 2 2 e t s s ",
"D 2 < 2 , < > , < : < : , , : y , , > > < @ > > : p =.=X X+X+XoX:XXX[.N 6 & < > > , , , > < < < < , < , , < : , : , < , < < y s ",
"v y , < > , : , < : < : , , : < , , : : , : > : 2 @.H.>XoXoX,X+X=XXX.Xp.P u < > : > : , : > , < < , < : : : : , : , , : < , e y ",
"v < , < > , , , , : < : , , : , , > : : > @ : : ; l r.-X{.XX=X{.{.}.&X8.l 6 < > , , : > : , : > : : : : : : : : : : : : > > < u ",
"b < , < , < , , < , < , , : > < , , > > , , , : ; 0 ] H.J.U. X7.Y.&X{.*.p - # $ , , > < : > , < < : < : : : : , : , < , > , 2 u ",
"c , : : : : : : , : , : : > @ > > > : : > @ : + - f ' 9.i.q.T.o.:.}.W.o.f * X + > : : : @ : : > : : : : : : : : : @ : : > : < e ",
"b e < < , < : , , : < : , , > < , , > : , : > $ 0 D. X-.t.n.@XH.h.^.c.|.H.8 + $ , < > , : , , < < : , , : : : , : : < : , > 2 i ",
"x 5 , < : : : : , : : : : , : < : , : @ > @ $ $ 3 v.^./ W M.%X).k./ ! Q.N.6 X $ , : @ , : , : > < : : : : , : : : : : @ , > < t ",
"b < , < , , : , , : , : : > : , : : : : : : $ o 4 2.^.K.! Q.%XT.Q./ l.Q.7.- + = , , : , : > : > : : , : : : : : : : , : , > < t ",
"b , , < : , , , , , : : : , : < , , , : : @ , : = k E Q.^ V..XV.Y./ S.A N # + : < , , , : , , > < : : : > : : : = : , : , : 2 y ",
"x , : : : : : : : @ , @ : : : > > , , @ : : : @ @ = l N.Q c.$X_.M.R k.z 3 X + = : , : , @ : : > , @ $ @ : : @ : @ @ : @ : : < e ",
"S < < < : , , , , : > : , , : < : , , : , : : : $ = k Q.~ B.>X%XW.W D.z - $ , : , , : < : < , , , , , : : > : , , , , : > > e i ",
"d < , , : , : : : : , @ : : : : > : , : , @ : : : $ q N.[ ^.oX^.^.` v.z # + $ : , : @ , @ : : , : : : @ @ : @ : , @ : : : > < e ",
"L 2 , , : , : , , , > : < : : < , < : > > : > : : : q K.^ T.H._ K.( S.x ; $ , : , < : < , > : < , : : : : > : > : : : : < , 2 y ",
"v < , > : : : : , : , : : : : : : > , : , : , , : > j |.~ V.XXD.c.W '.x $ : > : : , , > : , : < < , , @ > > @ : O : : : : , < 2 ",
"v < , < : > : < , : , : : , : < , > > : > : , : : & z n.~ y.@X).,.R l.i , > , > , , , > : > < < < : , : > , : > : : > : > > 2 e ",
"M 2 < y , y , < 2 > < < < < : y < < < < < , 2 , < ; p ].^ (.oXQ./.^ .X9 ; , < < < < , < , < < 2 5 < < , , < > 2 < , 2 > < < y i ",
"v < > > : , : > : : : : : : : : : < : : > : : : : > 8 G.H.>.oXR.4.B.{.; : : : : > : : $ @ , @ , < , : : : , : : : : : @ > : < 2 ",
"M < < < : < : , , : > : : > : > , < < : , : , : : < 4 =..X] &XoXp.XX*.4 , : < : > : : , : : : < < < < , < > : , , : > > > > 2 y ",
"v < , > @ : @ > : : : : : : : > : : : : : : : : : > = N &X>.1X:XK.-XB - : : , : : @ : : : + @ < : : : : : , : > : : : @ : : 2 2 ",
"b < < , > , , , : : : : > : : < : : : : , : , : > $ & l (.d.&X.X<.^.f $ : : , : > : : , @ $ = < , : , : , > : > > : > : > > 2 e ",
"b < , , : > : : > : : : : : : < , > : : : : : : : : : 0 _.} &X(.=.^.9 & : : , : : : @ : : @ : < > : @ : : : : : : : , , > > 2 2 ",
"v , , > : > : : : @ : @ : : : , : : : : : @ : : : : @ 4 F.! *X.X' T.; : : : : : : : @ > @ @ : : : @ : : : : : , : : , : > > < e ",
"M < < , : > : , : : : : , , : < : : : : , : : : : , : ; u.E #X@Xi.i.; , : : , : : : : > @ > > , : : : : : : : : , : : : , , e u ",
"x , , > @ : @ : : @ : @ : : @ , @ : : @ : @ : @ + : @ > 8.T `.u.W 6.$ > : : : : : : @ : : : @ > : @ : : : : @ : : : : : : : < e ",
"B < < , : < : > : > , : > > : , > > : : : > > > : , : , P ( x.A ) L > > , , < > > > : > : > > , > : > : : : @ > : : , , , , y y ",
"v , , > @ : @ : : @ > @ : @ @ : : : @ : : @ : @ : : @ : i 1.Z.H 3.i : : : @ : @ @ : @ : @ : @ : $ @ : @ + : @ : @ : : : , : < < ",
"S < < , , , : , : : : : : : > > > > : : , : : : : , : > & i.M.W 8.< > , , , , : : > > > : : : > > : > : : : : > : : , : , > u e ",
"b < , , : < : > : : : @ : : > , : $ @ : > : : : : , : , $ m E.u.s < > > , @ : : > : : > @ : > > : : : $ : : @ > : : , : > > 5 u ",
"S < , > > > : , : > & : > > : > > > > : > : > > : , : > & 8 M.S 2 < > > , > > : > : : > $ > > < > : : : > > : : O : > : > , e e ",
"H 7 < < > < > $ > : > : , , : < , , > > > > > > : , : > & % Y s 7 w , , , , < : & $ : > : , > < > : , > > > : > > : > : , , t i ",
"Y t t 2 < 2 < 2 < < 2 > 2 2 < y < 2 < < < , 2 < < w < < ; % s s t i 2 2 < < 5 < 2 2 < 2 > 2 < w 2 & < < ; 2 > 2 < 2 2 2 2 t s s ",
"r.b b s i i t s t t s y i y y s t i i t i t i q t i i i t t M F b b i s i t i u s t e s u i i i i u i i t i t i t t s t s s M M "
};
