/* XPM */
static char *_b8fd447602b42fb8bccf040bfe71cefFdNxYOlNybK3MC1f[] = {
/* columns rows colors chars-per-pixel */
"64 64 205 2 ",
"   c #011514",
".  c #031C1D",
"X  c #0C1D1E",
"o  c #101F1F",
"O  c #001E20",
"+  c #0E1F20",
"@  c #101F20",
"#  c #012425",
"$  c #0E2324",
"%  c #012927",
"&  c #0F2927",
"*  c #052628",
"=  c #0C2628",
"-  c #012B2B",
";  c #0D2A2A",
":  c #112424",
">  c #112827",
",  c #112728",
"<  c #112A2A",
"1  c #01312E",
"2  c #0C312F",
"3  c #10312E",
"4  c #012E31",
"5  c #0A2F30",
"6  c #102F30",
"7  c #013334",
"8  c #0C3432",
"9  c #013936",
"0  c #0E3835",
"q  c #003638",
"w  c #013B3A",
"e  c #0B3E3D",
"r  c #113432",
"t  c #113936",
"y  c #113C39",
"u  c #05413E",
"i  c #09403E",
"p  c #11413D",
"a  c #033F41",
"s  c #093D40",
"d  c #024443",
"f  c #0B4442",
"g  c #024947",
"h  c #014648",
"j  c #024B4B",
"k  c #0B4E4D",
"l  c #114543",
"z  c #114A46",
"x  c #114C4A",
"c  c #184C4A",
"v  c #03504E",
"b  c #09514D",
"n  c #11524E",
"m  c #1D514C",
"M  c #014F51",
"N  c #025354",
"B  c #0C5352",
"V  c #0D5856",
"C  c #03565B",
"Z  c #025A5C",
"A  c #0C5C5B",
"S  c #115453",
"D  c #1D5755",
"F  c #125A56",
"G  c #145D5B",
"H  c #1C5D5C",
"J  c #234B48",
"K  c #25514F",
"L  c #2A5654",
"P  c #215A56",
"I  c #375E5C",
"U  c #11635F",
"Y  c #1A605E",
"T  c #2D625C",
"R  c #035D60",
"E  c #0A5E60",
"W  c #046164",
"Q  c #0C6464",
"!  c #0F6967",
"~  c #056769",
"^  c #06696B",
"/  c #0E6D6C",
"(  c #146463",
")  c #1A6564",
"_  c #116A67",
"`  c #1D6864",
"'  c #146B6A",
"]  c #1C6C6C",
"[  c #1E716D",
"{  c #0D6E72",
"}  c #1C6E70",
"|  c #127274",
" . c #1C7270",
".. c #1E7777",
"X. c #1F7D7B",
"o. c #2B6663",
"O. c #256965",
"+. c #2C6965",
"@. c #226B69",
"#. c #2C6C6A",
"$. c #366A67",
"%. c #3A6B66",
"&. c #326E6C",
"*. c #25706F",
"=. c #2A716D",
"-. c #33716E",
";. c #3D706B",
":. c #247675",
">. c #2B7573",
",. c #287976",
"<. c #2C7C7A",
"1. c #347573",
"2. c #3B7673",
"3. c #307A76",
"4. c #3B7975",
"5. c #377779",
"6. c #357D79",
"7. c #3B7C7A",
"8. c #406C69",
"9. c #41706E",
"0. c #4D7770",
"q. c #417872",
"w. c #4C7B75",
"e. c #467D7A",
"r. c #4A7E7B",
"t. c #547C76",
"y. c #537D7A",
"u. c #3A817C",
"i. c #43817D",
"p. c #4B827E",
"a. c #53837E",
"s. c #5C827B",
"d. c #62847E",
"f. c #298487",
"g. c #328482",
"h. c #3C8683",
"j. c #398886",
"k. c #358A89",
"l. c #3B8B89",
"z. c #428582",
"x. c #4C8582",
"c. c #448A87",
"v. c #4C8985",
"b. c #448D8A",
"n. c #4C8C8B",
"m. c #558682",
"M. c #558A86",
"N. c #5B8985",
"B. c #548C89",
"V. c #5C8D89",
"C. c #4E918E",
"Z. c #55938E",
"A. c #5E938E",
"S. c #4C9290",
"D. c #5B9492",
"F. c #5A9B99",
"G. c #658782",
"H. c #638B86",
"J. c #6B8B84",
"K. c #628F8B",
"L. c #688C88",
"P. c #758F88",
"I. c #64938E",
"U. c #6C918C",
"Y. c #73928B",
"T. c #7B948C",
"R. c #649591",
"E. c #6C9693",
"W. c #619B96",
"Q. c #6C9A95",
"!. c #649C98",
"~. c #6A9C99",
"^. c #739792",
"/. c #7B9691",
"(. c #749A94",
"). c #7C9A93",
"_. c #769E9A",
"`. c #7C9E99",
"'. c #73A19B",
"]. c #79A6A2",
"[. c #839B94",
"{. c #8B9C93",
"}. c #829F99",
"|. c #889F98",
" X c #929E95",
".X c #8BA097",
"XX c #85A39E",
"oX c #8DA39C",
"OX c #93A39B",
"+X c #9BA59D",
"@X c #9FA99F",
"#X c #A8AA9F",
"$X c #82A6A1",
"%X c #8AA7A1",
"&X c #84A8A5",
"*X c #8DABA5",
"=X c #91A7A1",
"-X c #9BABA4",
";X c #A2ABA3",
":X c #A5AFAA",
">X c #A4B1A7",
",X c #A5B4AC",
"<X c #B3B3A8",
"1X c #AFB8B1",
"2X c #B3B9B1",
/* pixels */
"z 6 , , : : : : : : : : : : : , > , : : , : : : : > : > : , , r r , : > > : > : : : : : : : : , < : : : : : X $ X X + : , : 6 t ",
"n ; < < , , , , < , , : : < : < > > > : > @ > : : > > > : , , y r 6 > > , , , : , , : : X $ $ $ $ $ + + X .         . $ , = r y ",
"l < , : @ , : : : : : : : : : : : : : @ : @ : : @ : : : : : , 3 6 , > : : : > @ : : X X   . - 1 7 q q 9 9 9 7 7 - 7 # $ $ $ , 3 ",
"x < , < , , , , < , , : , , , < > : : : > , : : > > : > > > , r r , > > , , , , < : $ . # - 1.u.H.Y.a.).L.).p.w.` L.f * - . $ t ",
"l : , , : : @ , : : : : : : : : , : : : > @ : @ : : @ , @ , , r 3 , , @ , : : : : $ + # % 4 1.I.E.x.P.U.i.I.x.K.i.*.d - 9 O O r ",
"x 6 , , , , : , , : , : , : : < > > : : > : > : : : , , : , , r r < , , , , , : : = H o.o.9 >.oX_.Z.[.).z.^._.|.P.1.b g -.n 1 t ",
"l < , , : @ , , , : : : : , : , : : : @ : : : @ @ : : @ : @ , r 3 , , : : : , : : * M.@.H q k -.@.2.O.) ) >.3.] O.2.u g 1.a.0 t ",
"x < , < , , , $ , : , : : : : < : : , : : : : : : : : , : : , r r , , , , : , : $ 5 R.d - - 7 q q 9 9 9 9 9 9 q 7 7 % 1 g v.i t ",
"l < , , : , : , : : : : : : : , > , : : : o : @ : : : : : : > r r , , @ : : , , : ; K.e - # % - % 1 1 1 1 - % % # # # % g p.u y ",
"c > , > @ , : > , @ : : : : : , : , , : , : : : @ : : : : : : 3 r , , , : : , : : 3 I.u 1 - 9 w 9 9 d g u u - # # % 7 q g p.i t ",
"z < > > : : , : , : , : : , , , : : : : , : , @ : : @ : : : > t r , : : > > : : : 4 R.a - - H P.u b )..X/.s.9 % # w N.P v B.i y ",
"z < > : @ , : : : : : @ : : : : : : : : : @ : @ : : : : : : > 3 3 , : : , : : @ : 7 A.a - 4 ) {.k A OXT.U. Xx - - g ).T v a.i r ",
"x < , , : > : : , : : : : : : > , , : : > : : : : : : : : : > 3 r , : : , : > : : e (.d 7 q *.-Xv U #X+.! OXT 1 - k .X%.v A.i t ",
"l < : , : : : : : : : : : : : : : : : : : o : : @ : o : $ $ : 3 6 , : : : : : : $ I Q.d 9 w ` {.b V OXJ.d.{.n 7 7 k /.T v p.i 3 ",
"c < < < : > : > , , < : : : : < < : , : > : < : : > : > : : > t 3 , : , : > : : * ;.%XM =.H ,.;XB F ;X#X|.d.u V O.A OX%.N I.f t ",
"z < , , : < : : : : : : : : : < , : : : , : : : : : : : : $ > 3 3 , : : > : > : : s A.N A.y.<.{.k V |.o.j u 9 @.P.( /.T v p.i 3 ",
"n r < 3 < < < < < < < : > < > < < < < < < , < < > < > < > > < y t 3 < < < , < < < w (.M i.-XOXT.d V OXD 4 - 7 G oXOX{.n v V.f p ",
"l > < : : : : : : : : : : : : > > < : : : : : : : : : : o & & 3 < > > $ , : : : : 7 R.g g 1.&.k 9 w Y w - % - 7 F 2.n w j M.i 2 ",
"n < < < : : : & > : > : > > : < > > > : < : : : : > : : > > > t 3 < , : < : : : : < E.g q q q 4 - - 1 % # # % # - 7 1 1 g B.f t ",
"l < : : : : : : : o : o : @ o : : : : : : : : : : : $ : o : $ 3 < < : @ : : : : : & !.u 1 - - % % # # # # # % # % - - 1 j V.i 3 ",
"S < < : : : : , : : : : : : : < , : : : , : < : : : : : , < < t 2 < : < : : < : : ; V.j w w q q 7 4 4 4 4 q q 4 4 7 7 9 v v.u t ",
"l < , : : : @ : : o : o : : @ , : @ : o : @ : : : : : : : : : < < < : : : : : @ $ $ E.5.e.7.1.4.4.=.1.5.=.5.1.>.1.7.1.2.v.U.i 3 ",
"x < < < : : : , : : : : : , : & : > : : : : : : : : $ , , , < t 3 < : : : : < : : : K @.&.&.o.&.#.+.&.#.+.#.&.+.+.&.$.$.I l 3 r ",
"l , : : : : : : : @ : @ + : : > : : : o : o : @ @ : : : @ : : 6 < , : : : @ : @ : @ @ + X o $ $ $ X X . + + + + @ + : @ : $ < 3 ",
"x < < , : < : , , : : : : > : < : : : : , : : : : : : > : : < t r < : < : : , : : : : : : > : < : : > > : : : : , , , : , , 6 t ",
"l < , $ @ : @ : @ : : : : : o : : : @ @ : o : o : : : : : : : r < , : : : : : : : : : : @ : o $ : o : o : : o : : @ , @ : : < 6 ",
"S ; < < : , : , : : : : : : : < : : : : > : : : : : $ $ $ : < t 6 < < : : , , : : : : : : : : & : : : : : : : : : , , , < , r r ",
"l , , : : , + : : : : @ o : : : : : : : : : : : : $ + # * $ : r < , : : : @ : o o : : : o o o : : o : o : : : : : : : @ : : 6 < ",
"S < & < : , : : : : : : : : : > : : $ $ & o $ $ $ = 7 a d 4 - l 8 ; $ = $ : $ + $ $ : : : * $ : > $ : : : : : : : : , : < , r r ",
"z < < : : $ : : : : : o : : : = : $ $ * = $ $ $ = g v.D.v.h g 2.B w 7 4 w 7 q 7 7 - * * i g x * : : : : $ : : : : : : : : : < r ",
"n 3 < , : < : > : : , : : : : = ; 7 9 u b e e s h R I.U.A.] ' K.>.( ( Q E A E j M Z j a @.| q.= $ $ $ $ : : : : : : : : : < r r ",
"n < < : : > $ : : @ : : : $ ; w d A <.F.(.Q.(.!.~.].}.-.m.U.}.2X:X%X-X_.B.V.E.~.!.].F.j.~._.I.d 1 * & $ o : o : : : : : : , r r ",
"U t 3 < > < , < & & ; 0 c G ) g.Q.[./.@.W W W W Z W Z Z #.w.P.OX/.7.r.`.n.| ^ ^ ^ / { :.( j Y M.5.) B 9 - & $ ; < < ; & < 3 y y ",
"[ z l y 0 7 ; 7 7 x r.y.r.m.m.N.U.L. .l.j.h.'.b.c.C.b.b.(.[.OX;X-XQ.S.E.Y.I.R.V.'.&XD.A.Q j j B F &.I.D.` f 8 8 r 8 0 8 p i z z ",
"Y p e t 3 ; - 9 O.m.( Z W ^ ..S.j.,.B.I.6.N.N.v.c.B.R.u.1.q.P.+XOXs.p.H.M.v.V.v.J.a.,.u.v./ :.' C N N G O.a.) 9 2 1 8 8 t t p n ",
"F t < < < 8 P m.Y.N.R.B.*X,X-X;X2X;XOX-X-XY.XXOX-X+XOX-XoX|.{.<X;X;X1XOXP.J.P.G.OX`.;X+X;X,X>X>X*X$XI.i.2.a.OXi.=.=.#.L < > p p ",
"z < < < : : < c 4.( T ( (.%X(.}.-XOXT.I.).>.p.Y.E.Y.U.).H.0.s.#X@XL.Q.H.J.G.J.y./.N.R.'.XXZ._.!.:.| ' Q U a.R.A g g b i > > 3 t ",
"n 3 < < : < : 5 8.h.Z N G.I.r.T.OX{.Y.).4.K.x.).).'.'.i./ _ I.#X;X).U.).7.3.6.5.U.[.,.i.>.N N N j N ) r.e.O.w % # # % ; > > 3 y ",
"l < : : : : , : = l t.z.u.k.g.k.n.v._ N.m.M.'.N.M.R.U.N.XX=XOX:X).h. .^.`.S.k.f.f.f.f.X.Z j M 9.a.v.z.A w * * $ o : $ $ : : 3 3 ",
"x < > < : < : : , , < r J I +.0.{. XR./ Z Z U Z Z Z Z Z N.T.[.-X;XU.oXR.<.] >.p.x.V.A.I.^.e.V.) g w 7 ; $ $ : : : : > : > : 3 t ",
"f , , , , : : : : : : : : & 7 w k $.T.$XS.F.F.Z.S.F.l.~ M.^.}.-X_.D.W.D.c.c.n.:.} ..| C <.k.e.w % + $ : : : : : : : : : , , < r ",
"x < , , : , : , : : < : : : : * - q 8 e K x S S S Y E.I.^.y.y.P.G h d a h a a 5 ; 5 5 4 ) ! &.* , : : : : : : : : : : : : : < r ",
"z < , , @ : : , < : : @ , , $ = $ $ $ $ = $ * 4 4 N V.I.x.h j H w - * $ = # , : : : : : - - # $ , : : : : : $ : : : : : , , r y ",
"z , , , , , , : : : : : : : : , : : : : $ : $ O O 4 e k f 4 4 m 0 = $ , = : , , : : : : $ # $ $ , + : @ : : : : : : : : : : < r ",
"x < , < + , : , : : < : : : : < : , : : : : : X . # # # - % % p 8 $ $ : : : , : , , : : : , : > , , $ = $ $ o : : : : : , : < y ",
"l < : : : , @ , : : : : : : : : : : : : : : : X X o X . . . $ 3 3 < : : : : : : : : : : : : : : $ : : $ : : o $ @ : : : : : < r ",
"x < , : : , , , : : : : : : : < > , : : : : , : : : : : X # > 3 r < > : < : < : : : : , : , : : , , , : : : o : : : : : > : r y ",
"l < , : @ , : @ : : : : : : : : : : : : : : : @ : : o o : : : 3 3 : : : : : : : : : : : : : : : : @ : @ : : o X @ : : : : > < r ",
"x < < < : : $ > > > , : : : : & : , , : : : : : : : : : : > > t r < > $ : : < : , , : < : , : < < , , : : : : $ @ : : : : : 3 t ",
"l < , : : : o : : : : : : : : : : : : : : : : : : : @ : @ $ : 3 < : : : : : : : : : : : : : : : , @ : : : : o : X : : : : $ < r ",
"n < < < : < : : : : < : , , : < , , , , : : < : : < : , > > > r 3 < > > < : < : : , : < : > > < , , $ $ , < : < : : < : > > 3 r ",
"l < < : : , : $ : $ : : : : $ < , : : : < : , : : : : : : $ > 3 < < : : : : : : : : : : : , > > , : : , : : : : : : : : : : 3 3 ",
"n r < 3 < 3 , & < > < : < $ > ; , < < , < > < > < < > < > > 3 y t r < 3 < < < < < < > < > < > < < < < , < < : < ; > < & > < t y ",
"l > : : : : : : : : : : : $ $ : $ : , : > : : @ : : : : $ : $ 3 < > : : : : : : : : @ : @ : : > < , : : : : : : : : : o : : > 3 ",
"n < < < : < : : $ : : : : : : $ : $ : : < : > : : > : > > > > t 3 < : > > : > : : : : > : > : < , : < , : < : : > > > : > & 3 t ",
"l < , : : : : : : : : : : : : : @ : : : : : : : : : @ : o : : 3 < < : : : : : @ : : @ : @ : : > : : : : : : : : : o $ o : : & 3 ",
"S < , > : , : , : : > : : : > > > : : : : : $ : , : : : , , < r 3 < : : < : < : : : : : : : : > > : > : : : : : : : : : < > 3 r ",
"l < : : : : @ : $ $ @ : : @ @ : : : : : : : : o : : @ : : : , 6 < < : : : o : : : @ o : o : @ : : @ : @ : : : : : : : : : : < 3 ",
"c < < > : : : : : : : @ : : : < : $ : : > : : : : : : , : , , r 3 < , : : : : : : : @ > : > : > > : : : : : : : $ : > > < > 3 t ",
"l < : : : : : : : @ : o @ : : > : o : o : : o : @ : : : : : , r < < : : : @ : : : @ o : o : : > @ @ : : : : : : o : : o : : < 3 ",
"x < < : : > : : : > : : : > @ > : : $ : : : : : : > : : : : , t r < , , : : , : : @ : : : > : > > : > : : : : : : : , : : , r r ",
"x , < : : : : : : @ : $ : : : > $ : $ o $ o o o @ : : : : : , r < , : : , : : : : : : : @ : @ : : @ : @ @ : : : : : : : : , < r ",
"x < < , : > : : : : : : : : : : : : : : : : : : : : : : , : < r < 6 : : , : , : > : : : : : : > > : > : : : : : : : : , , < r r ",
"x < , : : : @ : : o o @ : : : : o : : : : @ : : : : : : : : , r < < : : : : : : : : @ $ : : $ : : @ : @ : : @ , : : , : : : < 6 "
};
