/* XPM */
static char *_7739a3c6dda4b8cb165537f7b1307d4LyO7VoKvhhJA9Yw6[] = {
/* columns rows colors chars-per-pixel */
"64 64 192 2 ",
"   c #011515",
".  c #021C1C",
"X  c #0B1D1E",
"o  c #101F1F",
"O  c #051F20",
"+  c #0D1F20",
"@  c #101F20",
"#  c #022425",
"$  c #0E2424",
"%  c #0E2927",
"&  c #0D2728",
"*  c #012828",
"=  c #012C2B",
"-  c #0C2B2B",
";  c #112425",
":  c #112827",
">  c #112728",
",  c #112A2A",
"<  c #00312E",
"1  c #0C302F",
"2  c #11312E",
"3  c #012E31",
"4  c #112E30",
"5  c #023334",
"6  c #0C3232",
"7  c #003834",
"8  c #033738",
"9  c #0A3739",
"0  c #033C3B",
"q  c #0A3C3D",
"w  c #113433",
"e  c #113936",
"r  c #113C3A",
"t  c #193C39",
"y  c #01413E",
"u  c #11413D",
"i  c #023E41",
"p  c #024343",
"a  c #0C4544",
"s  c #024947",
"d  c #02474A",
"f  c #034C4B",
"g  c #0B4C4B",
"h  c #124543",
"j  c #1B4543",
"k  c #124946",
"l  c #124C4A",
"z  c #1F4B4A",
"x  c #03514E",
"c  c #12524D",
"v  c #034E50",
"b  c #035353",
"n  c #0A5353",
"m  c #0A5954",
"M  c #035B5C",
"N  c #0B5C5C",
"B  c #115451",
"V  c #185851",
"C  c #145D5C",
"Z  c #195D5C",
"A  c #2D4F4E",
"S  c #215955",
"D  c #245E59",
"F  c #305755",
"G  c #0C605F",
"H  c #13625F",
"J  c #1C615D",
"K  c #29605C",
"L  c #30665F",
"P  c #035D60",
"I  c #056364",
"U  c #0D6363",
"Y  c #066669",
"T  c #0A6768",
"R  c #0D696A",
"E  c #136665",
"W  c #1D6362",
"Q  c #1D6866",
"!  c #156768",
"~  c #136C6C",
"^  c #1B6A6A",
"/  c #1B716E",
"(  c #166F71",
")  c #167373",
"_  c #1A7272",
"`  c #167779",
"'  c #246462",
"]  c #2A6666",
"[  c #2C6B67",
"{  c #266769",
"}  c #256C6C",
"|  c #2B6E69",
" . c #376B66",
".. c #376C67",
"X. c #2A726F",
"o. c #3A736E",
"O. c #247573",
"+. c #2B7472",
"@. c #277976",
"#. c #2C7C75",
"$. c #237A7A",
"%. c #2B7C7B",
"&. c #347574",
"*. c #3B7572",
"=. c #367977",
"-. c #3C7A76",
";. c #347B79",
":. c #3A7D7A",
">. c #457672",
",. c #417974",
"<. c #487973",
"1. c #437F7A",
"2. c #4C7D7A",
"3. c #587772",
"4. c #557C77",
"5. c #3D827C",
"6. c #46817E",
"7. c #55827B",
"8. c #5C837E",
"9. c #63887F",
"0. c #247E80",
"q. c #268486",
"w. c #298487",
"e. c #338483",
"r. c #3C8583",
"t. c #3C8B89",
"y. c #448583",
"u. c #4B8683",
"i. c #4D8A86",
"p. c #4B8D8B",
"a. c #548682",
"s. c #598680",
"d. c #5C8581",
"f. c #538B86",
"g. c #5B8B86",
"h. c #538D89",
"j. c #5C8D89",
"k. c #44908E",
"l. c #52928D",
"z. c #5C918D",
"x. c #4C9391",
"c. c #599390",
"v. c #638681",
"b. c #658B84",
"n. c #6A8C86",
"m. c #648E89",
"M. c #6B8F8A",
"N. c #728E87",
"B. c #63918D",
"V. c #6B938D",
"C. c #74948D",
"Z. c #7B958D",
"A. c #639692",
"S. c #6D9691",
"D. c #649994",
"F. c #6C9A95",
"G. c #629E9C",
"H. c #6B9D99",
"J. c #719692",
"K. c #739A94",
"L. c #7C9B94",
"P. c #739E99",
"I. c #7B9E9A",
"U. c #75A19C",
"Y. c #7CA29C",
"T. c #7DA6A1",
"R. c #7DA9A6",
"E. c #839C95",
"W. c #8D9B92",
"Q. c #889A94",
"!. c #829D98",
"~. c #939D96",
"^. c #8AA097",
"/. c #84A29B",
"(. c #8CA39D",
"). c #94A39C",
"_. c #9BA49C",
"`. c #95A89F",
"'. c #9AA99F",
"]. c #A2AA9F",
"[. c #8AA7A2",
"{. c #81A8A1",
"}. c #8AA9A2",
"|. c #94AAA3",
" X c #97ABA6",
".X c #9BABA3",
"XX c #A4ABA3",
"oX c #A8AFA8",
"OX c #A4B3AC",
"+X c #ACB5AC",
"@X c #B1B1A5",
"#X c #B0BBB5",
/* pixels */
"h 4 > > ; > ; ; > @ > ; ; > ; > : > ; ; > ; > ; ; : > > ; > > w w - - ; : ; > ; ; ; ; > @ ; $ > , ; > ; ; ; @ + X X + ; , ; 4 r ",
"l w , , > 4 ; , 4 > , > > , ; , : : > ; : ; > ; ; : > : > > , e u & $ : , , : : > : ; ; X $ $ % $ $ X X X .         O + , ; 4 r ",
"h , > > @ > > > > @ > @ > > ; , ; ; ; ; ; o ; ; ; : > > > > > w J = $ ; > ; : > > > ; X   # 7 0 p g f n f n s p 8 f = $ $ ; - w ",
"k , > , ; , @ ; > > > > ; > ; , ; ; ; @ ; ; ; ; ; ; ; ; ; ; - V i.5 $ > > ; : > > ; $ . # 5 u.z.!.S.N.E.V.!.f.n.&.M.g = < . . w ",
"k , , , > , > > > ; > > > > ; , : , > ; : ; : ; > > ; > > > j 6.C.B & ; > ; > ; > $ = 7 0 5 #.I.P.r.Z.!.:.V.c.C.s.R p 7 g < # e ",
"h , @ > @ @ > @ ; o ; ; ; ; ; > > ; ; ; > @ ; @ @ ; ; > ; > <.E f.2.& ; ; ; ; ; ; & f.d.v.8 Q Z.l.b.v.:.*.B.S.m.9.8.g x b.,.< w ",
"l 4 , 4 , , > & > ; > ; > > ; , : : > > : > : ; ; > > > ; t &.Z i.-.r & , > > > , 3 H.f 8 = 8 p p d p p p s d p p p < 5 m f.q r ",
"h , ; ; @ > @ > ; o ; o ; ; ; > ; ; ; @ ; o ; @ ; ; @ ; ; A E C y.W A @ > @ ; ; > = B.8 = * = = = < < < < = = # # * # = p 6.8 e ",
"c , : : ; : > : > ; : ; > ; ; : > : > ; > ; > ; $ : @ > $ 3.T f.P.I >.> : > , > > 5 P.y < = 7 8 7 7 y p y y < # # = 3 5 f f.0 r ",
"k , : : ; : ; > > ; > ; ; > : : ; > > ; > ; : ; ; ; ; ; - d.7.(.{.P 1.& $ ; , > ; 5 P.i = = H Z.y x E.^.Z.4.7 # # p g.V f f.0 r ",
"k , : > @ : ; ; ; @ > ; ; ; ; > ; ; ; ; ; ; ; @ ; ; ; ; 1 J.( (. XT h.1 > ; > ; > 5 D.0 = 5 ^ ).s m '.N.g.~.c = = f E.D f i.0 w ",
"l 4 : : > : : : > > : ; ; : ; , > $ ; ; : ; > ; ; > $ $ 8 I.X.K..X) G.9 $ ; > ; > p T.p 5 7 O.XXx N oX[ U '.L 5 = f ). .b B.u e ",
"h , > > ; ; ; ; ; ; ; @ ; ; ; > ; $ ; ; ; @ ; ; ; ; @ # p L.=.(. X%.P.p & $ ; ; ; 4.!.f 0 p } _.g m _.~.Q.W.g 7 0 x W.K x f.8 2 ",
"B , , , % , ; : > > , ; > : > : , $ ; > : > , > ; : $ - n OXm.OX#X$..Xb - ; , ; > Z T.b z.o.@.XXx m XXZ.7.] y ^ 8.M ).K x z.y e ",
"l , , , ; , ; > > ; : ; > > > : > $ : > , > , : : , $ 5 >.).v._. X^ (.^ < $ , > > i Y.b F.E.z._.s m .XZ 8 7 7 } ).a.).D x j.q w ",
"c , , , $ : > % : ; : $ ; > > : > : : : : ; : ; : , $ 6 Q.p.1.C.`.$.m.l.7 $ , > , 5 F.f N J.n...0 p d.a = = = p 2.L.>.y s g.y e ",
"l , > > ; > ; > : ; : @ ; : ; > ; > > ; : ; ; ; ; > $ 9 [.T L.V..XF.~ H.8 $ > ; > - R.p 0 p p 0 5 < 7 5 # = < = 7 p 7 7 f A.p w ",
"k , > > ; ; @ ; ; @ ; o ; ; ; : ; ; ; ; > ; ; @ ; ; + j e.N %.E.[.u.Y g.s $ > ; $ - H.p = = = = * # # # . # # # # = = = s i.0 2 ",
"B , , , > : > : : ; : @ ; ; : , > : > : > ; : > , ; + z G.U i.h.).j.Y [.a ; > ; : - G.f 8 8 5 5 3 3 3 3 3 5 5 5 5 5 5 8 f l.0 e ",
"h , > > @ > @ ; ; @ ; o @ ; @ ; ; ; @ @ ; @ ; ; + $ & g k.Q j.~ b.V.R A.9 + ; o ; $ U.&.:.;.+.&.&.} &.+.} +.&.} X.&.+.&.u.J.9 2 ",
"B , , , : : ; : : ; > o > > > : : ; ; ; > ; > > ; $ * g t.} C.J.|.J.( j.q ; , ; > ; z J  .] Z ] } W ] { W ' [ K ' ] ' K F t 1 e ",
"h , > > ; ; ; > ; @ ; o ; ; ; : ; ; ; o ; @ ; ; + O = B k.E B.|.+Xj.Y K.i ; > ; ; ; o $ o ; ; ; ; X X X ; X o ; @ ; ; @ > > , w ",
"l , : : ; > ; > > ; : @ ; > ; : > ; ; ; : @ ; ; X . = n e.G f.J..Xi.I B.d & : ; ; > ; > ; : > : > ; ; ; ; > ; > ; > > $ > > 4 e ",
"l , : : ; > ; ; ; ; : @ ; ; ; : ; > ; ; > ; ; @ O = b C k.! B.f.).j.Y P.M p % @ ; ; @ > @ ; ; : > ; > ; ; ; @ > ; ; > ; > > , e ",
"l , & > @ > $ ; @ ; ; @ ; ; @ ; ; ; ; ; $ ; ; ; X = 2.J.e.E J.V.`.S.I S.K.+.& $ ; ; ; ; @ ; @ > ; @ ; ; ; ; @ ; ; ; > ; > ; , 2 ",
"B , , , > > ; > > ; : ; > ; ; : ; : ; ; : @ ; ; . 5 m.S.I E r.I.|.g.I Q J.r.3 $ ; ; ; ; ; : ; > : ; : ; ; ; ; > ; ; > ; > > w e ",
"k , > > ; ; ; ; @ ; ; @ ; ; ; : ; ; ; @ ; ; ; X . 8 m.!.i.K.5.n.}.g.;.&./.p.5 + ; ; ; : @ ; ; ; ; @ $ @ @ ; ; ; @ ; ; ; ; > , w ",
"n , , : > > ; : : : : ; > > > , : : ; : > > : X . = p *.B.^._  .S.4.2.7.R i = $ : : > : ; : > : : $ : ; > : ; : > ; > ; > > e e ",
"c , , : ; ; ; ; ; ; : @ ; ; ; > ; ; > ; > @ > $ # = p <.L.].g.<.Q.E.M.n.( 0 - ; > ; ; : ; > > > : ; ; ; ; ; ; ; ; $ : @ ; : w w ",
"E e 2 , , , : 2 , : , : 2 , : 2 : : , , , : , : - 5 x 7..XW.E.E.XX~.Z.+X$.d 6 $ 2 , : : > , , 4 , : , , : , ; , : : , , , , u r ",
"O.u k u r u 1 r e r r e r e e u e r t e r w r r e j S 8.|.).XX].@X]..X+Xv. .j e r e e u 2 u r r r e r e e r w e e e u w u u l c ",
"C r r 2 , 2 2 2 , , 2 , 2 , , w , w , , w , 2 , , 6 5 b /.(.OX`.].XX/.XX/ y - - 2 , : 2 , 2 , 2 w , w , 1 2 , w 2 , 2 2 w 2 u k ",
"z 2 , , > , : > , ; , > > , > , , , : ; > ; > > > $ # d P.;.A.m..Xn.@.(.U 1 , > ; : > : > : , 4 , > , > > > ; > > > , > , > t t ",
"l t , , : > > > , ; > ; > > > , > : : ; > ; > ; ; & $ i H.b.l.A.OXb.+..XP - , > ; > ; : > : > > , ; > > ; ; ; > > ; : ; , , w r ",
"j 4 : , ; > > > > ; , ; ; ; ; , > ; ; ; > @ ; ; ; ; $ 0 H.I.F.d./.V.J.L.E = > > > > ; : ; > ; > > ; ; > ; ; ; ; o ; ; ; > > , e ",
"c , : , : , > > , > , > , , , , : : : ; : > , > > > $ p p.p.m.v.n.1.I.0.N - , > , : > , ; , > , : ; : ; > > ; > : > : : : > 4 e ",
"h , > > ; ; ; ; > ; > ; ; ; o , > ; ; ; ; @ ; @ ; ; # i c.` J.M.Z.u.G.y.N = ; > > ; ; ; @ ; ; > : ; ; ; ; ; ; ; ; ; ; @ > > , 2 ",
"l 4 , , > , ; > > > : > > > ; , > , > ; > ; > > ; > $ i h.Y h.d.v.0.0.=.N = ; > > : > : ; > > , , ; > > ; > ; ; ; > > ; > ; 2 r ",
"h , > > ; ; ; ; ; ; > ; > > ; , ; ; ; ; ; $ ; ; ; ; ; 9 p.Y f.d.4.1.0.j.v 3 ; ; > ; ; : ; ; ; : > ; ; ; ; ; ; ; ; ; ; ; > ; 2 e ",
"l , > , > > ; > ; ; > ; ; > ; : ; > > @ ; ; > @ ; ; ; 1 r._ A.C.Z.a.w.I.v = , > > > ; > ; : ; > : ; ; ; ; ; ; > ; ; > ; > > , e ",
"l , : > > > ; > > ; > ; ; : ; : > : > ; > ; ; ; ; > $ , %.~ I.s.C.v.0.j.f # , , > > > > > : > : > ; > ; ; : @ > ; ; > ; > ; , r ",
"h > > > ; ; ; ; ; ; ; o ; > ; : ; > ; ; ; @ ; @ @ ; @ - e._ Y.K.|.J.w.P.b # ; ; > > ; ; o ; ; ; ; ; ; @ ; : @ ; ; @ ; @ ; ; : e ",
"l 4 : : ; : > > > ; , ; ; > > , : > > ; > > : ; > ; ; 1 $.@.c.p..X` q.P.x & , ; > > > , > , : : > > ; ; > : ; : ; ; > ; : : w t ",
"h > > > ; > ; ; ; ; ; o ; ; o : ; > > @ ; ; ; @ ; ; + 3 U :.c.F.).6.` c.i $ ; ; > > @ ; o ; ; > ; ; ; ; ; ; @ ; ; ; ; ; > ; 2 w ",
"z , : , ; : > > : > : ; , ; ; , : > > ; : ; : ; ; ; # C e.*.R Y.XX5.M T.! 6 > $ > , > , > : ; : : ; > ; ; : @ ; ; ; : @ > > 2 w ",
"l , > : ; > ; > > ; > ; ; ; ; : : : > ; > ; : ; ; > * ! x.N b 5.[.M f B.$.8 $ ; ; > ; : ; > > , : > > ; ; : ; > ; ; ; ; > ; : w ",
"l : , , : , ; > : > > > ; > ; , > > : ; , ; : ; > , # y.P.' f D.OXG f !.g.q $ > > > > : ; : , , : > > > : : : $ ; ; ; ; ; : 2 w ",
"c 2 , 2 , 2 : : , : , : , , , 4 , , , , , , , , , , O 5 d g.b A.OXN o.! 8 & , , : , : , > , , 2 , , , , , , : , , , 2 , , : t u ",
"j , > : ; > @ > > ; : @ ; ; ; ; > > > ; ; @ ; ; ; ; @ ; = } b O.Y.b o.0 > @ ; ; ; ; ; ; ; > > > , > > ; > : ; ; ; ; ; ; ; ; , t ",
"m 4 , , > : ; : : ; : ; : : ; : : : > > , ; > ; ; : ; : & } W _ R.b B.9 > > > ; : ; ; : ; : ; , , , , , > : ; : : ; : ; : ; : t ",
"k , > > ; ; ; ; ; ; ; ; ; ; ; : ; ; ; ; > ; ; ; ; ; ; ; $ f -.E D.b y.= ; ; : ; ; ; @ ; @ ; ; > > ; > ; > > ; ; ; ; ; ; : ; : 2 ",
"l , : : ; > ; > ; ; ; ; : ; > : ; : ; ; $ > : > ; ; ; : $ p m.I 6.C =.& ; ; , @ ; ; ; : @ > ; > > ; > > : : ; : ; ; : ; : : 2 w ",
"k , , > ; > @ > : ; ; ; ; ; ; > ; : ; ; : ; ; $ ; % @ : > 5 D.G 5.*.C & ; ; > ; ; ; ; ; ; ; ; > ; o ; ; ; : ; : ; ; > > : : 2 2 ",
"k , > > @ > ; > ; @ ; @ ; ; ; : ; ; @ ; ; o ; ; $ $ ; : > $ } U +.-.8 $ ; ; ; ; ; @ @ : ; ; ; ; : o ; ; ; ; ; ; ; ; > ; : : 2 w ",
"B , > , ; % ; ; ; ; : ; ; > ; , > ; : ; : @ ; ; $ $ > : > $ g 7.7.-.- : > ; : : ; : ; : ; : > , : ; > ; ; ; ; ; ; > > ; > > 4 t ",
"h > > $ @ $ ; ; ; o ; @ ; ; @ > ; ; ; @ ; @ ; @ @ ; @ ; ; @ 5 z.E.g $ ; ; ; > @ ; ; @ ; @ ; @ > ; o ; o ; o ; ; ; ; ; ; ; > , 4 ",
"B , , : ; $ ; > ; : : ; : ; ; : ; : ; ; : ; @ $ ; > ; > : ; * J z.5 : : , ; , > : : ; ; ; > : : : ; : : ; ; ; : ; ; > > > : t t ",
"k > > ; ; ; + ; ; o ; o ; ; o > ; ; ; @ ; X X @ ; ; ; ; ; ; # s X.% @ ; ; ; ; o @ ; ; ; @ ; @ ; ; @ ; @ ; ; @ ; ; ; ; ; > ; , , ",
"c , - > ; > ; ; ; ; > ; : ; ; , ; : ; ; : @ : ; ; > ; : > > O y J & % : > ; > ; : > > : ; : ; : > @ : ; ; ; ; $ ; ; > > , : 2 w ",
"l , , > > > ; > ; ; ; o ; ; ; : ; ; ; ; : ; ; ; ; ; ; > ; ; $ y Q - $ : > ; ; ; ; ; ; : @ : ; : $ ; $ ; ; ; ; : ; @ > ; > > 4 w ",
"B , , % : , $ : : ; : ; : ; ; , > > ; ; ; ; ; : ; > ; ; ; : - x | 1 : : > ; > ; ; : ; : ; > , , : ; ; ; ; ; ; ; $ ; : ; > , 4 t ",
"C w , , : , ; : > ; : ; : > ; , , : > ; : : : : ; > ; : ; : 1 u u 2 : : > > - > : : ; : ; , > , : ; : : : , ; : > : $ ; : : e e ",
"H r e 2 , 2 , 2 , , 2 , 2 , , t , 2 2 , 2 : 2 , , 2 , 2 1 2 e u r e 2 2 , , , , 2 2 , 2 : 2 , 2 2 , 2 , % 2 , 2 , 2 2 , 2 2 u u ",
"#.l k u e u w u e r u e r e t t e r e e r e q e r r e r r u l V l c r u r e u e r e e u w u r r r w u e e r e r e e u e k u c V "
};
