/* XPM */
static char *_dfafee743f444b8c44b622bf513800ekYJthTl2xjfSNVwA[] = {
/* columns rows colors chars-per-pixel */
"64 64 199 2 ",
"   c #011515",
".  c #041C1C",
"X  c #0A1D1D",
"o  c #101F1F",
"O  c #011F21",
"+  c #0E1F21",
"@  c #101F20",
"#  c #012425",
"$  c #0D2424",
"%  c #002827",
"&  c #0C2927",
"*  c #0C2728",
"=  c #012C2B",
"-  c #0C2B2B",
";  c #112425",
":  c #112827",
">  c #112728",
",  c #112A2A",
"<  c #01312E",
"1  c #11312E",
"2  c #022E31",
"3  c #082F30",
"4  c #112E30",
"5  c #023334",
"6  c #0A3333",
"7  c #003834",
"8  c #013738",
"9  c #0A3638",
"0  c #033B3B",
"q  c #0B3B3B",
"w  c #113432",
"e  c #113936",
"r  c #113C3A",
"t  c #1B3D3C",
"y  c #02413E",
"u  c #11413D",
"i  c #023E41",
"p  c #024343",
"a  c #094444",
"s  c #024A47",
"d  c #084947",
"f  c #024749",
"g  c #024C4C",
"h  c #0B4C49",
"j  c #124543",
"k  c #114A46",
"l  c #114D4A",
"z  c #1F4B4A",
"x  c #03504E",
"c  c #12524D",
"v  c #024F50",
"b  c #114F51",
"n  c #035354",
"m  c #0A5454",
"M  c #0B5956",
"N  c #025758",
"B  c #035B5C",
"V  c #0C5D5D",
"C  c #125452",
"Z  c #1A5653",
"A  c #155951",
"S  c #145D5A",
"D  c #1A5C5B",
"F  c #245652",
"G  c #225D59",
"H  c #335B58",
"J  c #0F605F",
"K  c #12645E",
"L  c #29605C",
"P  c #30665F",
"I  c #045F62",
"U  c #095F60",
"Y  c #056264",
"T  c #0C6464",
"R  c #0C6668",
"E  c #086868",
"W  c #0B6C6D",
"Q  c #146462",
"!  c #1B6564",
"~  c #186867",
"^  c #136C6B",
"/  c #1B6D6C",
"(  c #10706E",
")  c #0B6E72",
"_  c #1E6E70",
"`  c #157274",
"'  c #1B7877",
"]  c #256463",
"[  c #2B6664",
"{  c #226A66",
"}  c #2B6A67",
"|  c #246C6B",
" . c #286A69",
".. c #376B66",
"X. c #3C6E69",
"o. c #2F716D",
"O. c #33716D",
"+. c #39726D",
"@. c #247572",
"#. c #2C7472",
"$. c #257977",
"%. c #2D7B76",
"&. c #247C7C",
"*. c #2B7C7A",
"=. c #347574",
"-. c #3E7671",
";. c #357A77",
":. c #3C7A75",
">. c #337B79",
",. c #3C7A78",
"<. c #415F5B",
"1. c #467370",
"2. c #437973",
"3. c #427E7A",
"4. c #4C7F7D",
"5. c #547C76",
"6. c #527F7A",
"7. c #2E837E",
"8. c #4C827F",
"9. c #53837D",
"0. c #5B827D",
"q. c #63887F",
"w. c #258083",
"e. c #2D8584",
"r. c #348684",
"t. c #3C8481",
"y. c #388888",
"u. c #3F908D",
"i. c #468481",
"p. c #4B8582",
"a. c #428987",
"s. c #4E8A84",
"d. c #418C8A",
"f. c #4D8E8B",
"g. c #538682",
"h. c #5A8581",
"j. c #538B86",
"k. c #5D8B86",
"l. c #548D8B",
"z. c #5A8D8A",
"x. c #55928E",
"c. c #5C928D",
"v. c #4B9292",
"b. c #5B9591",
"n. c #5C9A97",
"m. c #648A83",
"M. c #638A84",
"N. c #6B8C86",
"B. c #6B8E8A",
"V. c #728F89",
"C. c #62918C",
"Z. c #6B928D",
"A. c #75938C",
"S. c #7C948D",
"D. c #629591",
"F. c #6C9691",
"G. c #649A95",
"H. c #6B9A95",
"J. c #639D9B",
"K. c #6B9D9A",
"L. c #739792",
"P. c #719B95",
"I. c #7D9B94",
"U. c #769E99",
"Y. c #7E9E99",
"T. c #62A09D",
"R. c #6BA39F",
"E. c #75A29D",
"W. c #7CA39D",
"Q. c #6EA5A2",
"!. c #7BA5A1",
"~. c #7DA8A4",
"^. c #829791",
"/. c #8C9790",
"(. c #849C95",
"). c #8C9C93",
"_. c #839E99",
"`. c #8C9F99",
"'. c #929D95",
"]. c #8BA096",
"[. c #84A29C",
"{. c #8CA39D",
"}. c #95A39C",
"|. c #9BA59D",
" X c #9BA99F",
".X c #84A6A1",
"XX c #8AA8A1",
"oX c #8FAAA6",
"OX c #94A6A0",
"+X c #97A9A3",
"@X c #9CACA3",
"#X c #94B2AC",
"$X c #A3ABA3",
"%X c #A8AEA5",
"&X c #A4AFA8",
"*X c #A2B1A9",
"=X c #AAB3AB",
"-X c #B2B4AB",
";X c #B3BAB2",
/* pixels */
"j 4 > > ; > ; $ $ o ; ; > > ; > > > ; ; > @ : ; : : ; > ; > : w 4 , : > : ; : ; ; ; ; > o > > > > ; > ; > ; @ + X X + ; > > 4 e ",
"l w , , > , > > , > , ; : , > : : > > ; : ; : ; : : ; > > > , t w 4 : : : > , , > , ; ; X X $ & $ $ X X X           O $ > > w e ",
"j , > > ; > ; > > ; ; ; > ; ; : ; ; ; ; : @ ; ; > ; ; > : ; , 1 4 , > ; ; ; , ; ; > $ X . # 7 0 f h g m g m g p 8 h = + & $ - w ",
"k , > , > > + ; > > > ; > > > , > ; ; ; > ; ; ; ; ; ; : ; : : 1 , , > ; > ; > > > ; $ . # < p.c._.Z.V.(.Z.[.g.N.>.B.d = < . . w ",
"k , > > > , > > > ; : > > > ; , , , > ; : ; ; ; ; > ; > > > > t 4 4 > > > ; > > > $ - 7 0 8 *.I.U.t.S.(.;.F.b.A.0.R p 7 d 5 # e ",
"j , @ > ; ; @ > ; @ > @ ; ; ; > ; ; > ; ; @ ; ; ; ; ; ; ; ; ; 4 , > ; ; ; ; ; ; ; # j.h.q.8 ! S.x.M.q.,.:.C.H.M.M.0.l x N.2.5 1 ",
"l 4 > 4 > > > > , > > ; > > > : : : : ; : ; : ; ; > ; > > > > t w 4 > > , ; > > > 3 E.g 8 = 8 f f f p f p s g i y s < 7 N j.0 r ",
"j > > > @ > @ > ; @ ; ; ; ; ; : ; ; ; o ; ; ; @ ; ; @ > ; ; > 4 4 > ; ; ; @ ; o ; = c.8 % % % = = = < < = = % % % % # = p 8.9 e ",
"c , , , ; , > : > > : ; : ; > : : : > ; ; ; ; ; ; : ; ; ; > , w w , : > : > , > > 5 E.y < = 7 8 7 7 y p y 0 = % % % 5 7 s g.0 r ",
"k : > : ; : ; : > ; : @ > > > : ; > > ; > > ; ; ; : @ : ; : , w w : > ; : > : ; ; 2 K.i = = K S.y g I.].S.5.0 % % i k.Z g j.q r ",
"k , : : ; > ; ; ; ; ; ; ; ; ; > > ; ; @ ; ; ; ; ; ; @ ; ; @ : 1 w : ; ; > @ ; ; > 5 F.0 = < ~ }.s M  XZ.k.].c % % g ^.G g g.0 e ",
"l , : : ; : ; : > ; , ; : : ; : > : > ; : ; ; ; ; > ; ; > : : e w , : : : > : ; > p !.f 7 0 #.$Xx V %X..T  XP 5 = v }...n C.y r ",
"j , , > ; ; ; ; ; ; ; ; ; ; ; ; > > ; ; ; ; ; ; @ ; ; ; ; @ > 1 : > > ; ; @ ; ; ; 5.[.f 0 y | |.h M |.'.^.'.h 7 y x (.L x g.0 1 ",
"C , , , : , ; : > ; > > > : ; , > > > > : ; , > > : > : : ; : e 1 , : : , ; > > > D !.n c.+.$.$Xx M $XA.9.[ y | 0.B }.L x c.q e ",
"k 1 , : ; : > > > ; : > : : ; : > , : > : ; , : : , ; : & > , w , , : : : > : ; > i W.N H.(.C.|.s m  XK 0 7 7 | }.g.}.L x z.y e ",
"c , , , > , ; > > ; : ; > : ; , : , , > , ; : ; > : ; : : : , e w , , , : : , > , 5 F.g J F.N...0 p h.j % % = y 4.I.1.y s j.q e ",
"l , > > ; > ; > : ; : ; ; ; ; ; : : > ; > @ > ; ; : ; : ; ; : w 1 , ; ; > ; > ; > 3 ~.s 8 f p 0 7 = 8 5 % % < = 7 f 0 7 x D.p w ",
"k , > > ; > @ ; : @ ; @ @ ; ; : ; ; ; ; > ; ; ; ; ; @ ; ; ; & 1 , : ; ; ; ; ; ; ; * K.p 5 = % = % # # # . # # # # % % = s s.0 1 ",
"C , , > > : ; $ : ; : ; : : ; , > : > ; > ; > ; : : @ > ; : , e 1 , ; > ; ; , ; > - G.f 8 8 5 5 5 2 = 5 2 5 8 2 2 5 5 8 x l.0 e ",
"j , > > @ ; o X @ @ ; @ ; @ @ ; ; ; ; @ ; @ ; ; @ > @ ; ; ; : 1 , , ; ; ; o ; o ; $ E.>.:.>.#.;.=.| =.#.| #.=.| #.;.o.=.i.L.9 1 ",
"C , , , : : ; $ $ ; > ; > > ; , > ; ; > > ; > > ; > ; > , > , e 1 , ; > > ; > > $ ; z K } [ G ] | ! [  .! ] } L ] [ ] L H t - e ",
"j > > > ; ; @ ; $ o ; @ ; ; ; > ; ; ; @ ; @ ; ; ; ; ; ; ; ; , w - # . . ; o ; o ; ; @ @ o ; $ > @ o X X + @ o ; @ ; $ @ $ > , w ",
"b , , : > : ; : > o $ $ ; $ ; , ; > $ ; > ; ; ; ; > ; > $ ; , r - % # O # O . $ ; ; ; ; ; ; > > > ; $ ; > > ; > > ; > ; > > w w ",
"l , : > ; : ; ; > > $ ; ; ; + $ $ $ $ o ; o ; ; ; > + > $ $ - F 5 2 8 f 0 2 O . $ ; ; ; X ; ; > > ; > ; ; ; ; ; ; ; > ; , > 4 w ",
"k , , > @ : ; ; @ ; ; @ ; ; @ $ # 2 5 $ $ ; ; ; $ # % > $ % 8 L v g | z.P.B 8 5 2 % ; > @ * > $ $ @ ; ; ; ; ; ; ; ; ; ; ; ; w 1 ",
"C , , > > : > > > ; : ; > ; ; * C ^ ,.5 q 6 - 6 y p g i p g N N.0.M.M.b._.| D D D C H k 9 9 < # & o > ; ; > @ : > ; > > : : w w ",
"k , , ; ; > ; ; @ ; ; @ $ $ = 7 _ J.J.R r.u.r.v.K.l.H.E.E.XXoX*X{.(.F.Y ` w.&.e.r.r.d.n.I.B.D f 0 3 : ; @ ; @ ; @ @ ; ; ; > , w ",
"m , , : ; : ; : : ; $ 3 i g ~ ;.3.S =.3.>.@.^ ^ R E w.K.B.3.{.|.`. X`.~ Q T V U | Y T T $.@X*XI.I.A.5.<.u - $ > > ; > ; > : w e ",
"c , , : & $ X # % < g t.H.j.+.S g g B y.R.R.K.K.K.G.OXY.*.d.@X&XI.Z.g.a.I.c.g.b.F.k.f.c.O.,.g.` ( ` @.^ p.X.e > ; $ ; ; ; ; w w ",
"Q e 1 , 0 = % 7 Q 8.o.J n n N R $./ *.9.' Z.0.z.z.p.z.V.3.9.}.|.N./ / L.[.x.oX+XZ.*.[.[.A.@X-X}.[.{.}.T n B l.p - : , : , 4 u r ",
"@.u k j :.#.{ ;.@X0.:.p.8.W.#X*X$X;X=X].=X}.(.A.V.m.S.'.*X-X$X-X/.).).`. XS.^.@X).6.^.`.`.}.*X`.(.+XI.h.I.9.N.A.F e u e u u l c ",
"K r e w d y 0 d i.k.~ J J E ^ t.C.x.x.H.x.H.M.B.B.5.V.V.j.z.}.%X].8.>.d.oXU.E.!.H.Z.x.G.I.F.G.U.K.e.&.R E / B.M p 6 1 , e 1 u k ",
"c w , , & , $ > - 0 ! P.k.[ M n x g I c.z._._.l.k.8.k._.b.K.=X%X}.}.[.c.R.n.x.T.[.x.n.n.W 8.9.3.3.:.o.2.N.G 6 = $ # - > , , w u ",
"k w : , > , > > , $ - 0 m ! i.h.{ g V / ` ) ) ) W ) v..X8.@.(.}.S.9.-.N B Y B Y E Y Y R h.OXW.a.*.| Z r , > $ > ; ; > ; , : w r ",
"k 4 : - ; , > > > > > $ $ - - p t.!..Xy.Q.Q.G.!.L.p.z.F.{.@X$X;X XZ.9.| _.!.H.W.P.D.{.!.7.^ g 0 3 * > ; ; ; ; ; ; ; ; ; > > , w ",
"l , : : > , > > , ; , > * > > : b ` 3.i n v f f v g n N n B T m.E Y *.C.Y.B f 0 9 9 a 0 6 5 - & - ; > > ; ; ; > > > : > , > w e ",
"j , > > ; ; ; ; > ; ; ; ; ; ; : 3 0 q $ * * % % 5 3 6 = - = p 1.p i ! r.t.f * $ ; ; ; > ; ; ; : > ; ; ; ; ; ; ; ; ; ; @ > > , 1 ",
"l 4 , , > , ; > : > : > > > ; , ; * * > $ ; ; $ $ $ ; * > > - u 6 3 8 8 5 * , > > , ; : @ : : : , ; > > ; ; ; > ; > > ; $ > 1 r ",
"k , > > ; ; ; ; > ; > ; > > ; > ; ; ; ; $ ; ; ; @ > ; > ; ; : 1 - - $ O $ @ > ; > ; ; > ; ; ; : > @ > ; ; ; ; ; ; ; ; ; > ; 1 e ",
"l , > > > > ; > > ; ; ; ; > ; > ; ; > @ > @ ; ; > > @ > ; ; : e w , > $ > > , ; > > ; > ; > ; : > ; ; ; ; ; ; > ; ; > ; > > , e ",
"l , : > > > ; > > ; > ; > : ; > > > ; ; ; @ ; ; ; : $ : ; ; : e w , > > > ; : > , > > , ; > : > > ; ; ; ; : ; ; $ ; ; ; ; ; , u ",
"j > ; > ; ; ; ; ; @ ; ; @ ; ; : > > ; ; ; ; ; ; @ ; @ ; ; ; ; 1 , , ; ; ; ; > ; > ; ; > ; ; ; ; > @ ; ; ; ; o ; ; @ ; ; ; ; : e ",
"b , , , ; , ; > : ; , ; > > : , > > > ; > ; ; ; : > ; : ; ; : e 1 , : : : : , ; : > > : : > > , : > ; ; ; ; ; > > ; > ; : : 1 t ",
"j > > ; ; > ; ; ; ; ; @ ; ; @ : ; ; ; ; ; @ ; ; ; ; @ @ ; ; ; 1 1 > ; ; : @ > @ : ; o > @ ; ; ; > ; ; ; ; ; o ; ; @ ; ; > ; 1 w ",
"z 4 , , ; : ; , : : > ; : : ; , > , > ; : ; : ; ; ; ; ; ; ; : e 1 , : : : ; : > > , : , ; > > , : ; > ; ; : ; > ; ; : ; ; > 1 w ",
"j , : : ; > ; > ; ; > ; : ; ; : : > ; ; > > > > ; > ; ; ; ; : w , , ; ; : @ > ; ; : ; > ; : ; > : ; > ; ; ; ; > ; ; ; ; : ; , e ",
"k , : , : : ; > : ; : ; : ; ; , > : > > , ; : ; : : > : ; ; : 1 , , : > : ; : > : : ; , ; : : > > ; > > : : ; : ; ; : ; ; : 1 1 ",
"c w , 1 , 4 , , 4 > , , : , > 1 , , , > , , , , , , : , , : 1 r e w , 1 1 , , , , , > , > 4 , 4 4 , 4 , , , : , , : , , , , e u ",
"k : > : ; : ; ; ; ; ; ; ; ; ; ; ; : > ; ; ; ; ; ; > @ > ; ; ; 1 , : ; ; ; ; ; ; ; ; @ : ; ; ; > , > : ; > > ; ; ; ; ; ; ; ; , 1 ",
"A , , , ; : ; : : ; : ; ; : ; : : : , > > ; > ; > , ; > > > : e 1 4 : : > ; , ; : : ; : ; > > , , : , > : , ; > : ; : ; : ; 1 t ",
"j > > > ; ; ; ; ; ; ; ; ; : ; : ; ; ; ; ; ; ; ; ; ; @ > ; ; > , , 4 ; ; > ; : ; ; ; @ ; @ ; ; > ; ; > ; ; : ; ; ; ; ; ; : ; : 1 ",
"l 4 : : ; : ; > : ; ; ; : ; ; : ; ; ; ; > ; > > ; : ; : , : : t 1 , ; > > ; : ; ; ; ; : @ > ; , : ; > : > : ; > ; ; : ; : : , t ",
"l , : > ; > @ > ; ; ; ; ; ; ; > : : ; ; : ; ; @ ; : ; ; : : > w , 4 ; : > ; > @ ; ; ; ; ; ; ; > : ; ; ; ; ; ; > ; ; : : : : , 1 ",
"k , > > @ > ; ; ; @ ; o ; ; ; : ; ; ; ; ; @ ; ; ; ; ; : ; ; > w 4 , ; ; > ; > ; ; @ @ : ; ; @ > ; o ; ; ; ; ; > ; ; : ; : : 1 w ",
"b , , > : : ; > ; ; > ; > > ; , ; ; ; ; : ; : ; ; : ; : ; ; > t 4 , : : ; ; : : ; : ; : ; : > , : ; ; ; ; ; ; ; ; : > ; > > 1 e ",
"j > > > @ ; ; ; ; @ ; @ ; ; @ > @ ; ; o ; ; @ ; @ ; @ ; ; ; > 4 : : ; ; ; ; ; @ ; ; @ ; @ ; @ > ; o ; @ ; ; o ; ; @ ; ; ; ; 4 w ",
"C , , : > > ; > : ; : ; : ; ; : : > ; : : ; : ; ; > ; > > > , e 4 4 : : , ; > : : > ; : ; ; ; : : ; : & ; ; ; : ; > > > > > t t ",
"k : > ; ; ; @ ; ; @ ; @ ; ; @ : ; ; @ @ ; ; ; @ ; > @ ; ; ; > 1 : : ; ; ; ; ; o ; ; @ ; @ ; ; ; ; @ ; @ @ ; @ ; ; @ ; ; > ; , , ",
"c , - : > > ; > ; ; : ; ; ; ; > : ; ; ; : ; ; ; ; > ; > > > , e 4 , : : > ; > ; : ; > : ; : ; : > ; : ; : ; ; > > ; > ; > > w w ",
"l , , ; ; > ; > ; ; ; @ ; ; ; , ; : @ ; ; ; ; ; ; ; ; > ; ; , e , , : : > ; ; ; ; ; ; : @ : ; : : @ : @ ; ; ; ; ; ; ; ; > > 4 w ",
"C , , : > : ; : ; ; : : : ; : > ; > > ; : ; : : ; > ; ; ; : : e , 4 : : > ; : ; : : ; : ; > > , : ; ; ; ; : @ : ; @ : : > , w w ",
"S w , - , , > $ : : : @ : : : , , : ; ; : ; : : ; : > : : : 1 u e 4 : , > : , ; : ; ; : ; , > , : ; : > : : ; : : ; : : ; : r t ",
"K r e w , 1 , w , 1 1 : 1 , > w , 1 , , 1 : 1 : , 1 , 1 1 1 e u e e , 1 , , 4 , 1 1 : 1 : 1 , 1 1 , 1 , - 1 : , , 1 1 : 1 w u u ",
"%.l l r e u w r e e u e t e w z e u r e r e q e r u w r u u k Z k c r j r w r t r r e u w u r r r e r e e u e r r e u r u u c c "
};
