/* XPM */
static char *_c5407a7f7a24804d5803afd3969474fbWNLcdswLWV6Yebs[] = {
/* columns rows colors chars-per-pixel */
"64 64 75 1 ",
"  c #112425",
". c #112827",
"X c #112728",
"o c #102828",
"O c #102928",
"+ c #102829",
"@ c #122828",
"# c #132829",
"$ c #112A28",
"% c #102A29",
"& c #132A28",
"* c #10282A",
"= c #13292A",
"- c #12282B",
"; c #13292B",
": c #112B2A",
"> c #132A2B",
", c #112C29",
"< c #112C2B",
"1 c #132C2A",
"2 c #112E2A",
"3 c #112A2C",
"4 c #112A2D",
"5 c #112C2D",
"6 c #102F2D",
"7 c #122C2E",
"8 c #112E2E",
"9 c #10302D",
"0 c #10312D",
"q c #12302E",
"w c #11322F",
"e c #12322F",
"r c #112D30",
"t c #112F31",
"y c #122F30",
"u c #103130",
"i c #133130",
"p c #123132",
"a c #113432",
"s c #113433",
"d c #103732",
"f c #103734",
"g c #113635",
"h c #103835",
"j c #133834",
"k c #113837",
"l c #123836",
"z c #123937",
"x c #113A36",
"c c #123C37",
"v c #123938",
"b c #113B38",
"n c #123C39",
"m c #113D3A",
"M c #11413D",
"N c #124342",
"B c #114643",
"V c #134745",
"C c #124845",
"Z c #114A45",
"A c #114946",
"S c #114A48",
"D c #114D4A",
"F c #114E4B",
"G c #124D4D",
"H c #12534D",
"J c #11514F",
"K c #11524E",
"L c #115451",
"P c #155951",
"I c #155E59",
"U c #12645E",
"Y c #126661",
"T c #237571",
"R c #2C7C75",
/* pixels */
"VtXX X  X      X@X       @   XXdu: X;      X   X: X         ; 8b",
"Ft:: 4*XXX: ;;X:@@X @   @@ ;#;;xd8: :X;;:: XXX;X: ;X      ; ;:pn",
"B4XX  XXX X  X ;           ;; Xx7:# : ;    X              ; XX<d",
"C: :    XXX  X ;    @      .   u8:X    .X  X   X.            X8d",
"C8XXXX    :  X ;<        ; X ;;jtXXX:    X X .X:1 :  #    # ; ug",
"N:XX         X    :            t44             X              <p",
"G444X:X  XX XXX< ;          X;;jg4-XX ##XX X *XX;        #: :X0n",
"NX X                          @7tX             .            @X<x",
"F<X: :XXX ;    :X:           X:uu<; : 4XXX X   *:             4v",
"Z<:  . XX    X : XX          XXdu7 X. X  X X X .X             qc",
"Z .:           @    X         .d9#             X              7j",
"Gu..  .XXXX  # ..XX : X       *g08... . :  :  .:4 .. .      ;@0x",
"B:XX             X             9<X             XX             @7",
"K<X:.* .  : .. 4X:XXX <  : ....d8<... : . *:  :4:XXX :    . ;@dj",
"C::::*  X . ...:XXX XX*..o ...:d0<#@. .. : . X.X:XXX.X.......;7j",
"K8:: * ** . .X :X:: : ...* *..Xx88#...X.:  . X.::XXX.. .. : ..jd",
"F:X: X X            #         .d9<            X#: X  X        :d",
"V: X X                        .0..             XX             <<",
"K44: X X         ;         :  :x08  .         X#  XX   X    2.9d",
"N:X                            <::             :            . <9",
"G:::           :    :       XX:x8::X            X         * ..8h",
"VXXX           :              Xp<: X           X            . 89",
"K::XX: X     X             XX :g8:XX           .            : dg",
"G:XX           X           XXX:u<:XX           #          :  :4g",
"CX:X                           d::                           X80",
"L4:X X      X  X    X       X :x84; .XX                   XXXXud",
"C.X            X              X0:;X        .                  t8",
"K8<.:  : X  XXXX    X    .  XX<x88X:  ; .# ;           :    XXxx",
"K9:X   .       X    X #       <x<:  X      .   .    X       XXtu",
"Ydu8X:.4X:<:<.:u::::: ;::.;8:.dMgd<<<;::84 1 8*t: **:: XXX:::8Mm",
"TCBmxmumgxmdxxgmdmxxbdbxgmxmbmCKCCcmxxmlmxxmdmxmmgmdgbdbggmdMMCH",
"Imgd<d884*9:08<d<98:u:8848:u80cCMmp8p:8:88:0<888d*u9108u8<d0d0MC",
"Kd<<X:.X: X:XXX8**  X X  XX: #:mxu::1;:. ; #  -44XXXXX XX < <:gM",
"C8:< :XX@XX XX :* . :   XX..X::bg8@@: #  X :..XX4 :X   X X: < pm",
"C8#. :XX X; XX XX.            ;u88X@X :  X X   :             @:g",
"S8.;X:XX; :XXXX:*.: X : :X ;XX:gp8@@<;;;::XX ::X: :    XX : .:tx",
"N:XX    X      X X             t4X  X   XX     :            . 4u",
"Gt:: 4 X< ; XX :XXX        X XXgut;X;X; XX : . .: XX   X  X : 0x",
"V4XX        XX :              Xdu;X   ; X  .   .X           XX8x",
"C4XXX; X;    X X           . XXdu<XX  :    . .  X    X      X 8g",
"S4:XXX X  X    XXX            .dd:  . : :# #   #              Xb",
"VXX            . X            .08#      X                     :p",
"G8:; : X  . X. <:XX            du:...#.  # ; .;.:           @@pm",
"N:   X                         <uX                           :;d",
"F1#: :X XX: XX : ##      X    ;d8:# : ; ;;#XXXX;X XX X      @X8j",
"V< .    X      X #    :        q::       @     #X X  X      X <0",
"C<#; 1  X .    :;#; ; ;  X..  #08: @:   @  @ .:;; XX . .  .  ;0q",
"Hu80;q;18 :.;<:8::1&<#1#:0.<.;dmdp8;<@8<::X8;:::8:<X<...9.<;<7jn",
"V<XX X  X                X     0X: X            ;  X          99",
"Lu<; X XX      :  ; . :  X X: .x08XX: .      ..:: ;; # #&     9j",
"B:X            .    .         #u::                            2e",
"F8;. :         :    . .  .  X ;x8: .. .        :#  :      & ..9d",
"V:*X X                      XX:p8;              #           <.<0",
"V:X:           8              Xd8:XX                      ; # 7d",
"K::            <              :g8<X            <            @:ed",
"VXX                            u:X                            7p",
"LX:X   X        :        X XXX:x88  ;X: @      .       .  # ;;qv",
"C:XX                          XpX:                            7q",
"K4X: :                   X XXX:g:8 ;    :  .               ;:@pl",
"F*XX X .                      ;d8:X .      ;                X tj",
"K8:X X .  .     XX            :x8: X  X :  . X**     .      X@dj",
"Iu8*#: ..:     ;XXX #: #XX #X:0Mp0.::XXX X . X :. . .. .  #;X:xx",
"Umd080<8<00.e0#e<0<:0;0480:000dCxx80<48Xu8:0.98d9*9*<2<8<<q<u0bM",
"RGCMmmgmxxMdmccMxmxdMdmxxmgmMMCPCKmMmgMxmmdMdmmmmhmdxmxmcdMnMBHH"
};
