/* XPM */
static char *a94f2336bc444afbcfc4e487ad8694f1Yr9aBbcbxNmCKkNa[] = {
/* columns rows colors chars-per-pixel */
"64 64 128 2 ",
"   c #0F2425",
".  c #0F2827",
"X  c #0F2729",
"o  c #0F2C2C",
"O  c #112525",
"+  c #112827",
"@  c #112728",
"#  c #112A2A",
"$  c #0E302F",
"%  c #11312E",
"&  c #0F2E30",
"*  c #112F30",
"=  c #0E3334",
"-  c #0D3738",
";  c #0D3C3C",
":  c #113433",
">  c #193333",
",  c #113936",
"<  c #113738",
"1  c #113C3B",
"2  c #0A403F",
"3  c #11413D",
"4  c #113E40",
"5  c #054342",
"6  c #0C4444",
"7  c #0F4847",
"8  c #0D4648",
"9  c #064B4B",
"0  c #0E4B4B",
"q  c #114544",
"w  c #114946",
"e  c #114C4B",
"r  c #0E514F",
"t  c #12524E",
"y  c #0E4F50",
"u  c #134F51",
"i  c #075453",
"p  c #0E5453",
"a  c #0E5857",
"s  c #0C5758",
"d  c #045D5B",
"f  c #0E5A59",
"g  c #0E5B5A",
"h  c #0E5C59",
"j  c #0E5C5B",
"k  c #0A5D5C",
"l  c #0B5E5D",
"z  c #0F5F5F",
"x  c #165150",
"c  c #115453",
"v  c #115756",
"b  c #1F5250",
"n  c #125856",
"m  c #125759",
"M  c #115A5A",
"N  c #125D59",
"B  c #155D59",
"V  c #135D5D",
"C  c #165F5F",
"Z  c #1B5C5B",
"A  c #234A4A",
"S  c #245656",
"D  c #06615E",
"F  c #0B605B",
"G  c #0A615C",
"H  c #0B615E",
"J  c #0C625D",
"K  c #0D615F",
"L  c #0D635F",
"P  c #12605C",
"I  c #10635F",
"U  c #13625E",
"Y  c #18615F",
"T  c #0F5F60",
"R  c #115F60",
"E  c #185F60",
"W  c #066663",
"Q  c #076663",
"!  c #0B6360",
"~  c #0B6362",
"^  c #0D6362",
"/  c #0B6763",
"(  c #0C6562",
")  c #0D6A65",
"_  c #0C6B66",
"`  c #0F6768",
"'  c #066E69",
"]  c #0C6C69",
"[  c #136161",
"{  c #116361",
"}  c #136462",
"|  c #156461",
" . c #176563",
".. c #146663",
"X. c #196664",
"o. c #186766",
"O. c #106864",
"+. c #136A66",
"@. c #196966",
"#. c #136868",
"$. c #136A6A",
"%. c #106C68",
"&. c #156C69",
"*. c #176C68",
"=. c #1B6C6A",
"-. c #0C716E",
";. c #14716C",
":. c #1B736D",
">. c #157572",
",. c #1A7572",
"<. c #167B74",
"1. c #1C7A74",
"2. c #1E7D7B",
"3. c #206361",
"4. c #256867",
"5. c #226E6D",
"6. c #24716E",
"7. c #257371",
"8. c #297270",
"9. c #237C76",
"0. c #2C7C75",
"q. c #207D79",
"w. c #217F7D",
"e. c #22827D",
"r. c #1F8080",
"t. c #238482",
"y. c #2D8483",
"u. c #288882",
/* pixels */
"w * @ @ O @ O + +   @ O O O O @ O @ O @ @ O O O O O > t M l V { g q : O # O O O O O O + O O O O # # O @ O O O @ O O @ O @ O > , ",
"e * # # @ # @ @ @ O # O @ # @ # # O @ O @ O O O O # 1 n l ^ K l ^ p < # # # # # + # O + + O + # # O @ @ O O O O O O @ @ # @ > , ",
"q # + @ O O O O @ O @ O O @ O @ O O O O O O O O @ # 0 M ^ V l K ^ l n 6 # O # O   + O + O X O + O O O O O O O O O O @ O + O # , ",
"X.= + # O @ O + @ O @ O O O O # O O O O @ O O O O # e l l T { l T ^ ^ { h e q q 6 e t 7 ; 6 - X # O O O O     + O O @ O +   % % ",
"y.M q = @ # + + + + + + # + O # @ # @ O O   O O O * e g T T V ^ K V ( K ^ { [ } K ~ ) L N r 9 8 7 6 4 5 6 = O O @ @ X O +   % < ",
"w.#.} [ p - # # o % : o > > @ @ O O O O O   O   O # w g ^ T K l K ^ ^ U V ^ V ( K ( ) G U U N U E { [ N #.i O O O O X O   + # : ",
"w.#.~ ^ l }  .[ ^ ~ ) K h r 5 6 ; ; - - - # + O O # q g l ^ l ^ K l K ^ K ^ ^ U ( ( *.U G G U K ^ k l d W l # # O @ # & = + : 1 ",
"e.` ( { H K K K H ~ ) D U N p n V M g p V 9 #   O O ; s R R ^ V K K ^ } +.$.+.#.*.) :.) K ) ( ( [ K K H ' ^ ; O   O O + o O # , ",
"t.( } K V l V V U ^ *.K K L U U K g l V ) H : O O + # y K V V K U l U l p c N } +.) =.~ ( ( } } l ..^ ..;.g ; + O O @ O + @ # , ",
"2.] +.O.) ) +.) +.~ *.( K L L ( K l l d W / ;   O + # 2 g l ^ ^ V ^ V l p - & ; p l +...l k K ( K ..V 0 ; O   +     O O @ O % 1 ",
"r.) U U U } @.@.&.%.,.+.+.O.+.+.+.@.X.O.>.O.7 X O O O : 0 K R l V ^ ^ l g q : X ; ; e u 0 c [ V U p -   O O   O   O O O O + % 3 ",
"B - # # # = - 0 g K &.( G K G L ! K V ^ s ; @   O O O # 6 g l ^ ^ l ^ V ^ p w # O O O # O # # : : # O + O # O X O # q : * - t B ",
"q # # @ O O O   4 8 Z V a M U I { V q # O O # O O O   O : 0 l T l ^ K l ^ V p ; @ O O O   O # + # O O O O O O ; p g ^ V V T ] #.",
"t # # @   # O + o X # # $ : 1 e e - @ @ + O # # O X - o # 4 c T U l K V l K g e = @ @ @ O + # # # @ @ O # # X V U K } U ^ ) ,...",
"e # @ # + # O + X O + O @ @ + # @ # # O + O # o - e V c c i ( [ T K K K V l U 0 ; # # # O # @ # # + # @ @ # = V K ( U ^ ( ^ >.#.",
"t # # #   #   X O # + + + + + # @ # @ + # O # c { K ^ ..l +.] O.l R l ^ ^ K T g V l B e 8 ; # X # @ # * : : - B l ^ ( ( { ( >.;.",
"e # # @ O @ O # #   O O O O O + + O O O O O # M ( ^ { U K ( ;.+.V K K K { l T ^ L K &.H U G h ; # * 1 8 e e 0 l T ! ~ { U ..>.1.",
"w # O O O * = - 6 9 q = = . O + O #     O O # M h K ( K ..( ] O.l ^ V K l T ^ ^ O.+.1.*.+.) +...n 0 c g M l l V ^ ! ..~ D O.,.1.",
"t # # # ; u p M ..I *.K U h 0 - + + + O @ O o s H ^ ( [ ^ [ ) } { l K l ^ V l R D L *.D D H K ~ ^ k ^ l M ^ { l T { +.+.*.) <.9.",
"w @ @ O o p { ..G ) :...K D +.G - X     O O O s T ! K ( ^ { +.( ^ V K ^ R l p g K / +.U ) K K K l { l V ^ U l K ^ l R ^ H W -.:.",
"c # # #   : p ..~ ( :.( ..~ ~ +.#.7 O O @ O X V ..$.=.=.*.+.+.{ l K K V K h e ; p O.O.U U K K ^ ^ R V K K l ^ l l H l ^ ^ W -.,.",
"w @ @   # O & g ( K +.( ..+.) ^ T c     O     p l k ^ ^ ^ ^ ^ ^ ^ K K ^ K h 3 @ 6 L +.G H K K l l K ^ K R ( V ^ R U V N V ~ >.,.",
"e # @ + @ @ X ; p ( +.@.6.8.8.8.X.m X O + O @ 8 N k k V ^ ^ K K R { V ^ K p 1 O $ G *.G H K U l R ( T K V K l V a 0 c Z Y ( >.,.",
"e # # @ O @ O X 6 U 5.5.+.....X.8.4.  O O O + @ q M K l ^ V ^ K K l K l K r :   o a *.G K K K ^ K V l T ^ l { l c 6 * < x } 2.,.",
"7 # X + O O O O = h 7.....l l ^ @.8.> O O O O     - t N K ^ l V K U ^ l M w * O + 8 } T T T K V R ^ l K K l T V p < @ O o 6 g p ",
"c # # + O + O O O E =.T V ^ ^ V { =.A O O O O O   O # c V ^ K K ^ T R l p 4 # O O - h { k ^ K ^ l l U { ^ ^ ^ l g 1 O O #   : , ",
"w # @ + O O   + O Z X.T K l l R ..{ S @ # # O   O O O 1 p ^ K K l l ^ g 6 * O   : 6 p V ^ ^ l l R ^ ( V l V V ^ l 0 # O O # # : ",
"c # X + + + O + @ S ..^ T T { ( T X.S q q - # # O # O - 0 g U ^ V T s q 1 # # : 0 p K l l R V ^ l T l K T ^ ^ l V 0 = + @ O , , ",
"t o # + O + O   O A X.V ^ l V l T T B p c w 1 # O O O & q p g g g g 6 , # # 6 u g V ^ ^ ^ l ^ R R ^ l K ^ K l K h p %   O + , : ",
".., % # + # # # # < 3.O.^ { ^ l T ^ T M T j c 6 # # # # 1 w r g c 0 1 < w c g V l ^ l V ^ K V K ^ T ^ V V ^ R K K a ; + # # 1 1 ",
"5.w 3 3 , 1 : 1 < 1 S ..{ R T { ^ V l ^ T K l p e 1 , 1 1 q t c p t w p M l T l K K V ^ K V K K V K K l V ^ U l U ^ t , 3 3 w t ",
"U 1 , : # : % % # # , S X.{ ^ ^ l ^ ^ l l R R h p 6 : : : : < t 6 e r g k ^ V ( V K K ^ l K K l ^ ^ V K K l ^ { l ^ 1., : : 3 w ",
"t : # # @ # @ # # O # @ > t } ! U K K ^ l K ^ l l p 0 e q q w c p a g l U K V ^ U l ^ { T l K K l ^ l U l { l l { ^ >.1.# # , 1 ",
"e * # # @ # O O O + @ O @ # n +.l K K V ^ ^ V V ^ V l h p g g l l K V ^ ^ l K l l ^ R l V ^ R ^ ^ V l ^ ^ K { R l ^ ) 2.1.# : 1 ",
"w # # # + @ O @ @ O # O @ @ - @.( R V K K V l ^ ^ l ^ l T l V ^ { l V l l K K l ^ l V l l ( l l { l T l ^ l K K R ^ ^ ) e.5.# , ",
"e # @ @ + # # O # @ # @ @ # # c $.{ ^ l K K R l l { T V K ^ l K U K ^ K U ^ V { V l ^ V ^ V R K T { l { V ^ K l ^ U U ( ;.u..., ",
"q   @ +   O O X @ O O O O + O 6 +.#.^ K l U V ^ V l ^ { V ^ l ^ ^ R V K l l ^ V V l { ^ V ^ V l l R l V ^ l V ^ K ..( } +.' t.t ",
"e > # # O # O @ * @ # O @ @   6 U =.~ ..^ l { K ^ ^ l V l ^ ^ V K l ( l ^ R K ^ ^ K ^ l ^ l ^ ^ R l ^ V V K K l K ( ( $./ / -.t.",
"q # @ # O   + @ 6 q # O O @ # ; h ) ,.~ K K l K l ^ K ^ V ^ R l V ^ V ^ R K ^ l ^ V l ^ U ^ K g p p g l ^ K K ^ K { #.^ ^ K / >.",
"e # @ # O @ O @ e c 6 # O + O : I &.+.K H U { T V K ^ V { l ^ ^ K l ^ l K ^ l V ^ l U ( U l { p 0 e p p g g l V ..@.^ T V ( ^ #.",
"7 # @ @ O O @ # n { g w - # @ # w [ K +.G K K h V l k K l ^ T K V ^ R K K K l K l l { { { K M < < * 1 7 0 p e l ( K s k V [ V [ ",
"q # @ @ O O O * M { l V p q # O # n k ~ O.F I h ^ l ^ T V K { l ( l ^ V V ^ ^ V ^ ^ ^ K { [ < + @ O @ # , < * 1 N M g V n t w 1 ",
"e # # @ O # @ 4 ^ ^ l ( V r ; * + 1 h K +.K ..U k V l ^ K K K { l ^ l K l ^ ^ ) ~ ~ l V c 1 O # @ @ O O @ # O + 6 6 w ; % # % 1 ",
"q # # O O @ @ 8 V V ^ K T g w * O @ M ^ ..+.K l V g k V K V K l V V l { ^ V ^ ;.&.! U 7 O O O # O O O   O O   O O O O O + + # : ",
"e # + # O # # c V ^ l K l l 0 1 # @ q { D ) K F U K V l K R k V l K { K V [ =.) *...6 # # O # # # @ @ + O + O O   O O O + + # , ",
"w # O + O O - g l ^ ^ V R T p : O @ # B U k @.k l V ^ T ^ l K l K K ^ V ^ $.$.^ c e + + @ : < 1 1 < ; 4 # # O O   O O O + + # : ",
"e > # # + * 0 ( { U V l ^ ^ p , @ @ O : p ..U ( l ^ ^ T l { ^ ^ K K l K O...c 6 ; # + # > w 0 c V l } K e # O + O O O O + + % : ",
"c # % # # 5 } +.K K ^ K K { M : # # # # , , M +.( K l V ^ l T R { K { { U 6 : # # # + : 6 p l ^ ^ ^ ! R K e # # # # % + # # , 1 ",
"w # + +   y } T k ! l U ^ ( M @ O O @ O + O 4 ^ ^ { K T { K K U l V l U g 6 : O + O O - r V ^ K ^ T K k K h 1   O O O   O   # % ",
"c # # # @ 8 h { k ! ^ l l ^ U $ # @ @ O # * q p T l T H l T l { T ^ { R l u ; O +     0 { ^ V l l U l ^ H k B - + + O O   + % , ",
"q # + O O & y R ! k ^ K R l V # O O O O # 1 c l l T K l l { ^ V ^ l K l R y < # O O - V ^ ^ V ^ K V T K T K m 8 + O O   O O o % ",
"t # @ # O # 8 C T k k ! k ( 0 # O O O O * q s V ^ V ^ K K K l ^ V K V K l p < O O X 0 K K V ^ l l K ^ l k k p 4 O O + O + + % , ",
"e # @ @ O O # y g k U k l e @ @ @ O O   * w p { ^ V { ^ V l ^ V ^ l ^ V h 0 : O . 6 a ....K K K ^ K ! T k k 6 # O O @ @ # + # : ",
"w @ @ + O O O # 8 n B c ; # O @ O O O   - M l l ^ T l { V ^ l U K K U l g 4 @ O - 0 U @.K K K { U ^ K k R p & O O O @ O + + # : ",
"e # # @ O + O O o 0 8 - # O O # @ # @ : c O.^ l K { ^ l ^ ^ ^ l K T ^ g c , O O : ; q ; 6 8 p a { +.H T m 6 X O @ @ O O + @ : , ",
"e O O + O O O O   o @   O O O @ O O - c l T ^ V l l l { l V l ^ l ^ l p 4 O O O O O O O O   + % 8 ..} p 4 X   O O O O O O O # : ",
"x # # # O @ O # O # O O O O O O X 6 { T ^ T l R K V K K l ^ ^ V { l g q 1 O O # + O O O O O O + . - w %   O O + O O O @ @ @ > > ",
"e @ O O   O O       O O O O O O = M { } H ^ ^ l l ^ l K T U K K l M e - O       O O O   O O O O O     O O O O O O O O O O O # > ",
"t # # @ O @ O O O   O O O O O O , m l ..^ l { ^ ( V K R T ^ ^ l R p < # O O O O O O O + O O O + + O   O O O O O O O O O + @ : , ",
"e # # O O @   +     O O O O O O - V l ^ { K K V l ^ K V ^ l V l p 1 # + @ O O O + O O + O O O O O   O O O O   + O O O O + + * , ",
"c # # O + + O + + + + O O @ O # = V k l ^ ( K U ^ V l V K h g p 3 * O O @ O @ O O + O + O O O #   O + O O O O O     + O + @ : : ",
"N % # # + + + + +   + O O O O # = n K { ^ [ K K { ^ ^ p p w w w : > + # @ O # O + + O + + # + # + O + + + + O + O O + + @ @ 1 1 ",
"U 1 , : # % # % # # % + # # # > : Z U K ^ ^ $.$.+.t q ; 3 3 3 3 1 : % % % # * @ % % # % + % # % % # % # # % + # # # % # % % 3 3 ",
"0.e w 3 , 3 , 1 1 , 1 , 3 ; 1 3 - B V ~ ~ ' q.+.w e : 1 3 3 w n w t 1 3 1 : 4 , 1 1 , 3 : 1 1 1 1 , 1 , , 3 , 3 1 , 3 3 3 3 t t "
};
