/* XPM */
static char *_78cd6e833f44e89f4b0c99012f19a20cHdLuhvqkPksCFjC[] = {
/* columns rows colors chars-per-pixel */
"64 64 161 2 ",
"   c #012320",
".  c #042923",
"X  c #0A2C24",
"o  c #022F2A",
"O  c #112425",
"+  c #112827",
"@  c #112728",
"#  c #112A2A",
"$  c #05332D",
"%  c #0C352C",
"&  c #0A3B2F",
"*  c #11312E",
"=  c #163828",
"-  c #112E30",
";  c #013730",
":  c #043C35",
">  c #083D37",
",  c #0A3F39",
"<  c #113432",
"1  c #113936",
"2  c #1F3F33",
"3  c #113C3A",
"4  c #3D471E",
"5  c #1B4025",
"6  c #044536",
"7  c #0A4936",
"8  c #02443A",
"9  c #0B4139",
"0  c #07493C",
"q  c #1C4234",
"w  c #11423D",
"e  c #144C3D",
"r  c #2C4A27",
"t  c #264D2F",
"y  c #2E4E2D",
"u  c #314A27",
"i  c #325332",
"p  c #395333",
"a  c #365833",
"s  c #335639",
"d  c #355A3D",
"f  c #3B5B3C",
"g  c #424920",
"h  c #50562C",
"j  c #595B2F",
"k  c #505A3B",
"l  c #655C22",
"z  c #546020",
"x  c #52652D",
"c  c #4D6731",
"v  c #656826",
"b  c #696528",
"n  c #746B25",
"m  c #7D712D",
"M  c #666130",
"N  c #6E6E33",
"B  c #6E6A3C",
"V  c #7A7537",
"C  c #0B4940",
"Z  c #114543",
"A  c #114A46",
"S  c #1B4F40",
"D  c #114D4A",
"F  c #0E5343",
"G  c #075348",
"H  c #0B544B",
"J  c #185544",
"K  c #12524D",
"L  c #1B5A4A",
"P  c #0E5A50",
"I  c #115451",
"U  c #135B52",
"Y  c #155E59",
"T  c #225444",
"R  c #275846",
"E  c #2A5A46",
"W  c #235F4B",
"Q  c #2B5C48",
"!  c #3D5E42",
"~  c #1F654F",
"^  c #1F6356",
"/  c #12645E",
"(  c #346249",
")  c #3F6649",
"_  c #286350",
"`  c #346751",
"'  c #38745C",
"]  c #126661",
"[  c #287973",
"{  c #416547",
"}  c #46684B",
"|  c #507347",
" . c #446C51",
".. c #447158",
"X. c #7C7741",
"o. c #7C7B46",
"O. c #7B7F4F",
"+. c #86691D",
"@. c #88732B",
"#. c #927627",
"$. c #977825",
"%. c #907328",
"&. c #947A2A",
"*. c #9C7C2D",
"=. c #887632",
"-. c #847838",
";. c #957C35",
":. c #9B7E34",
">. c #947D3B",
",. c #9A7F38",
"<. c #A17F2C",
"1. c #A07F34",
"2. c #967F40",
"3. c #7C804E",
"4. c #648B69",
"5. c #708860",
"6. c #9E802F",
"7. c #9E8036",
"8. c #9E823D",
"9. c #A2812F",
"0. c #A38335",
"q. c #A2843C",
"w. c #A98A3C",
"e. c #968446",
"r. c #9C8444",
"t. c #958548",
"y. c #9D864F",
"u. c #9D884A",
"i. c #88885B",
"p. c #9E8A53",
"a. c #9E8C5B",
"s. c #A38741",
"d. c #A58944",
"f. c #AF8E45",
"g. c #A08748",
"h. c #A58A49",
"j. c #A98D4C",
"k. c #A58F52",
"l. c #A08E5E",
"z. c #AD9355",
"x. c #AC955A",
"c. c #B3985A",
"v. c #9D9769",
"b. c #A39366",
"n. c #A89561",
"m. c #AA9864",
"M. c #AD9A69",
"N. c #B59B65",
"B. c #BC9F6C",
"V. c #B1A06A",
"C. c #A6A177",
"Z. c #A8A072",
"A. c #C3A96E",
"S. c #C4AC76",
"D. c #C4AB7F",
"F. c #CCB07B",
"G. c #CCB483",
"H. c #C7B08D",
"J. c #CEB78B",
"K. c #D2B686",
"L. c #D8BB87",
/* pixels */
"Z - @ @ @ @ @ O O O O O O O O @ + + O O @ O O O O + O @ @ O @ 1 - # O O # O # O O O O O O O @ @ # O @ O O O O @ O O @ O @ @ * 2 ",
"D < # # @ @ @ @ @ @ # O @ # O # + + @ O O O O O @ # @ @ @ @ # 2 < - # # # @ # @ @ # O # O # + # # O @ @ O @ O @ @ O + O @ + - 3 ",
"Z # @ @ O O @ O @ O @ O @ O O # O O O O O O O O @ @ O @ O + @ < # # O O O O # O @ O O O O O O + + O O O O O O O O O @ O # O # 1 ",
"A # @ # O @ O O @ @ @ O @ @ O # O O O O + O O O O @ O + @ O @ - < # @ O @ O # O # O O @ O O O O @ O O O O O O O O O O O O @ # < ",
"A # @ @ @ @ O @ O O # O @ @ O # # @ @ O O O O O O @ O @ O @ @ 1 - - @ @ @ O @ O O O O # O @ @ # # O O @ O @ O O @ O @ O # @ * 1 ",
"Z # O @ O O O O O O O O O O O @ O O O O O O O O O O O O O O @ - # @ O O O O O O O O O O O @ O + O O O O O O O O O O @ O O O # < ",
"D - @ - @ @ @ O @ @ O O @ @ O # O # O O @ O O O O @ O O @ @ @ 2 < - @ @ @ O @ @ O @ @ @ O @ + + + O @ O O O O @ O @ # O # O < 3 ",
"Z @ @ @ O O O O O O O O O O O @ O O O O O O O O O O O O O O @ - - @ O O O O @ O O O O O O O O @ O O O O O O O O O O O O @ O # 1 ",
"K # # # O + @ + @ O # O @ O O # @ + @ O @ O O O O O O O O @ + < < # @ O + @ + @ @ O O + O @ O + # O O O O O O O O O O O O O - 1 ",
"A + @ + O + O @ O O O O O @ O # O @ O O @ O O O O O O O O @ # 1 < # O O @ O + @ O @ O + O @ O O @ O O O O O O O O O O O O @ * 1 ",
"A # + + O + O O O O O O O O O O @ O O O O O O O O O O O O O O * < # O + @ O @ O @ O O O O O O @ @ O O O O O O O O O O O O O - < ",
"D # + + O + @ @ @ @ @ O + + O # @ @ @ O + O + O O O O O O O + 1 < # O + + O @ O @ @ O + O @ @ # + O @ + O O O @ O O O O @ @ < 2 ",
"Z # # @ O O O O O O O O O O O O O O O O O O O O O O O O O O O * # O O O O O O O O O O O O O O O + O @ O O O O O O O O O O O + < ",
"I # # # O # O + @ @ @ @ @ # @ # # @ @ @ + + + @ O X @ @ @ @ O 1 * # O + + O # O @ @ @ # O @ # # # @ @ @ @ # O @ O O @ @ @ @ * 1 ",
"D # # # O # O @ O O + O @ @ O # @ # + @ + O # @ @ # O @ X @ # < * # # + + O # O O @ O + O @ @ # # O @ @ + + @ + @ @ + + + + * < ",
"K # # # @ # O X @ O + O O @ @ # + # # O # O + + O + O + + + # 1 < # # + # O # @ + + O + O X @ # # @ + @ + + O O + O + + # + * 1 ",
"D # @ @ O @ O @ O O O O O O O O O + O O @ O O O O O O O O O + < # # O O O O O O O O O O O O @ # # @ @ O O @ O O O O O O O O X % ",
"A # @ @ O @ O O O O O O O O O O O O O O O O O O O O O O O O + * # @ O O O O O O O O O O O O O @ + O O O O O O O O O O O O O + * ",
"K # # # O @ O @ O O O O O O O O O + O O @ O O O O O O + O X @ 1 * # O O @ O @ O O O O O O O @ # O O @ @ O + O O O O O O # + * 1 ",
"Z # @ @ O O O O O O O O O O O O O O O O O O O O O O O O O O O * # # O O O O O O O O O O O O O O O O O O O O O O O O O O + + + * ",
"K # # # O O O + O O O O @ O O # O O O O O O O O O O O + @ @ @ 1 * < + + O O + O O O O O O O O O + O O O O + O O O O @ O # @ * 1 ",
"Z # @ @ O O O O O O O O O O O O O O O O O O O O O @ O O O O @ < # # O @ O O @ O O O   O O O O O O O O O O O O O O O O O @ O @ < ",
"D # @ + @ + O @ O O O O O # O + O O O O O O O O O + O # @ O # 1 # # @ @ + @ O O O O O O O O O + O O O O O O O O O O @ O O @ < 1 ",
"K # + @ O @ O O O O O O O O O @ O O O O O O O E v.( A S Q T o 0 9 9 e e e R 5.N.= O O O O O @ @ O O O O O O O O O O @ O @ @ # 1 ",
"D @ @ @ O @ O O O O O O O O O O O O O O O O O ` f y r i d d s { k s a p u u 5 4.= O O O O O O O O O O O O O O O O O O O O O * % ",
"I # # @ @ @ O O O O @ O O O O # @ @ O O @ O O e 7 V ;.;.,.2.t.p.t.V m n @.b 4 ^ X O O O O O O O O O O O O O O O @ O @ @ @ @ < < ",
"C @ @ O O O O O O O O O O O O # O O O O @ O O e 6 X.;.e.r.8.*.w.7.x -.v @.| g F X O O O O O O O   O O O O O O O O O O O O O - - ",
"I % # @ @ @ O @ O O O O # O O # O O O O O O O , 6 o.8.e.,.$.&.x.r.z m v =.c h 0 X + + # O O O O O O O O O O O @ O O O O # @ 1 1 ",
"I # @ @ O @ O O O O O O O O O @ O O @ O @ O @ , P o.u.s.*.<.d.G.B.;.&.$.6.>.h G X O O + O @ O @ O O O O O O O O O O O O O + < < ",
"] 1 < # # # # # @ @ * + X + # # # + # # # O # o H O.r.:.0.j.V.J.H.c.q.<.*.8.j &   # + # @ # # # + + # # @ # O # @ @ @ @ # # 3 3 ",
"[ A Z , 1 3 < , < 1 3 < 3 3 1 w 1 3 1 3 3 < 3 8 ^ i.h.w.c.F.G.L.K.F.A.j.s.p.B T ; 3 1 w < 3 3 3 3 < 3 1 , 3 1 3 , < 3 1 w w K J ",
"Y 3 1 < # < # < * # * # * # # < * * # # * # * o P 3.h.q.0.w.z.K.D.f.0.1.0.8.M > . # # * # * < * < # < # # < @ < # # < # < < Z C ",
"K < # = + # + @ + @ @ O @ @ O - # + + O @ O X > G o.u.8.9.*.8.S.N.0.*.:.7.>.B 8 $ @ @ # @ # # # # @ # @ @ @ O # @ @ # @ # @ < w ",
"D - @ # + + O @ + @ @ @ @ @ O # @ @ @ O @ O @ > 6 O.s.r.q.:.*.z.h.0.*.,.g.%.B 6 * O O @ O @ @ @ # @ # O O O O @ @ @ + O # # < 3 ",
"Z - # # @ + @ @ @ @ @ @ O @ O + @ O O O @ O @ e 6 V 8.7.k.q.n.m.M.j.g.r.6.;.b 9 2 O O + O @ @ @ @ O O O O O O O O O O O @ @ # < ",
"D - @ @ + @ @ @ @ @ * @ @ @ + - + + @ O @ O + w 0 N #.>.,.e.l.b.b.y.a.>.;.+.l 9 t + + @ O @ @ # + O @ @ O O O @ O O + + @ @ < 3 ",
"Z O O O O @ O O @ O @ O O O O @ @ @ O O O O O _ ) a a a ! { } .. . .! i y y t ~ k @ @ @ O O O + @ O O O O O O O O O O O @ O # % ",
"D - # # @ @ O @ @ + @ O @ @ O # + # @ O O O O W C. .F L W L $ 8 : ; R R R S ' Z.k @ @ + O + O @ # O @ @ O O O O O O @ O @ O * 3 ",
"Z - @ # O O O O @ O + O @ @ O # O O O O O O O O O O O @ O O + < - @ @ O O O + @ @ @ O @ O O O + @ O O O O O O O O O O O @ @ # 3 ",
"D # @ # O @ @ @ @ O + O O O + @ O O O O O O O O O O O @ O O + < < # @ @ @ O + @ @ O O @ O O O @ + O O O O @ O O O O O O @ @ # 1 ",
"D @ @ @ @ O @ @ O O @ O O @ O @ @ @ O O O O O O O O O O O O + 1 < @ @ @ @ @ # O @ # O @ O @ O + O O O O O O O O O O O O O O @ 3 ",
"Z @ @ @ O O O O O O O O O O O + O @ O O O O O O O O O O O O O * % @ O O O O @ O O O O O O O O O O O O O O O O O O O O O O O # < ",
"D - # @ @ @ @ @ O O # O @ O O @ O @ O O O O O O O O O O O O O 1 < @ O @ + @ + O + @ O # O @ + + @ O O O O O O O O O O O # + * 3 ",
"Z # @ O O O O O O O O O O O O O @ @ O O O O O O O O O O O O O * % @ O O O O O O O O O O O O O O O O O O O O O O O O O O O O # < ",
"T # @ # O + @ @ @ @ # O + @ @ # + + @ O O O + O O O O O O O # < # # @ @ + O @ O @ @ O # O @ @ + @ O @ O O + O O O O @ O # @ * 1 ",
"D # + + O @ O O O O @ O O O O @ O @ O @ O O + O O + O O O O O * # # @ O O O @ O O @ O + O + @ # @ @ @ O O @ O O O O O O O O # < ",
"D @ @ # @ @ O @ O O O O @ O O @ + @ @ @ @ @ @ O O + O + O O # < * # @ + + O + @ + + O @ O + + @ # O O O @ @ O + O O O @ @ O * = ",
"I - # * @ - O = - @ # O = # @ * # # @ + * @ * # # # # # # # - 3 < < # * * + # # - @ + # @ - # * < # # # # # + # # + # # # # 3 3 ",
"A @ + + O O O O O O + O O O O O O O O O O O O O O + O O O O O = # # + O O O O O O O O O O @ @ + # @ O O O @ O O O O O O O O = # ",
"I - - @ O # O # @ O O O O + O + O O + O # O @ O O @ O + + + # 1 * # + + @ @ @ O @ O O O O X O @ # O # # + + O + O @ O O + + # 2 ",
"A @ O O O O O O O O O O O O O + O O O O O O O O O @ O O O O + < # # O O O O O O O O O O O O O @ O O @ @ O O O O O O O O @ O # < ",
"K - @ @ O @ O O + O O O + + O @ O O O O @ O + O O + O + + @ @ 1 * - O + O O O O O O O O O O O O O O @ O O O O O O O + O + @ * < ",
"A @ # O O @ O O O O O O O O O @ O O O O O O O O O @ O O O @ @ < # - O @ O O O O O O O O O O O O + O O O O O O O O O O O # @ # * ",
"D @ # O O O O O O O O O O O O @ O O O O O O O O O O O O O @ @ < # # O O O O O O O O O O O O O O O O O O O O O O O O # O @ @ * < ",
"K @ # # O + O O O O O O O O O @ O O O O O O O O O O O O O O @ 1 * # + @ O O O O O O O O O O O # O O O O O O O O O O @ O @ @ < < ",
"Z @ @ O O O O O O O O O O O O + O O O   O O O O O O O O O O O - # # O O O O O O O O O O O O O O O O O O O O O O O O O O O @ # < ",
"I # # @ O @ O @ O O O O O O O O O + O O + O O O O O O O O @ # 3 - # O + # O # O @ O O O O O O + O O O O O O O O O O @ @ @ @ < 2 ",
"A @ @ O O O O O O O O O O O O O O O O O O O O O O O O @ O O @ < # # O O O O O O O O O O O O O O O O O O O O O O O O O O O O # - ",
"I # # # O O O @ O O O O O O O O O + O O O O O O O @ @ O O @ # 1 # # # + O O O O + O O + O O O + O   O O O O O @ O O O @ @ @ < < ",
"D # @ X O @ O @ O O O O O O O O O O O O O O O O @ @ O @ O O # < * # O + O O O O @ O O + O O O O O O O O O O O O O O O O @ @ < < ",
"I # # @ + # O O O @ + O O O O + O @ O O + O @ @ O O O O O O # 1 # # O O @ O @ @ @ + O + O O + # + O O O O @ O O O O + O @ @ < < ",
"Y < - @ + # @ @ + @ + O O O + # # # @ O # O + # O @ O X + + * w < < # # @ @ # @ + @ O + O # @ # + O + O @ # O O O O X @ @ # 3 3 ",
"/ 1 < < # * # < # # * + * # @ < # * # + # # # # # < # # # * < Z 3 3 * * # # - # * * + * + * # * * # * # # * # # # # * # < * w 3 ",
"[ D D 9 1 w < 3 3 1 3 1 w 3 3 q 1 3 3 1 w 1 , 3 1 3 < Z w w D L D D 3 w 3 1 w < 3 3 1 w < w 3 3 3 < w 1 3 9 1 3 3 1 w 1 w w K U "
};
