/* XPM */
static char *_1e1a7803b82465ca7e7f723e58569bddlBluUMTYawm8SEv[] = {
/* columns rows colors chars-per-pixel */
"64 64 235 2 ",
"   c #021E1B",
".  c #01221E",
"X  c #10391F",
"o  c #253919",
"O  c #022523",
"+  c #012A25",
"@  c #012D2A",
"#  c #112425",
"$  c #112827",
"%  c #112728",
"&  c #112A2A",
"*  c #023324",
"=  c #043926",
"-  c #0C3827",
";  c #02332C",
":  c #013B2B",
">  c #0A3B2C",
",  c #11312E",
"<  c #1A3A2D",
"1  c #112E30",
"2  c #003531",
"3  c #013C33",
"4  c #003E39",
"5  c #113432",
"6  c #113936",
"7  c #113C3A",
"8  c #1F4D1F",
"9  c #334F15",
"0  c #33531D",
"q  c #3A591B",
"w  c #02422E",
"e  c #0B442C",
"r  c #014234",
"t  c #0B4735",
"y  c #02453B",
"u  c #034A3C",
"i  c #0D4B3C",
"p  c #114A37",
"a  c #184A36",
"s  c #11413D",
"d  c #134D3D",
"f  c #16513D",
"g  c #384726",
"h  c #365A2A",
"j  c #214332",
"k  c #2F4730",
"l  c #254937",
"z  c #26543D",
"x  c #3A5C36",
"c  c #3D6636",
"v  c #69621E",
"b  c #796619",
"n  c #404A25",
"m  c #465627",
"M  c #58582A",
"N  c #575C35",
"B  c #645D29",
"V  c #51642B",
"C  c #446537",
"Z  c #596438",
"A  c #676427",
"S  c #6B642B",
"D  c #7A6927",
"F  c #7F712E",
"G  c #686839",
"H  c #766D30",
"J  c #677234",
"K  c #797537",
"L  c #074B41",
"P  c #034D42",
"I  c #114543",
"U  c #114A45",
"Y  c #114D4A",
"T  c #055445",
"R  c #0B5345",
"E  c #065449",
"W  c #0C554B",
"Q  c #0C5B4C",
"!  c #145443",
"~  c #195745",
"^  c #11524D",
"/  c #1C5C4C",
"(  c #085850",
")  c #115451",
"_  c #155C54",
"`  c #245B48",
"'  c #2D5E4C",
"]  c #1A634D",
"[  c #176454",
"{  c #13655C",
"}  c #166959",
"|  c #1A6859",
" . c #24614E",
".. c #376849",
"X. c #256957",
"o. c #356D56",
"O. c #27735E",
"+. c #0E6C65",
"@. c #146862",
"#. c #1B7163",
"$. c #2B7763",
"%. c #367767",
"&. c #287973",
"*. c #456D4B",
"=. c #4A6A49",
"-. c #586B44",
";. c #54734B",
":. c #4D7657",
">. c #587452",
",. c #636B44",
"<. c #6A6C43",
"1. c #756F45",
"2. c #69734A",
"3. c #78774B",
"4. c #697A54",
"5. c #757A55",
"6. c #4B7964",
"7. c #826A1B",
"8. c #876B1C",
"9. c #97741F",
"0. c #836D24",
"q. c #8B6E24",
"w. c #836D2B",
"e. c #8E7124",
"r. c #84732D",
"t. c #8B752B",
"y. c #8B742C",
"u. c #947523",
"i. c #997727",
"p. c #9C7924",
"a. c #92762A",
"s. c #95792C",
"d. c #9B7C2C",
"f. c #866B3C",
"g. c #837234",
"h. c #8B7533",
"j. c #8C7A35",
"k. c #85753C",
"l. c #8C7739",
"z. c #877A3D",
"x. c #8C7A3C",
"c. c #917532",
"v. c #957B33",
"b. c #9B7D33",
"n. c #947D3B",
"m. c #9A7E3A",
"M. c #A17D27",
"N. c #A17E2C",
"B. c #A07B37",
"V. c #8B7C43",
"C. c #877C4A",
"Z. c #937E43",
"A. c #957B47",
"S. c #9A7D41",
"D. c #758451",
"F. c #578666",
"G. c #4B8A74",
"H. c #6F8E6A",
"J. c #9F802F",
"K. c #978035",
"L. c #9E8134",
"P. c #96813E",
"I. c #9C823C",
"U. c #A5822B",
"Y. c #A38334",
"T. c #A98535",
"R. c #A3853B",
"E. c #AA893A",
"W. c #AB8A3D",
"Q. c #8C8249",
"!. c #948143",
"~. c #9B8443",
"^. c #978649",
"/. c #9B854B",
"(. c #9C894D",
"). c #868354",
"_. c #948552",
"`. c #958A57",
"'. c #9C8A53",
"]. c #9C8C5A",
"[. c #9C915A",
"{. c #A18642",
"}. c #A48944",
"|. c #AB8C44",
" X c #A48749",
".X c #A48C4B",
"XX c #AB8C4B",
"oX c #B08E44",
"OX c #AD914C",
"+X c #B29249",
"@X c #A38D53",
"#X c #A68E55",
"$X c #AC9253",
"%X c #A59259",
"&X c #AC945C",
"*X c #B29653",
"=X c #B79959",
"-X c #859366",
";X c #8C966F",
":X c #9D9465",
">X c #A39363",
",X c #A99969",
"<X c #B39B63",
"1X c #B69C68",
"2X c #A99B70",
"3X c #8EA57E",
"4X c #97A57A",
"5X c #B5A16D",
"6X c #BAA269",
"7X c #A9A97A",
"8X c #B8A577",
"9X c #B3AB76",
"0X c #BCA973",
"qX c #C29C5B",
"wX c #C5A669",
"eX c #C4AB74",
"rX c #C6A979",
"tX c #C4AB7D",
"yX c #CDB37D",
"uX c #D0B274",
"iX c #A1AE85",
"pX c #BBAC85",
"aX c #ACB184",
"sX c #BEB184",
"dX c #C5AB82",
"fX c #CDB484",
"gX c #C9B68A",
"hX c #D5B987",
"jX c #D4BC8B",
"kX c #CBB491",
"lX c #D2BA96",
"zX c #C9BCA3",
"xX c #D8C18F",
"cX c #D7C192",
"vX c #E0C28D",
/* pixels */
"I 1 % % % % # % # # % # # # # % $ $ # # $ # $ # # % # % % % # 6 1 & % # $ # $ # # # # # # # % % & # % # # # # $ # # % # % $ 1 < ",
"Y 5 & & % % % % % % % % % & % & $ $ $ # $ # # # # % % % % % % 6 5 1 & % & % & & % & # & # % # & & # $ $ # # # # $ # $ # % % 5 7 ",
"I & % % # % % # % # # # % % # % # # # # # # # # # % $ % % % % 1 1 & % # # # % # # % # # # # # & # # % # # # # # # # # # % % 1 5 ",
"U & % & # % # # % % % # % % # & # # # # # # # # # # # % % % % 1 1 & % # % # $ $ % % # % # # # # $ # # # # # # # # # $ # % # 1 5 ",
"U & % % % % # # # # % # % % # & $ & $ # # # # # # % # % # % % j 1 1 % % % # % $ # % # % # % % & & # % % % % # # # # & # % # 1 5 ",
"I & % % # % # # # # # # # # # % # # % # # # # # # # # # # # % 1 & % # # # # # # # # # # # # # % # # # # # # # # # # # # % # , 5 ",
"Y 1 % & % % % # % % # # % % # & % $ # # # # # # # % # % % % % 5 5 1 % % % # % % % % % % # & $ $ $ # $ # # # # # # % % # $ % , 7 ",
"I % % % # # # # # # # # # # # % # # # # # # # # # # # # # # % < 1 % # # # # # # # # # # # # # % # # # # # # # # # # % # % % & 6 ",
"Y , $ & # # % % % # % # % # # $ & $ % # % # # # # # # # # % % 5 1 & & % $ % $ % % # # $ # % % $ $ # # # # # # # # # # # # % & < ",
"Y $ & $ # & # & # # # # # % # & # % % # $ # # # # # # # # % & 5 < & # % % # $ % # % # $ # & # # % # % # # # # # # # # # % # 5 7 ",
"U & & # # # # # # # # # # # # $ # # # # # # # # # # # # # # % 5 & & # # % # # # # # # # . % # # % # # # # # # # # # # # % # 1 < ",
"^ & $ $ # $ # & % % & # $ % % $ # & & # $ # % # # # # # # # & 6 5 & % % $ # & # % % % $ # $ $ & & # $ $ # # # % # # # # % % 1 6 ",
"I & % % # # . # # # # # # # # # % # # # # # # # # # # # # # % , & & # # # # % # # # # % # # # # % # # # # # # # # # # # # # & , ",
"^ & % & $ & % $ # % % % % * : 3 4 ; + + . O O O O . O .     O 2 * .   O O O O O O O + $ @ ; j l j j . # % $ # % # % $ $ % % , 6 ",
"U & & & # $ # % % # % # % ! eXwXuX_.:.=...,.o.<.o.,. .1.@ O @ y 4 O O U /.~ C.d ).a `.z [...0XuXwXqX- % $ & % $ % # $ $ & & , 6 ",
"^ , & $ % & # % % # $ % % ] jX0X7X5.] f R ~ ^ f R ! T ~ y t _ _ 6.3 d P ^ y d 4 d 3 R r ! T H.H.9XqX> % $ $ # # $ # $ # # % , 6 ",
"Y & & % # % # % # # # # # f fX5.f e = : = : : : r i y ^ y y y R L r y E t ~ = w * ; * * = = e i iXqX- % # % # # # # # # # # $ < ",
"U & % % # % # # # # # # # ] xX5.a x Z Z M Z Z <.3.,.G -.G J G C.3.G G N G -.J z.N S A B A B X u 3XwX- # # # # # # # # # # # & , ",
") & & % # % # % # # # # # r O.f e V D 0.D h.Q.y.h.D n.k.h.Q.k./.A.h.l.F e.0.b K.k.8.0.b 0.v o : R ' + % # # # % # # # # & % , > ",
"I & % % # # # # # # # # # 3 7Xf e Z t.j.h..Xh.a.v.h.~.^.x.:XA.].`.k.:XK g.K b F D h.r.v D v o = O.V.O # # # # # # # # # % % & , ",
"^ & & & # # # & # # # # & 3 [ r : Z s.I.m.R.a.B.~.}.R.I.b.}.I.+XXXb.n.0 q m b 9 C 9.9 8 z.D o = u ~ O # % $ # # # # % # $ % , 6 ",
"I % % # # # # # # # # # # 3 4Xp : C g.Q.g.v.z.n._.z.n.x.v.P.l.~.n.y.V.h P.J H D c 7.v 9 K B o . [ Z.. # . # # # # # # # % # & 5 ",
"^ & & & # % # # # # % # # : X.u w ;..X~.d.$X(.<X}.(.$XL.M.T.b.oXW.J.v.h D.Q.s.b c I.r.0 ).F o * y R + % % % # # # # % # % % 5 5 ",
"Y & % & # % # # # # % # % ; 4Xa w -.x.j.s. XZ.P.@Xs.L.u.9.N.d.|.I.u.t.h V J t.b ..L.j.9 K k.o * } XX+ # # # # # # # % % % % 1 5 ",
"Y % % % # # # # # # # # # 2 6.u u :.x.K.n.,X!.R.P.a.N.i.d.Y.I.5X.Xs.s.h K.F b F c t.z.0 F S g * L ~ O # # # # # . # % # # # & < ",
") & & & # & # % # # # # % 2 4XU u D.K.P.P.}./.|.Y.p.U.J.Y.W.XXhX1XT.Y.m J J 9.b C L.[.q P.r.N : } #X+ # # # # # % % % # % % 5 5 ",
"U $ % % # # # #   # # # # 2 G.L [ =.h.!./.S.n.i.p.8.i.t.J.R.%XfX1XR.m.A v v 7.7.A y.g.S K A g - y / O # # # # # # # # # # # & 5 ",
") & & $ # % # % % % # # % 2 4X^ #.;.}./.I.*XP.Y.U.J.E.R.|.6X8XxXlX1XOXB.Y.K.J.J.u.E.n.@X^.r.g 3 _ $X+ O # # # # # # # # % % 6 6 ",
"W & % % # % # # # # # # # ; F.E / =.^.>Xn..Xc.p.J.9.E.K.|.5XdXfXdXrX$XY.J.J.U.J.9.N.a.i.c.w.g ` y z O # # # # # # # # # # % 5 5 ",
"@.6 1 1 & & # , & % & $ & + 2 y P *.`.`.!.#Xv.N.K.J.<X@X5XpXpXjXtXgX5X.XOXI.9.J.u.M.s.s.m.w.n 4 * +   % & & # & % $ & & & 1 7 7 ",
"&.U I 7 6 7 5 7 6 7 7 5 7 ; ; E R >.'.#XR.XXY.T.W.W.=X5XgXzXkXxXkXlXgXtX=XOXT.W.N.T.}.Y..Xn.N { : ; @ 5 6 6 5 6 6 6 7 6 s s Y ! ",
"_ 7 6 5 & 5 , , & & 5 & , r 4 T Q ;._.'.S..Xv.Y.@X=XeX0XdXgXtXhXrXfXyXeXuX6XqX~.b.B.S.b./.f.N / s 3 @ , , , & , 1 , 5 & 5 5 s U ",
"^ 5 & & % & & % $ # % % % P P { X.4.&X$X|.*X|.+X=XeXyXeXyXlXhXvXjXhXkXrXuXeXqX$XE.|.#XXX<XS.<.| I 4 2 & % % # % # $ & % & % 6 7 ",
"Y 5 & & # & % % $ % $ % % + : L E =.'.%X~..Xs.Y.I.R.*X@X6XpXrXjXfXrXwX*XOX XR.R.p.Y.m.d.m.c.M _ , + . % # # # % % % $ # & $ 5 7 ",
"I & $ & # & # % % % & # # + ; L E =.^.'.m..XK.U.Y.J.W.R.oX1X8XjXrXdX$XoXW.b.N.B.i.J.b.b.m.w.M y ; ; . # # # # # # # # # % % & 5 ",
"Y 1 $ $ % & % % & % & % % 2 6.^ %.*.(.[.(.=XP.T.U.J.W.R.oX6X5XxXfXwX*XB.W.L.U.T.s.W.K.Y.R.a.M / P -X* # % # # % # # $ $ $ % 5 7 ",
"I & % % # # # # % # % # # 2 ;X~ Q ..l./.!.~.j.i.J.u.J.t.Y.}.#XfX0X#X{.s.N.e.u.y.e.~.x.~.V.D M : y F.; % # # # # # # # # % # & 5 ",
"Y 1 & & % & # % & # & # % 2 $.L @.>.{.~.I.|..XE.L.J.T.K.W.W.&XjXrX=X|.B.W.b.U.Y.B.T.(.XXm.y.4.< t F.& % # % # # # # % # % % , 6 ",
"I & % % # # # # # # % # % 2 3Xd y *.h.n.P.@Xz.W.K.u.J.a.d.I.~.tX=X XR.i.L.a.p.v.s.B.b.v.c.w.<.: r -X; % # # # # # # # # % # , 6 ",
"Y & & % % % # % % # # # # 2 { L r :.!.v.}.~.K.~.I.J.L.i.Y.Y.Y.<X#XE.R.d.I.u.d.R.i.#Xm.b.a.f.S - r o.; # # % # # # # % # % % & 6 ",
"Y & % % # % # % # # % # # 2 iX~ w ..>XP.K.$X%X|.{.XX|.b.Y.R.Y.*X XW.|.N.W.I.E.R.R.R.I.N.n.S.S - u 7X< # # # # # # # # # # # & 7 ",
"I % % % # # # # # # # # # ; Q y : c V.V.t.b.c.m.!.v.P.v.I.~.n.'./. XS.n.m.x.v.V.b.m.8.e.h.D M + r  .; # # # # # # # # # # # & 5 ",
"Y & & & # & % % % # & # & 3 aXz r C I.(.L.T.s.*X&X{.|.I.5X8X#XpX8X8X8X X$X'.5X XY.Y.i.N.v.e.A = y 4X< % # # # # # # % # % % 5 7 ",
"I & % % # # # # # # # . # ; [ L : x r.y.v.v.q.b.!.v.2X_.].].!.:X:X].#X].2X].,Xm.e.s.h.i.0.b v * r X.; # # # # # #   # # % # & < ",
"Y < % & # & # % $ % & # & r iXz w x d.s.u.}.n.R.b.b..X!.2X,X>XpX2XpX,X@X2X>X&Xn.a.@Xy.u.q.8.B X y 4Xk # # $ . % # # # # % % & 6 ",
"I % $ $ # % # # # % % # % r X.Q e c j.r.t.P.k.>XV.h.I.l.~./.`.>XA.>XA.A./.A.~.Q./.S.r.a.r.q.S - T } u # # % # % # # # # % % & 5 ",
"Y & $ % % & # % & # % % % u aX).a h H Z A S A G 2.3.4.-.<.-.G 4.,.<.-.-.,.-.<.Z N Z m M m m m - | 9Xf.$ % % # $ # # $ # % & , < ",
"^ 1 , , $ , $ & & $ & $ , Q cX>X~ a w w 3 r w r r r W L G.Q _ +.X.@.Y %.E d 3 : : : = : : : y p O.jXS.& & & $ & & $ & & & & 5 7 ",
"I & % $ # # # # % # # # # Q gX,XF.=.R u r u y u y u y T y 4 r ( R y 3 3 L L P s y i y i P ! #.D.;XsXA.% # $ # # # # # # # # , < ",
") 1 & & # & # & % # # # # ! gXxXcX0XG.5X$.0XX.eXX.0XQ 2Xj + + y 4 2 O ; iX2.H.C.F.[.%.&X$.,XG.yXhXyXB.& # # # $ $ # # # # # , 5 ",
"I & % % # # # # # # # # # r ] ` ` f r * 2 4 ; 2 2 2 2 ; @ . O 4 2 ; . O ; @ ; * : 2 @ 2 2 3 y d d i > % # # # # # # # # # # , , ",
"Y & & % # % # % # # # # $ # % & % % # # & # $ % $ $ $ $ % % % 6 , & % % % # % # % % # % # % % % & # % % # # # # # # # $ $ # , 5 ",
"Y & & % # % # # # # # # # # # % # # # # # # # # # % # # % % & 5 & & & % # # % # # # # # # # # % % # # # # # # # # # % # & $ & 5 ",
"Y % % % # # # # # # # # # # # & # # # # # # # # # # # # # # & 5 & & % % # # # # # # # # # #   # # # # # # # # # # # % # $ $ , 5 ",
"Y & & % # # # # # # # # # # # & # # # # # # # # # # # # # # % 5 , & # % # # % # # #   % # # # & # # # # # # # # # % % # % % 5 5 ",
"I & % # # # # # # # # # # # # % # # # # # # # # # # # # # # % , $ % # # # # # # # # # # # # # # # # # # # # # # # # # # # % & 5 ",
"^ & & $ # # # % # # # # # # # # # & # # # # # # # % # % % % & 6 , & % $ $ # % % $ $ # # # # # $ # # # # # # # & # # % % % % 1 6 ",
"U % % # # # # #   # # # # # # # # # # # # # # # # # # # # # % , & & # # # # # # # # # # # # # # . # # # # # # # # # # # # # 1 5 ",
") , & % # % # % # # # # # # # # # $ % . # # # # # % # $ % # & 6 & & & $ # # # # # # % $ # # # $ # # # # # # # # # # # # & % , 5 ",
"U & & $ # % # % # # # # # # # # # # # # # # # # # % # # # % & 6 , & % % # # # # % # # $ # # # # # # # # # # # # # # # # % % 5 5 ",
") 1 1 # # & # % # # & # # # # $ % % # # $ # % $ # # # # # # & 7 & & $ $ % # % % $ % # $ # # & & # # # # # & # # . # $ # % % < 5 ",
"_ 5 1 % & & # $ & % # % # # $ & & $ # # $ # $ $ # % % $ % & & s 5 5 $ & % % & % & $ # $ # & % & & # & # # & # # % % $ $ % & 7 6 ",
"{ 7 5 , & , & , & & , $ & & & < & , , & & & , $ & , & , , , 6 I 7 7 & , , & , % , & $ , # < & , , $ , $ & , $ , & & , $ , , 7 s ",
"&.R Y 7 6 s 6 7 7 6 s 6 7 7 7 s 6 7 7 5 s 6 s 7 6 7 5 7 7 s U ) R Y 7 7 7 6 7 6 s 6 6 s 5 7 7 7 s 5 s 6 6 s 6 7 7 6 s 6 I I ^ ^ "
};
