/* XPM */
static char *_9b5719322e94f29fe02a4a0fef7f696vENNSIEA9rbv29F1[] = {
/* columns rows colors chars-per-pixel */
"64 64 127 2 ",
"   c #253E1F",
".  c #0E2726",
"X  c #0E2B2A",
"o  c #112425",
"O  c #112827",
"+  c #112728",
"@  c #102828",
"#  c #132929",
"$  c #112A28",
"%  c #10292A",
"&  c #12292A",
"*  c #112B2B",
"=  c #122C29",
"-  c #112E2A",
";  c #112A2D",
":  c #122B2C",
">  c #122C2D",
",  c #122E2D",
"<  c #01342E",
"1  c #09312D",
"2  c #11312E",
"3  c #11312F",
"4  c #12302F",
"5  c #11382D",
"6  c #112F30",
"7  c #112E31",
"8  c #0D3030",
"9  c #043933",
"0  c #133131",
"q  c #113330",
"w  c #113432",
"e  c #123532",
"r  c #113633",
"t  c #123634",
"y  c #113835",
"u  c #123937",
"i  c #183E37",
"p  c #123A38",
"a  c #113D3A",
"s  c #123D3A",
"d  c #1A432D",
"f  c #194B2F",
"g  c #154334",
"h  c #194236",
"j  c #154C36",
"k  c #1B4D34",
"l  c #11413D",
"z  c #1B533C",
"x  c #304526",
"c  c #374C2D",
"v  c #234B39",
"b  c #314D37",
"n  c #28513F",
"m  c #36523C",
"M  c #445227",
"N  c #4D5629",
"B  c #495C37",
"V  c #505F3A",
"C  c #5D6326",
"Z  c #5E6A2C",
"A  c #6A6825",
"S  c #6A6B29",
"D  c #786A29",
"F  c #6F7032",
"G  c #727637",
"H  c #124343",
"J  c #124643",
"K  c #124845",
"L  c #124947",
"P  c #114A46",
"I  c #114C4A",
"U  c #114E4B",
"Y  c #114E4D",
"T  c #165344",
"R  c #1C5443",
"E  c #1C5A47",
"W  c #12524D",
"Q  c #11514E",
"!  c #115451",
"~  c #155951",
"^  c #155E59",
"/  c #245342",
"(  c #2C5C45",
")  c #12645E",
"_  c #22634F",
"`  c #29634F",
"'  c #36634D",
"]  c #126661",
"[  c #237571",
"{  c #2C7C75",
"}  c #4E6243",
"|  c #47644A",
" . c #45775D",
".. c #666844",
"X. c #8F7C2F",
"o. c #927829",
"O. c #8E7C3B",
"+. c #9D7F31",
"@. c #997E3B",
"#. c #807740",
"$. c #867B42",
"%. c #887F4C",
"&. c #798C69",
"*. c #9F8235",
"=. c #978038",
"-. c #9C823C",
";. c #A18233",
":. c #A3863B",
">. c #A9893E",
",. c #9D8643",
"<. c #98864A",
"1. c #9B894F",
"2. c #8B8254",
"3. c #A18641",
"4. c #A48A47",
"5. c #A88B43",
"6. c #A48A4A",
"7. c #A48D50",
"8. c #AD9255",
"9. c #AA945C",
"0. c #AE9A66",
"q. c #B6A069",
"w. c #BBA16B",
"e. c #BEA675",
"r. c #C2A877",
"t. c #CFB58B",
"y. c #CEB892",
/* pixels */
"K 6 + + o + o o o o o o o o o # # * o o + o # o o O # + o o + t 3 : + o * o # o o o o o o o + + O o # o o o o o o o o o # + , u ",
"U 6 * * + ; + + ; + * o # # + + $ o + o o o o o o O # + + + * u t , * + * o $ # # + o + o + o * * + + # o o o # o o # o + + q a ",
"J * + + o o o o + o + o o o o # o o o o o o o o o # o + o # * q : , + o o o * o o # o + o o o o o o o o o o o o o o # o + + , r ",
"K * + * o * o o + o + o + + # # o o o o o o o o o o o o # o # 6 : $ o + + o o # + + o + o o o * O o o o o o o o o o # o o + # t ",
"K > + + + * o + o o + o + + o ; # # # o . o o o o # o + o # # u 6 ; + o + o + o o # o + o + * $ # o + + o # o o o + + o * o q t ",
"H ; o + o o o o o o o o o o o # o o o o o o o o o o o o o o # , X + o o o o o o o o o o o o o o o o o o o o o o o o o o o o 3 8 ",
"Y ; ; ; + + + o + o + o + o o * o o o o o o o o o o o o + + # u t 6 + ; + o + + + + o # o + * O O o + o o o o o o O + o * + 3 a ",
"H + * o o o o o o o o o o o o # o o o o o o o o o o o o o o + 6 6 + + o o o o o o o o o o o o o o o o o o o o o o o o + + * $ r ",
"U = O O o O o # + o o o + . o * * O # o # o # o o . o o o + * t q * + + + + * + + o o O o + o * * o o o o o o o o o o o o o # u ",
"K O * O o * o * o o + o o + + O o + o o # o o o o o o o o o * r q ; o + O o o * o + o + o + o o + o o o o o o o o o o o o # 4 p ",
"P $ o * o o o o o o o o o o o o o o o o o o o o o o o o o o O 3 $ * o o o o o o o o o o o o o o + o o o o o o o o o o o o # , t ",
"Y , O O o * o $ + + + + * o o * + + + o # o o o o o o o o o O r r $ * O + o * o + + o * o + + * * o O o + o o o o o o o * O 4 u ",
"J * + + o o o o o o o o o o o o o o o o o o o o o o o o o o o 3 = + o o o o o o o o o o o o o * # o o o o o o o o o o o o o O 3 ",
"Q , + * . O o O + o + + o * o * ; o + + # # O o o * o o * o O r q # o o * o * o o o O O o + $ $ O * O o o O o * o o + * O # 3 t ",
"K * * * o * o O + o * o + + o * o * + + + o O * * $ o O . + * r 3 , * * O o * o O O o * o * o O * o # # + * o * o + o o O * 4 t ",
"Q , # * o * . o + o O o o + o * * * O o * o O o o * o O O O $ y , : O O O o * o * O o o o + + * * + + o O O o O o o * + O O 5 r ",
"U $ * + o + o + o o o o o o o o o o o o + o o o o o o o o o O r $ * o o o o o o o o o o o * o * * o + + o + o o o o o o o o o 5 ",
"K > + + o o o o o o o o o o o o o o o o o o o o o o o o o o o 3 * + o o o o o o o o o o o o o + + o o o o o o o o o o o o o $ 1 ",
"! ; $ + o + o + o o o o o o o o o O O o + o o o . o o + o . * r 3 $ o o + o o o o o o o o o o + o o + + o o o O o o o o O * r r ",
"H # * + o o o o o o o o o o o o o o o o o o o o o o o o o o o 3 $ > o o o o o o o o o o o o o + o o o o o o o o o o o o O O O 3 ",
"Q : * * o o o * o o o o o o o * o o o o o o o o o o o o o * * a > , * * o o o o o o o o o o o + o o o o o O o o o o + o * * 3 r ",
"K + + o o o o o o o o o o o o + o o o o o o o o o . o o o o o 3 $ 3 o o o o o o o o o o o o o o o o o o o o o o o o + o o o : q ",
"Y * + * # # o o o o o o o + o # o o o o o o o o o + o + + o > a # * + + o o o o o o o o o o # O o o o o o o o o o o + o o + 1 u ",
"U * + o o O o o o o o o o o o * o o o o O o o o o o o * o + $ 8 $ * + + o o o o o o o o o o o O o o o o o o o o o o + o + # : u ",
"K * . + o o o o o o o o o o o o o o o o o o o o o o o o . o o r = , o o o o o o o o o o o o o o o o o o o o o o o o + o o o $ 3 ",
"! , * + + + o o o o + o + o o o o o o o + o o o o o o O . * . X X * . O 3 O o o o o o # o o o o o o . o o o o o o o + o + + r t ",
"J O * o o o o o o o o o o o o o o o o o o o o o o o n ( g j R / ( z i d j ..o o o o o O o o o o o o o o o o o o o o o o o o # q ",
"! : * O o * o o o o o o + + + * o o o o o o + O o O h f =.=.-.1.<.G A C   b * o O O o # o o o o o o o o o o o + o o + o * $ u u ",
"Q $ $ * o + o . o o o o o o o # o o * o + o + + o o i z -.6.;.;.*.G S Z x v o o # + o o o + o * o o o o o o o o o o o o o + e e ",
"] u 3 > * X * > + + = O = * O 3 O * > $ # o = * $ $ i ` ,.*.;.q.w.X.o.O.c m * * , = o * + , + > . o * * * * o * o . * * : , a p ",
"[ K K a t a 8 a r u a r u s t l r a a u p r a p y a 9 ` 6.5.w.y.t.w.5.3.} < a u s u t s r p u a a u a r t a r a p t l u l l U T ",
"^ a u r $ q 3 3 q # 1 * 3 $ = t $ 3 $ X q * ; , 3 3 1 _ 6.:.5.e.r.5.;.;.B 5 ; * 3 = = 3 * 3 > 3 q * 3 1 , 1 : r X > 8 $ u 8 l K ",
"Q q $ $ + * + + * o # o * + + , O * * o + . + o + + p E ,.3.+.5.8.+.@.@.V / * O o * o o o > * ; * + O + + + o + + o * o > + r p ",
"U q > O o * + + o # # o + + o ; o + + o + o + o + > h k ,.4.3.9.0.6.,.+.N | + + o o o * + + + + # o # + o o o + + + O o $ * q a ",
"K > * O o * + + + o O o + + o o * o o o + o o o o o g k o...$.%.2.%.O.D M ' X o # + o o o + o + o o o + o o o o o o o o + + > t ",
"U > + O + * + + # # * + + + # # + O o o + o o o * + / &.T ( T 9 9 E T /  .2.* + * # o * . + + * * o * o o + o o o o * O * + q p ",
"H + + + o o o o + o o o o o o O o o o o o o o o o o o o o o o 3 ; + + o + o + o o + o o o . o o o o o o o o o o o o o o + . * 3 ",
"Y q * ; o ; o + ; o # o + + o # * + + o o o o o o o o * o o * t 6 6 + + X + + + # # o + o + * $ $ o + + o + o # o o + o + + 3 u ",
"K * + + o o o o o o * o + + o O o o o o . o o o o o o o o o O r 6 X + o o o + + # o o + o . o O # o o o o o o o o o o o + o 3 r ",
"K * + * + + o o # o # o O * o O o o o o o o o o o o o o * o o r 6 ; + + + o + + o + o o o o o o + o o o o o o o o o + o + + $ u ",
"L 6 + + o + o + + o + o o + o O + + o o o o o o o o o o o o O y t * . + + o + + # # o # o o o + o o o o o o o o o o o o o o + p ",
"H * o # o o o o o o o o o o o + o + o o o o o o o o o o o o O 3 ; * o o o o + o o o o o o o o o o o o o o o o o o o o o o o * t ",
"Y > # ; o * + + o o o o + o o * * * # o o o o o o o o o o o o 3 3 * + + o # * o # # # O o # # O + + o o o o o o o o o o + * 3 a ",
"H # # o o o o o o o o o o o o o o o o o o o o o o o o o o o o 3 3 + o o o o o o o o o o o o o o o o o o o o o o o o o o + O O t ",
"U , $ # o * o # o + * o + o o * o # # o o o # o o + o o o + o r 3 * + o O . + + o # o * o # * + + o + o o o o o o o o o # + 3 t ",
"K * # $ o + o o * o + o o o o + o # o o o o # o o o o o o o * 5 $ O o + o o * o o o o + o # o # # o # o o o o o o o o o o o = 4 ",
"K > $ # o # o # o o o o + . o * # # # # # o o o o + o * o o O 3 $ : # # O o $ o # # o + o * # # + # + + o * o o o o O o + + 3 5 ",
"Q q $ 3 O , # * * * > O * * O , * * # # : # , # * , o $ * O 3 a r q = , $ $ $ > * * + * o $ * , , # $ O * * O * * * = O * 2 u u ",
"K * # + o o o + o o o o o o o o o . . o . o o o o # o o o o o 3 3 # o O o o o o o o o o o o o + # # # o o o o o o o o o O o $ 5 ",
"! 6 * * o * o + * o o o o O o O o o o o * o # o o * o o * o O y 3 > O * O o * o o o o o o + + * * O + + # o o # o o o o O O e 5 ",
"K $ + o o o o + o o o o o o o O o o o o o o o o o o o o o o + q * O o o o o o o o o o o o o o O # o # o o o o o o o o o o o = 3 ",
"Y # + + o + o o o o o o O o o O o o o o o o + o o O o o + + * u = , o o o o o o o o o o o o o o + o + o o o o o o o o o $ o 3 t ",
"K > * + o + o o o o o o o o o # o o o o o o o o o o o o o # * q , : + + o o o o o o o o o o o o o o o o o o o o o o + o > + $ 3 ",
"L $ + + o o o o o o o o o o o * o o o o o o o o o o o o o o + t # , o o o o o o o o o o o o o o o o o o o o o o o o + o # o , r ",
"Q * * + o . o o o o o o o o o O o o o o o o o o o # o o o o # t , * + + o o o o o o o o o o o O o o o o o o o o # o + o + + q u ",
"K + o o o o o o o o o o o o + # o o o o o o o o o o o o o o # , * + o o o o o o o o o o o o o o o o o o o o o o o o o o o + , q ",
"Q * * + o + o + o o o o o o o o o O o o O o o o o + o * + o $ u > , o O * o o + o O + o o o o O o o . o o o o o o o + + # # 6 u ",
"K + + o o o o o o o o o o o o o o o o o o o o o o o o o o o * 3 O * o o o o o o o o o o o o o o o o o o o o o o o o o o o o # , ",
"Q $ O O o + o o o o o o o o o o o o o o o o o o o o o + + + * u $ * + * o o o o o + o * o o o O o o o o o o o o o o o o + # t t ",
"Q $ * + o + o + o o o o o o o o o o o o o o o o o + o o + o # u , , + o o o o o o o o O o o o o o o o o o o o * o o o o + # 6 r ",
"! > X + o * o * O o $ o o o o o + o o o # o o * o + . o + o $ p 3 : o + + o + + * o o O o + + ; o o o o o o o o o o O o + * 3 q ",
"^ q > $ o * o O # O o o o o o O * * + o # o O O o + o o + o > l q , O * + + X + $ $ o * . + + ; . o O . * $ o o o o O o + * a u ",
") p t q 4 3 * 1 * $ 3 $ 3 = # 5 $ q = $ $ * 1 = $ 3 * 3 1 r 8 J u p q q > $ > $ 3 $ O 3 O 3 $ 5 3 $ 3 O $ 3 $ 1 = = 3 3 3 r l l ",
"{ U Y a u a u l u u l u a u u l u a a u a t s a u a t a a l T ~ K Q a l a p a t l u r l r a a a a r a y u a u a u u l p l l W W "
};
