/* XPM */
static char *d08d4da350834f6eac0723f17ebaf9d1ws5jvwSVyDV8uFq7[] = {
/* columns rows colors chars-per-pixel */
"64 64 98 2 ",
"   c #112425",
".  c #112827",
"X  c #112728",
"o  c #102828",
"O  c #102829",
"+  c #122828",
"@  c #132829",
"#  c #112A28",
"$  c #102A29",
"%  c #132A28",
"&  c #10282A",
"*  c #13292A",
"=  c #12282B",
"-  c #13292B",
";  c #112B2A",
":  c #112C29",
">  c #102C2B",
",  c #132C2A",
"<  c #112E2A",
"1  c #112A2C",
"2  c #112A2D",
"3  c #122C2C",
"4  c #102F2D",
"5  c #112E2E",
"6  c #10302D",
"7  c #10312D",
"8  c #11322F",
"9  c #12322F",
"0  c #112D30",
"q  c #112F30",
"w  c #112F31",
"e  c #0D3631",
"r  c #0C3D36",
"t  c #0E3E38",
"y  c #113130",
"u  c #133130",
"i  c #123132",
"p  c #113431",
"a  c #123533",
"s  c #103732",
"d  c #113735",
"f  c #133834",
"g  c #113837",
"h  c #123937",
"j  c #123A37",
"k  c #123C37",
"l  c #183830",
"z  c #123938",
"x  c #123C39",
"c  c #113C3A",
"v  c #113D3A",
"b  c #11413D",
"n  c #1B4539",
"m  c #1A483B",
"M  c #314F2E",
"N  c #38532E",
"B  c #2B4236",
"V  c #3C5A34",
"C  c #365739",
"Z  c #3A5B3A",
"A  c #7C702B",
"S  c #7C7539",
"D  c #124342",
"F  c #114643",
"G  c #134745",
"H  c #124845",
"J  c #114946",
"K  c #114A46",
"L  c #114A48",
"P  c #114D4A",
"I  c #114E4B",
"U  c #124D4D",
"Y  c #114E4D",
"T  c #12514D",
"R  c #12524D",
"E  c #11514F",
"W  c #115451",
"Q  c #155951",
"!  c #155E59",
"~  c #395845",
"^  c #3B5C49",
"/  c #12645E",
"(  c #126661",
")  c #237571",
"_  c #2C7C75",
"`  c #406849",
"'  c #977E32",
"]  c #9B833D",
"[  c #A1853B",
"{  c #A5883D",
"}  c #988343",
"|  c #A18741",
" . c #A28B49",
".. c #AF914D",
"X. c #A68F55",
"o. c #A39058",
"O. c #B19759",
"+. c #B1995E",
/* pixels */
"G w X X   X     X             X   ;                   -     - p u 5   ; -             X       @ .   X                   -   8 h ",
"I w ; ;   2 & X X X ;   - - X ; @ @ X   X       -     . X - , g d 5 ,   ; X - - ; X   X   X X ; ; X - X             -   - ; y h ",
"F 2 X X     X X X   X     X   -                   +   - -   - a 5 ;         ;         X       X .                   -   X X 5 f ",
"H ;   ;         X X X     X   -         .             .       u 5 ; X   ;       X X   X       X                           X 5 p ",
"H 5 X X X X         ;     X   - ; ;               -   ;   X @ d w 2 X X -   X X   X   X   . . X -   ;   X X     X   ;   ;   8 d ",
"D ; X X                   X                                 @ 3 2                         X                                 , y ",
"U 2 2 2 X ; X   X X     X X X , X X                     X X - h d 2 X 3 X   X X X X   X   ; X ; .                 X ; X ; X p v ",
"D X   X                       X                             X w w X                           X                             , g ",
"I ; ; X     X X X       X     ; X X X                       , p 5 , ; X .   ;   X X X X       & &                           ; g ",
"H ; ; .   ;   X X         X   ;   . X   X                 ; & p p ; X X .   X     X   X       X X                           9 x ",
"H ; . .                           X                         X 8 7 ;     .                     X                             3 a ",
"U 5 . .   ;   ; X X X     -   ; . X       ; X               , p 8 , X   ;   ;   ;     X   . X ; ;   .   . .             - - u h ",
"F ,                               X                           8 ;                             X X                           X 9 ",
"E 5 & ; . &   .     ;   . .   2 X ; X X X ; >     ;     . X X e 5 ; . . .     ; . . X ;     ; 2 ; X X     &   X   . .   ; X 8 f ",
"H & , & . &     X   .   . ; . ; ; X X ; X   , . . &   . .   5 y y 5 X   ;     . .     ;   X   X ; X X X   ;   . . . . . + + 9 a ",
"E 4 , >   &   & &   .   .     ;   ; ;       .   . &   & X X ; d 5 5 . ; @   ;   . .   X   ; . ; ; X ; X . ; .   .   % . . - 9 p ",
"T & X X   X   X                                             ; e , ,                         X + X   X X   X                 , e ",
"H , X X                                 ;                   ; e , +                           X X                           , > ",
"E ; ; X   X   X                   ;     X             .       e , e         .                 ;     X X                 & . 7 e ",
"F ; X X                                                       7 ; ;                           X                         . . : 7 ",
"U ; ; ;       X               ;                   .   . X X ; z 5 5 X X                       + X         .         X X & . 8 e ",
"G X X                         X                           X X 8 ; ;   X                       X                         .   5 8 ",
"W X ; X X     X         X X                           ;     ; g 5 ; X X                       -                     X   X X e d ",
"P ; ; X   ;         X         ;                           ; X d 5 ;   X                                             X   X X w d ",
"P ; & X                                                       p ; ;                                                 X       ; y ",
"U 5 ; X X ;             X                               X X . d 5 ; ; X ; X X                 .                     X     X y d ",
"H . X                         X                             X 8 ; 2                                                         5 y ",
"W 4 ; . . X             X     ;         ;   X           X X , z 5 5 X X @       . ;   -       X               X         ; - h h ",
"E , ; X   X                   X             X             B l e 8 8 B   X   X               X X                             y p ",
"( e y 5 ; ; ; 5 X X ; ; ; ; ; 8 ,   ; X 5   , ; X X X 5 ; V ] } S A M ; ; - ; X 8 , . ; X ; ; 5 X   > X ; ;   ; ;   , , , 5 v v ",
") H H v d v e v d z t y r g g b e v z d z p v g e v g v g ` [ +. .' C v g g v d g g g v p v z v v d r r r t p z g p v e b b E I ",
"! t g p , 8 5 5 5 ; 8 ; 5 , , p 8 8 5 5 y , 5 5 8 8 ; 8 8 ` { O...] Z 8 8 ; w ; 8 ; ; 8 , y w 5 y ; w 5 , 8 5 7 5 5 8 7 f 9 b H ",
"E e 5 , ; ,   X X   ; X X ; X 2 ; & &   ;         +   ; ; Z | o.X.' N - , + % .   X X X     = 2 ; X ; X X X   X   X ; X ; X y b ",
"H w ; , X ,   X X X X   X X   ; X   .   .         -   X   ^ m v r n ~ - ,   + . X     ; . . ; X 2   X         X   X ;   ; X y v ",
"H 2   .   X X X ;   ;   X X X X X                       X   ; y 5 5 X     . ,   X X   X             X                   X X 5 d ",
"I 5 ; . X ; X X - X ,   X X   ; & . .   &   X   . -   ; ;   ; g p , ; X , - - - ; ;   ,   ; ; ; ; X X   X     X     ; . - ; y g ",
"D X X X         X             X                               y 2 X     X       X X             X                           , e ",
"U 5 ; ; X 2   X ;   @ X X X   ; X ; X   ;         -   .   X X p w 0 ; X ; X -   X X X X   . + ; ;   X X   X         X   X   8 g ",
"G 2 X X             X   X X   ;                             , p w ; X       X         .       . X                       X   5 g ",
"P 2 X ; X -     X         X   X                         X   X y y ; X X X   ; X       .   .                   X     X   X   8 p ",
"G 2 ; ;   X   X               > X X                         ; e y ;   X ;   ;     X   -       -                             X g ",
"D ;                           . X X                           8 y ;             X                                           - p ",
"U 5 ; ;   X X X     .   X .   X X X X                         e 8 ; X X ;   ,     @   -   X X . .                         - u v ",
"G X       X                                                   7 8 X                           .                         ; ; , p ",
"T ; ; -   X X   X X ,   ;     ; X - -       ;               + p 5 ; -   ;   X   - - X ; X     - ;   X     X             X X 5 f ",
"G - X     X     X   &         ,   ;                         . 8 ; ;                           - X   X                       , p ",
"G % , ;   @   X X   .         , X X     -   ;     ;   .     + p , 2 X - .   +       X ;   -   - ;   X X . ;   .     .   . + 8 8 ",
"E 8 , 8 - 8 ; , 5 & &   ; , - , , - , - , - - @ > , . , , + 8 v p 8 ; ; 8 . , ; 5 - ; ; X , , 8 5 & , X & & . , , . , . , , g g ",
"H ; X ;   X     X                           .     X         X 9 ; ;                             ; X                         , 7 ",
"R y ; ;   X   X X   ;         .     . . .   X     X   X X   . g 8 5   X ;   .             . . ; ; X - ; + -   + ,           7 9 ",
"G ; X X                       .                             ; 8 ; ;                           .     X                       7 7 ",
"I ; X X       ;         .     ;         &   .     ;     ; . X g 5 ; X X X   .                 . X   @               +   . . 7 f ",
"P ; X X   X                   ;                           X ; y 5 - X X                         -                     X ;   8 8 ",
"G   X &   X                                               X X d ; ;   X                                             -     . , p ",
"E ; ; X                       ;                             X d ; ; X X                       -                         X   y g ",
"G X                                                           y ; X                                                 X       5 u ",
"W , & X       X                 .   .             X     X X , g 8 2 X @     ,     .           .               .     X X X - l g ",
"K X X                                                       X 8 ; ;                                                         - 3 ",
"E > & ;   &                                           ; X X ; d ; ;   ;         .     ;       .                       X ; X d d ",
"I & X X   &   .                                   X   X     ; p 5 ; X                                         .         X - y u ",
"W 5 ; X   ;   . .   .           X X           X   X         ; g 5 5   . X   X X ; X   ;   X X ;           X             X X p p ",
"! e 5 X & ,   . .   .       . ; > X     X X . ;   X   .   ; 8 b 5 5 ; ; X X ;     ;   X   X X ,     ;   X .         . ; X ; d v ",
"/ g p 8 , 7 ; 8 ; 5 8 . 9 , + 9 , 7 7 , 5 ; 8 , ; 8 ; 8 7 7 f F d v y y 5 , w ; 8 , ; 7 ; 8 5 y 4 , 5 . , 8 ; 5 , , 8 . 9 9 b b ",
"_ I I v g b 9 b g g b g v k k b g v z p b p t z d v d v b b H Q H E v v v d v d v v e b p z g v t r b e d v r v g r b g F b T Q "
};
