/* XPM */
static char *_fad53ebf90f4312e2ca42b74e3ebb23Dq3xgL2y5bzKJoQL[] = {
/* columns rows colors chars-per-pixel */
"64 64 201 2 ",
"   c #08231F",
".  c #1A351A",
"X  c #1B391C",
"o  c #032622",
"O  c #092422",
"+  c #032A26",
"@  c #082A26",
"#  c #082D2A",
"$  c #112425",
"%  c #112827",
"&  c #112728",
"*  c #122928",
"=  c #122829",
"-  c #112A29",
";  c #122A29",
":  c #11292A",
">  c #12292A",
",  c #112A2A",
"<  c #112C2A",
"1  c #112B2C",
"2  c #112D2D",
"3  c #023427",
"4  c #03332B",
"5  c #09342E",
"6  c #013C2E",
"7  c #11312E",
"8  c #1B372D",
"9  c #112E30",
"0  c #013630",
"q  c #013B32",
"w  c #0A3B34",
"e  c #113231",
"r  c #113432",
"t  c #113532",
"y  c #113734",
"u  c #113936",
"i  c #113C3A",
"p  c #01422F",
"a  c #024233",
"s  c #094335",
"d  c #0D4835",
"f  c #02443A",
"g  c #034A3E",
"h  c #0B4C3B",
"j  c #11413D",
"k  c #154B38",
"l  c #1D523A",
"z  c #2A4B27",
"x  c #334727",
"c  c #375325",
"v  c #3E5F2B",
"b  c #284C37",
"n  c #3E5339",
"m  c #3E6939",
"M  c #695F18",
"N  c #72631D",
"B  c #4D4F23",
"V  c #43512E",
"C  c #535122",
"Z  c #53562F",
"A  c #5D5F2C",
"S  c #4C5636",
"D  c #575E3B",
"F  c #5A662B",
"G  c #4A6034",
"H  c #596531",
"J  c #57673A",
"K  c #56703A",
"L  c #6B6122",
"P  c #63642A",
"I  c #6B652B",
"U  c #796A26",
"Y  c #736A2A",
"T  c #7B6E2B",
"R  c #676A39",
"E  c #746C35",
"W  c #7A6F39",
"Q  c #767336",
"!  c #7E733C",
"~  c #094A41",
"^  c #114543",
"/  c #114B45",
"(  c #124846",
")  c #114D4A",
"_  c #0B5546",
"`  c #0A5249",
"'  c #07584F",
"]  c #0D594E",
"[  c #155243",
"{  c #1F5543",
"}  c #11524D",
"|  c #1B5C4E",
" . c #115451",
".. c #145C53",
"X. c #195E51",
"o. c #155E59",
"O. c #215442",
"+. c #2F5E49",
"@. c #3A5841",
"#. c #12645E",
"$. c #20664D",
"%. c #38694E",
"&. c #286856",
"*. c #336A54",
"=. c #166861",
"-. c #287973",
";. c #435D43",
":. c #43694F",
">. c #586B46",
",. c #556A4B",
"<. c #5C734A",
"1. c #446E52",
"2. c #4F7458",
"3. c #5C7C5B",
"4. c #696E45",
"5. c #636E49",
"6. c #6A7447",
"7. c #65754B",
"8. c #787849",
"9. c #647952",
"0. c #697A56",
"q. c #6A7E5B",
"w. c #757D55",
"e. c #896C1D",
"r. c #856E22",
"t. c #866F2A",
"y. c #8D7224",
"u. c #847229",
"i. c #8B752A",
"p. c #947524",
"a. c #9A7626",
"s. c #9A7925",
"d. c #92752B",
"f. c #987729",
"g. c #96782C",
"h. c #9B7B2B",
"j. c #847334",
"k. c #8D7632",
"l. c #8D7835",
"z. c #86793C",
"x. c #8D7B3B",
"c. c #937733",
"v. c #947A34",
"b. c #9B7D33",
"n. c #957B3B",
"m. c #9A7D3B",
"M. c #A17F33",
"N. c #887B44",
"B. c #947743",
"V. c #957F41",
"C. c #4B8569",
"Z. c #68896A",
"A. c #9B8039",
"S. c #9B823C",
"D. c #A3812E",
"F. c #A18234",
"G. c #A3843C",
"H. c #A8883C",
"J. c #8F8047",
"K. c #958244",
"L. c #9C8342",
"P. c #96844A",
"I. c #9B854B",
"U. c #9C894D",
"Y. c #888556",
"T. c #998653",
"R. c #9B8C59",
"E. c #A28643",
"W. c #AA8B43",
"Q. c #A3864B",
"!. c #A58B4C",
"~. c #B0914A",
"^. c #A28E53",
"/. c #A58E58",
"(. c #AB9051",
"). c #A8935B",
"_. c #B49857",
"`. c #808B62",
"'. c #859B76",
"]. c #8B9C75",
"[. c #919D73",
"{. c #A69463",
"}. c #AD9C6D",
"|. c #B29B64",
" X c #B49D66",
".X c #A89B72",
"XX c #8FA17B",
"oX c #B3A26C",
"OX c #BAA46D",
"+X c #A2A475",
"@X c #BDA575",
"#X c #B6A779",
"$X c #C8AA6D",
"%X c #C2AB7A",
"&X c #C5AE86",
"*X c #C7AF87",
"=X c #C9B587",
"-X c #CCB585",
";X c #D2B987",
":X c #D4BA89",
">X c #C8B493",
/* pixels */
"( 9 & & $ 1 $ $ $ $ $ $ $ $ $ > % $ $ > * $ * $ $ $ $ * $ $ & u 9 > * $ * $ * $ $ $ $ $ $ $ & $ > $ , $ $ * $ $ $ $ & $ * $ 2 u ",
") 9 , < $ & $ & 1 & 1 $ & & & > % > > $ $ $ $ $ * * $ $ = > > u y 9 * > 2 $ > * * * $ * $ * $ , * $ * > $ $ $ * $ $ > $ > & 8 i ",
"^ , & & $ & & $ & $ & $ $ & $ & $ $ $ $ $ $ $ $ $ * $ > $ $ > 8 2 > & $ $ $ * $ = $ $ $ $ & $ & % $ $ $ $ $ $ $ $ $ & $ & $ > u ",
"( , & , $ , $ $ & & & $ $ & $ > $ $ $ $ $ $ $ $ $ $ $ > & $ & 9 2 > & $ & $ > $ > $ $ $ $ $ $ & % $ $ $ $ $ $ $ $ $ $ $ & $ 2 y ",
"( 2 & & & & $ $ $ $ & $ & & $ > > * % $ , $ $ $ $ * $ , $ & > u 9 1 & & > $ & $ $ & $ > $ , $ , * $ $ & $ & $ $ $ & & $ & $ 2 u ",
"^ , & & $ $ $ $ $ $ $ $ $ $ $ > $ $ $ $ $ $ $ $ $ $ $ $ $ $ = 2 9 & $ $ $ $ $ $ $ $ $ $ $ $ $ $ $ $ $ $ $ $ $ $ $ $ $ $ & $ < t ",
") 1 1 , & & $ $ & & & $ & & $ > $ $ $ $ $ $ $ $ $ $ $ $ $ & > u t 1 > & > $ & & & & $ & $ & , % * $ & $ $ $ $ $ $ > & $ 1 & t i ",
"j , & & $ $ $ $ $ $ $ $ $ $ $ > $ $ $ $ $ $ $ $ $ $ $ $ $ $ > 9 9 & $ $ $ $ $ $ $ $ $ $ $ $ $ & $ $ $ $ $ $ $ $ $ $ $ $ & $ < y ",
") < < , $ * $ > & $ $ $ & & $ , & $ $ $ $ $ $ $ $ $ $ $ O , , t r , & & , $ , > $ $ $ , $ & $ , % $ $ $ $ $ $ $ $ $ $ $ $ & > u ",
"( < $ % $ > $ $ & $ & $ $ & $ % $ & , $ * > $ $ $ $ $ $ $ $ , t r , $ & & $ $ $ $ , $ , $ & $ $ $ $ $ $ $ $ $ $ $ $ $ $ $ $ 7 i ",
"( < ; $ $ % $ $ $ $ $ $ $ $ $ $ $ & $ $ $ $ $ $ $ $ $ $ $ $ , 7 < , $ $ $ $ $ $ $ $ $ $ $ $ $ $ $ $ $ $ $ $ $ $ $ $ $ $ $ $ 2 y ",
") 2 % ; $ * $ % & & & $ % ; $ > & & & $ $ $ $ $ $ $ $ $ $ $ , t r < , $ & & % $ & & $ & $ & = < > $ , $ > $ $ $ $ $ $ $ > = r u ",
"^ , & & $ $ $ $ $ $ $ $ $ $ $ $ $ $ $ $ $ $ $ $ $ $ $ $ $ $ $ 7 , $ $ $ $ $ $ $ $ $ $ $ $ $ $ $ % $ $ $ $ $ $ $ $ $ O $ $ $ > t ",
"} 2 , & $ < $ % & $ & & & & $ , , & & & % $ $ , $ % , $ $ $ < t 2 < $ % < $ , $ $ & , * * $ , * 2 , $ $ $ < $ $ $ > $ $ $ $ 7 u ",
"( 2 , , $ , $ , $ $ & $ , , $ , & , % % % $ , $ , , $ % , $ < t 7 2 & $ $ $ , $ O % $ % $ > % , > $ > & & % $ , $ , , $ , , 7 u ",
"} 2 * , O , $ $ , $ , $ $ O $ , , > , $ < $ % $ $ $ $ , $ % , u 7 2 , , < $ $ , , $ $ % $ $ , % , & , & & , $ $ $ $ % $ , $ 8 u ",
") , & , $ & $ & $ $ $ $ $ $ $ $ $ $ $ $ * $ $ $ $ $ $ $ $ $ , 7 7 1 $ $ $ $ & $ $ $ $ $ $ & $ > > > $ & $ $ $ $ $ $ $ $ $ $ , t ",
"( , & & $ & $ $ $ $ $ $ $ $ $ $ $ $ $ $ $ $ $ $ $ $ $ $ $ $ & 7 & $ $ $ $ $ $ $ $ $ $ $ $ & $ , $ $ & $ $ $ $ $ $ $ $ $ $ $ < 7 ",
"} 2 & , $ & $ & $ $ $ $ $ $ $ $ $ > $ $ $ $ $ * $ & $ , $ $ , w 7 2 $ $ & $ & $ $ $ $ $ $ $ $ > $ $ & & $ $ $ $ $ $ $ $ ; % 7 t ",
"^ * & $ $ $ $ $ $ $ $ $ $   $ $ $ $ $ $ $ $ $ $ $ $ $ O $ $ $ 7 , , $ $ $ $ $ $ $ $ $ $   $ $ $ $ $ $ $ $ $ $ $ $ O $ $ % % ; 7 ",
"} 1 , > $ $ $ , $ $ $ $ $ $ $ , $ $ $ $ $ $ * $ & & $ & & & # u 7 1 , & @ & & & $ $ $ $ $ % $ > $ $ $ $ $ , $ $ $ & & $ ; ; 7 u ",
"( > $ & $ $ $ $ $ $ $ $ $ $ $ , $ $ $ 5  XOX<.,.1.l b 5.:.5 + g q + 2.O.V 7.%.O.4. X$XB.  $ $ O $ $ $ $ $ $ $ $ $ $ $ $ $ $ # 7 ",
") 1 > < $ % $ $ $ $ $ $ $ , $ $ $ % , w -X%.k q 4 6 q f ` g ~ ' } ` ..s 6 3 4 3 4 d C.Q.@ % $ , $ $ $ $ $ $ $ $ $ $ & & $ $ 7 u ",
") , $ * $ $ $ $ $ $ $ $ $ $ $ & $ % O w XXk J I I W 8.E E W ! K.N.W E E 8.E I L L X $.5.  $ $ & $ $ $ $ $ $ $ $ $ $ & $ % , 9 t ",
") , & O $ $ $ $ $ $ $ $ $ $ $ $ $ $ $ 5 [.p R u.x.x.i.v.S.S.R.R.U.R.Q Q T Y T L N . h D O O $ $ $ $ $ $ $ $ $ $ $ $ $ $ $ $ 2 7 ",
" .1 > & $ & $ & $ $ $ $ & $ $ & $ % $ 5 Z.p H z.l.v.x.U.h.A.K.U.S.z.K Y F S M z U . s D O $ $ & O $ $ $ $ $ $ $ $ $ & $ , $ r y ",
"^ % , & $ & $ & $ $ $ $ $ $ $ & $ $ $ @ &.p 7.n.v.U.P.S.A.h.D.W.G.i.m 7.Y m Q c W . q b O $ $ $ $ $ $ $ $ $ $ $ $ $ $ $ $ $ 2 r ",
" .< , , $ & $ & $ $ $ $ & $ & , $ , $ @ &.f 7.j.x.P.n.g.p.h.A.}.E.i.K T U v A.c U x q l   % & & $ $ $ $ $ $ $ $ $ $ $ $ > > y y ",
"} < $ & $ & $ $ $ $ $ $ $ $ $ % $ $ $ # Z._ 7.n.I.S.g.s.h.F.W.:X|.A.F F T F A.F t.b q ;.O $ & & $ $ $ $ $ & $ $ $ $ $ $ $ $ t r ",
"=.u t 2 , , , 2 & & < , > , , < , , 1 # ].' <.V.n.S.p.s.F.H.oX;X=XU.D.i.y.e.i.A.t.x s 4.O 2 & 9 , & , & , 2 $ # & & # , < 2 i i ",
"-.^ ^ i u i t i y u i t i u u j t i u 5 0 ` <.Y.K.v.s.A.(. X>X:X>XOX(.H.g.p.D.i.c.x d o @ i u i i t i u u u y u y y i y j j } [ ",
"o.i w t , t # 2 < < 7 < 7 < < t < t 2 w f ] q.{.Q.G.G._.OX-X>X:X=X%XOX|.!.A.A.A.V.S [ q # 7 7 2 r , t , < 9 < r 2 1 t < y t j ^ ",
"} t * < % , , & > $ > & > & & 2 & # & 5 a ] 9.T.L.F.A.(._.OX*X:X-X%X|.^.S.h.b.n.c.S ( 3 + , 1 1 , & , & $ > $ < & & , & , & t j ",
") 2 * , $ , $ & * $ & & $ & $ > & & & @ q ] <.P.S.F.h.D.H.~.@X;X*X_.H.F.b.a.F.m.c.V s 5 O $ & & 1 $ , $ $ $ $ $ $ & , $ , & t i ",
"( 2 & , $ > & & * $ > $ $ = $ & $ & & + '...<.J.K.S.s.h.h.G.(.-X@XE.b.g.y.d.n.n.d.V a 0.O & $ & & $ $ $ $ $ $ $ $ $ $ $ & & 1 t ",
") 2 , < $ , & & > , > $ * > = < & 1 # + Z.h <.l.K.S.v.h.h.F.H.%X|.A.b.g.p.b.b.b.f.J q w.O & & 1 , $ & $ & $ $ & & $ , $ , & t u ",
"^ & & & $ & $ $ = $ $ $ $ $ $ * $ $ $ # &.a 9.l.L.S.S.A.b.F.F.).!.A.b.d.n.f.E.f.k.Z 6 1.O $ $ $ & $ $ $ $ $ $ $ $ $ $ $ $ & < 7 ",
") r , , & > $ & > $ > $ > & $ * & , $ # &.p >.N.i.m.L.S.A.E.E.^.^.I.m.B.c.S.p.y.v.B 6 %.+ > $ , , $ & & $ $ $ $ $ $ $ $ $ $ t u ",
"^ , & & $ $ $ $ & $ & $ , & $ * $ & $ # Z.p J k.b.h.L.S.(.^.).}.}.)./.R.Q.h.p.a.y.C 6 3.@ $ $ % & $ $ $ $ $ $ $ $ $ $ $ & & 2 u ",
"( 1 & & $ & $ & & $ $ $ $ $ $ * $ & & # '.a J r.r.K.v.v.K.^.R..X{./.T.T.n.c.c.e.e.C 6 `.@ , $ , $ $ & $ $ $ $ $ $ $ & $ & $ 7 t ",
") 1 * > $ & $ & & $ & $ $ $ $ < $ > & t '.l G P P R R 8.w.6.4.w.7.5.>.4.R R F A A c h +X7 % % % $ $ $ $ $ $ $ $ $ $ $ $ $ $ & u ",
"^ & $ > $ $ $ $ $ $ $ $ $ $ $ $ $ % $ w =X1.l a 6 q p a g ..X.=.| ( h s 6 6 q 6 q _ *.-X8 $ $ $ $ $ $ $ $ $ $ $ $ $ $ $ $ $ , t ",
") 2 & > $ > & & $ $ $ $ > $ $ > % > $ w #X*XY.q.*.+.,.q.$.b   q q o ^ @.,.| { >.2.C.}.{.8 $ * * & $ $ $ $ $ $ & $ $ $ $ > % r u ",
"^ > & $ $ $ $ $ $ $ $ $ $ $ $ $ $ $ $ $ O $ O O $ $ O $ $ $ $ 7 2 & $ O $ $ $ $ O $ $ = $ $ $ $ $ $ $ $ $ $ $ $ $ $ $ $ & $ 2 t ",
") < * * $ > $ $ & & ,   & & $ * * = * $ & $ $ $ $ $ $ $ $ $ % u 7 , , , % $ & $ > > & > $ > $ * > $ & $ $ % $ $ $ $ $ $ $ $ 7 u ",
"( * * * $ & $ $ & $ $ $ $ $ $ * $ * $ $ & $ & & $ $ $ $ $ $ % 7 < , $ $ $ $ & $ , $ $ $ $ $ $ > & $ $ $ $ $ $ $ $ $ $ $ $ & < t ",
") < % * $ > $ , = $ $ $ & $ $ > * $ = * , $ & $ $ % $ $ $ $ % t < , $ $ , $ $ $ $ $ = , $ > % > > $ & & $ $ $ & $ $ % $ $ $ 7 t ",
"} 7 7 7 > 7 * < < , < , , , > 2 > > > * 2 & 2 , > 2 * < < % 7 i t t < 2 < , < , , < $ < % 2 < < 9 % 2 > , < & < , % 2 > < < u i ",
"^ > * % $ $ $ $ $ $ % $ $ $ $ $ $ > $ $ $ $ $ $ $ * $ $ $ $ $ 7 * * $ $ $ $ $ $ $ $ $ $ $ $ $ & > $ % $ $ $ $ $ $ $ $ $ $ $ 8 7 ",
" .9 > * $ > $ * > $ $ $ $ $ $ > $ $ $ $ > $ > $ * * $ * $ $ > u 7 2 % * > $ & $ $ $ $ $ $ & $ , > * > > $ $ $ * ; $ $ $ $ % 7 t ",
"^ , * $ $ $ $ $ $ $ $ $ $ $ $ % $ $ $ $ & $ $ $ $ $ $ $ $ $ $ r > > * * $ $ $ $ $ $   $ $ $ $ & $ $ > $ $ $ $ $ $ $ $ $ $ $ ; 7 ",
") 2 * * $ & $ $ $ $ $ $ % $ $ < $ $ $ $ & $ $ $ $ * $ $ = > > t 7 < $ * $ $ % $ $ $ $ $ $ $ $ $ * $ * > $ $ $ $ $ $ $ $ < % 7 t ",
") > & & $ & $ $ $ $ $ $ $ $ $ % $ $ $ $ $ $ $ $ $ $ $ $ $ $ > t 2 > , $ $ $ $ $ $ $ $ $ $ $ $ $ $ $ $ $ $ $ $ $ > $ & & % $ 7 t ",
") > & & $ $ $ $ $   $ $ $ $ $ * $ $ $ $ $ $ $ $ $ $ $ $ $ $ > t 2 > $ $ $ $ $ $ $ $ $ $ $ $ $ $ $ $ $ $ $ $ $ $ $ $ & $ $ % 2 t ",
") , & % $ O $ $ $ $ $ $ * $ $ * $ $ $ $ $ $ $ $ $ * $ $ $ $ > y 2 2 * & $ $ $ $ $ $ $ $ $ $ $ < $ $ $ $ $ $ $ $ $ $ & $ $ & r t ",
") & & $ $ $ $ $ $ $ $ $ $ $ $ $ $ $ $   $ $   $ $ $ $ $ $ $ * 2 * & $ $ $ $ $ $ $ $ $ $ $ $ $ $ $ $ $ $ $ $ $ $ $ $ $ $ $ $ 2 7 ",
" .2 * > $ $ $ & $ $ $ $ $ $ $ $ % $ % $ $ $ $ $ $ & $ $ = , , u 7 2 $ $ * $ * $ % % $ $ $ $ $ % $ $ & $ $ $ $ $ $ $ $ , = = 8 u ",
"( , $ $ $ $ $ $ $ $ $ $ $ $ $ $ $ $ $ $ $ $ $ $ $ $ $ $ $ $ $ 7 * * $ $ $ $ $ $ $ $ $ $ $ $ $ $ $ $ $ $ $ $ $ $ $ $ $ $ $ $ 9 9 ",
"} 1 # $ $ & $ & $ $ $ $ $ $ $ $ $ $ $ $ $ $ $ $ $ $ $ , & & , u 2 2 $ , $ $ $ $ $ $ $ % $ $ $ % $ $ $ $ $ $ $ $ $ $ $ $ > & 9 r ",
") , , & $ & $ $ $ $ $ $ $ $ $ $ $ $ $ $ $ $ $ $ $ & $ & $ $ , t 2 > % & , $ $ $ $ $ $ % $ $ $ $   $ $ $   $ $ & $ $ $ $ $ & 9 r ",
"} 2 , & $ , $ & $ $ % $ $ $ $ ; & $ $ $ $ $ $ & $ $ O $ $ $ > u 2 2 $ , = $ & $ & $ $ < $ , $ > % $ $ $ $ = $ $ $ $ & $ & % t t ",
"o.t 2 & , > & & , & % $ $ $ $ ; , = & $ * $ , , $ & $ & > $ 7 j r < & , $ = , $ , % $ % $ > $ 2 % $ % $ $ > $ $ & & O & & , i u ",
"#.i t r 7 7 > t , 2 7 < 2 7 ; 8 < 7 < < 2 , 7 < < 7 < 7 7 7 t ^ u u 7 r 2 2 9 , 7 7 > 7 $ 7 2 7 7 > 7 < < 7 , 7 < < 7 < 7 t j j ",
"-.( ) i u i t i u u i u i u u j u i i u i t i i u i y i j j / ..( } i i i y i y i i t j t j i i i y i u w i u i i t i y ^ j } | "
};
