/* XPM */
static char *_b4a7c1385474f0fb93b2c81116a2f2cO8p4Jx8F5cHyhfQk[] = {
/* columns rows colors chars-per-pixel */
"64 64 170 2 ",
"   c #0D211F",
".  c #0E2524",
"X  c #0D2926",
"o  c #0D2B29",
"O  c #112425",
"+  c #112827",
"@  c #112728",
"#  c #112A2A",
"$  c #093B27",
"%  c #01332A",
"&  c #0D312D",
"*  c #053B2B",
"=  c #11312E",
"-  c #112E30",
";  c #0D3330",
":  c #043932",
">  c #0C3C33",
",  c #113432",
"<  c #113936",
"1  c #113C3A",
"2  c #05412D",
"3  c #0C452E",
"4  c #14472E",
"5  c #1D4328",
"6  c #044230",
"7  c #0F4131",
"8  c #044837",
"9  c #01423B",
"0  c #0A463C",
"q  c #0D4C3A",
"w  c #144832",
"e  c #1C4D33",
"r  c #11413D",
"t  c #17483E",
"y  c #19523C",
"u  c #274627",
"i  c #264529",
"p  c #234A2D",
"a  c #254F35",
"s  c #24543C",
"d  c #2A5238",
"f  c #2E583F",
"g  c #30553C",
"h  c #33583E",
"j  c #5C541D",
"k  c #615D17",
"l  c #70671E",
"z  c #445E25",
"x  c #535021",
"c  c #45642E",
"v  c #446734",
"b  c #416A3D",
"n  c #5A6D36",
"m  c #6D652B",
"M  c #686828",
"N  c #7D6D26",
"B  c #74652F",
"V  c #7C6A2C",
"C  c #75702F",
"Z  c #6E6937",
"A  c #7F6C33",
"S  c #114543",
"D  c #114A46",
"F  c #114D4A",
"G  c #0E5240",
"H  c #0E594B",
"J  c #115147",
"K  c #1C5343",
"L  c #145846",
"P  c #12534D",
"I  c #145B4B",
"U  c #1A5B4C",
"Y  c #115451",
"T  c #155951",
"R  c #155E59",
"E  c #295441",
"W  c #205F4F",
"Q  c #345E46",
"!  c #3B5F42",
"~  c #1C634F",
"^  c #1D6352",
"/  c #19675D",
"(  c #24624D",
")  c #2E624B",
"_  c #3F6147",
"`  c #246455",
"'  c #296756",
"]  c #2C695A",
"[  c #306754",
"{  c #336B51",
"}  c #3E6E56",
"|  c #3A715A",
" . c #126661",
".. c #287973",
"X. c #436247",
"o. c #456549",
"O. c #5F6B48",
"+. c #4B7357",
"@. c #41745B",
"#. c #487358",
"$. c #4E785B",
"%. c #527A5F",
"&. c #896C1F",
"*. c #877123",
"=. c #83732D",
"-. c #8C732A",
";. c #927425",
":. c #9D7B26",
">. c #92762B",
",. c #957A2C",
"<. c #9C7C2C",
"1. c #806F3C",
"2. c #8C7534",
"3. c #8B7934",
"4. c #80743B",
"5. c #867938",
"6. c #8C7B3D",
"7. c #937A33",
"8. c #9C7E33",
"9. c #947C3B",
"0. c #9C7E3D",
"q. c #A07F30",
"w. c #877A44",
"e. c #947E42",
"r. c #608A64",
"t. c #9D8133",
"y. c #9B823D",
"u. c #A28335",
"i. c #A3843C",
"p. c #AA893F",
"a. c #8C834B",
"s. c #938144",
"d. c #9C8443",
"f. c #95844B",
"g. c #9C864B",
"h. c #9F894B",
"j. c #958A56",
"k. c #9D8D55",
"l. c #9A8E5D",
"z. c #A28644",
"x. c #A48844",
"c. c #AB8B43",
"v. c #A08648",
"b. c #A38B4C",
"n. c #AC904E",
"m. c #A68F54",
"M. c #AA8E56",
"N. c #A68E59",
"B. c #AB9150",
"V. c #A9925B",
"C. c #B1975A",
"Z. c #B49859",
"A. c #9C9062",
"S. c #A59465",
"D. c #AC9869",
"F. c #B19B61",
"G. c #B6A069",
"H. c #BDA26E",
"J. c #AAA573",
"K. c #B8A579",
"L. c #BCAA7A",
"P. c #C0A367",
"I. c #C7AE78",
"U. c #C7B27E",
"Y. c #C3AB81",
"T. c #CBB285",
"R. c #C6B48A",
"E. c #CEB489",
"W. c #CFB98A",
"Q. c #D4B988",
/* pixels */
"S - @ @ O @ O O O . O O O O O @ + O O O @ O O O @ @ @ @ O @ @ < - # @ + @ O + + O O O + O O @ @ @ O @ O O O O O O O @ O @ + = i ",
"F , # # @ @ @ @ # @ # O @ # O - # + @ O + O O O @ + @ @ @ @ @ < , - @ @ # @ # @ @ @ + @ + @ + # @ @ # @ @ O O @ @ O @ O @ + - 1 ",
"S # @ @ O O @ @ @ O @ O @ O O # O O O O O O O O O O O @ @ @ # , # # @ O O O @ @ @ O O O O O O O + O + O O O O O O O @ O O O - , ",
"D # @ # O @ O O @ @ @ O @ @ O # + O O O + O O O O @ O O @ @ @ - - # @ O @ O + @ @ @ O @ O O O + + O O O O O O O O O @ O @ @ - , ",
"D # @ @ @ @ O O O O @ O @ O O # @ # @ O O O O O O + O @ O @ @ < - @ @ @ @ O + @ O @ O @ O @ @ + @ O O @ O @ O @ O @ @ O @ O - < ",
"S # O @ O O O O O O O O O O O @ O O O O O O O O O @ O O O O @ - # @ @ @ O O O O O O O O   @ O @ O O O O O O O O O O @ O @ O # , ",
"F - @ - @ @ @ O # @ O O @ @ @ @ O @ O O O O O O O @ O O @ @ @ i < # @ @ @ O @ @ @ @ O # O @ + + + O O O O O O O O @ @ @ # @ , 1 ",
"S @ @ @ O O O O O O O O O O O @ O O O O O O O O O O O O O O @ - , @ O O O O O O O O O O O O O @ @ O O O O O O O O O O O O O # < ",
"F # # + O + @ + @ O @ O @ O O # + @ @ O O O + O O + O O O @ + , - # @ @ + O # @ @ O O @ O @ @ + @ O O O O O O O O O O O O O # 1 ",
"D # + + O + @ + O O @ O O @ @ # O @ @ O @ O O O O @   O O + # , , @ + + + O @ @ O @ O @ O @ O O O O @ O O O O O O O O O @ @ # 1 ",
"D # + @ O + O O O O O O O O O @ @ O O O + O O O O O O O O O @ = = @ O O + O + O O O O O O O O + O O @ O O O O O O O O O O O = < ",
"P # # + O + + + @ O # O @ @ O + # @ O O + O O O O @ O O O O + < , # + + # O @ O @ @ O + O @ @ # # O @ + O + O O O O   O @ @ = < ",
"S # @ @ O O O O O O @   O O   @ O + O O O O O O   O O O O   @ = # + O O O O O O O O O @ O O O O @ O O O O O O O O O O   O O # , ",
"Y # # # O # O O @ @ @ @ @ @ @ # # @ @ @ + O # + @ + O @ + O + < = # + + + O @ O @ @ + @ O @ # # # @ @ @ + # O O @ O + @ @ + - 5 ",
"D = # # O # O O @ O + @ + @ O # @ @ @ O @ O + + @ # O + + @ # < = # @ + + O @ + + + O + O @ + # # O @ @ + @ O @ O + + + @ @ - < ",
"P # # # + + @ + @ O + O O @ O # # # @ + @ + + O @ + O # + + # , = # # # # O # O # + O + O + + # # @ # @ # @ O + + O # + # O - < ",
"F # # @ O @ O @ O O O O O O O O O @ @ O @ O O O O + O O @ O + < = # O O O O O O O O O O O O @ + # O + O O O O O O O O O O O = , ",
"D # @ @ O @   O O   O O O O O O O O O O O O O O   O   @   O + = # O O O @ O O O O   O O   O O @ @ O @ O O O O O O O O O   O # = ",
"Y # # @ O @ O # O O O O O O O + @ + O O @ O O O @ @ O + O @ @ < = # O O + @ @   O O O O O @ @ @ O O @ @ O + O O O O O O + + = < ",
"S @ @ @ O O   O O O O O O   O O O O O O O O O O   @   O O O + = # @ O O O O O O O O   O O O O @ O   O O O O O O O O O O + O # = ",
"P # # # O + @ # O O O O @ @ O # @ O O O @ O O O O @ O @ @ @ X < , # @ # @ O + O O O O O @ @ O @ # O O O O + O O O O @ O + + = < ",
"S # # @ O O O O O O O O O O O # O O O   O O O O O O O O O @ @ , # # O + O   @ O O O O O   O O @ O O O O O O O O O O O O + @ # = ",
"P # @ @ O @ O O O O O   O O O + O @ O O @ O O @ @ . O X . . X < = + + @ + O + + + + O O O O O @ O O O O O O O O O O @ O @ @ , < ",
"F # @ @ O @ O O O O + O O O O + @ O O O @ o I.I.( L K K Q ! : J t : o.h ) ) ~ r.J.M.  O   @ O @ + O O O O O O O O O @ @ @ @ # < ",
"F @ @ @ O O   O O O O   O O   O   O O   . o L.e p 5 p d f s s Q g a a g u i u 5 ~ N.. O O O O O O   O O O O   O O O @ O O @ # = ",
"P - # @ @ # O @ O O @ O @ O O + @ @ O O X X $.3 3.>.y.,.7.d.k.m.b.d.7.*.-.-.N j 6 O.  . O @ O @ @ O @ O O O O @ @ O @ O + @ , < ",
"D # @ @ O O   O O O O O O O O @ O O O O O X +.2 5.s.9.y.f.y.y.v.y.m C M z k b x % n   @   O   O O   O     O O O   O O O O O # = ",
"Y # # @ @ # O # O O O O @ @ @ # + + O O + . @.6 f.,.h.f.y.8.<.p.y.l n =.c 3.b x % X.. # O @ @ @ + O @ O O @ O @ @ O O O @ @ < < ",
"P # # @ . @ @ . O O O O O O O @ O O O O @ @ [ G 6.9.s.8.;.,.8.G.z.N C *.c 6.v Z * _   + O @ O @ @ O O O O @   O O . O O @ @ , = ",
" .< , # + # # # @ @ # + # + # # # + # # # + ] ] 9.g.b.:.:.u.n.W.H.i.,.;.;.,.9.m > o.. # @ # # , # @ # + # # @ # @ + o # # = r 1 ",
"..D S 1 < 1 , 1 < < 1 < r < < t < 1 < < 1 & 0 H j.h.z.t.i.n.K.W.R.Z.p.<.:.,.9.B 0 % = 1 , 1 < 1 1 < 1 < < 1 < 1 < < r , r r F K ",
"R 1 < ; # , # & - # = # = # # , # , # # , & 9 T l.x.i.i.Z.L.R.Q.E.T.P.n.u.i.e.1.P * o , # = # = , # , # o = # , # # , # , , r D ",
"U , # = # # + + # O # @ @ @ O - # @ @ @ @ X 9 I j.d.i.i.B.F.L.Q.T.H.Z.z.u.0.e.A J % . # . # # # # @ # @ @ @ O + @ @ @ # # @ < 1 ",
"F = @ # + @ O @ @ @ @ O + @ @ # @ @ @ O X . K I a.d.z.<.<.i.C.T.Y.c.u.<.:.8.0.V q E . # O @ @ @ # @ # O O O O O @ @ @ O # # , 1 ",
"S - @ # O @ @ @ @ + # O O @ + @ @ O O O X O ` / e.d.x.8.<.t.p.U.H.p.u.:.q.d.9.4.7 W . + . @ @ @ @ O O O O O   O   O O O @ @ # < ",
"F # @ # + # @ @ # @ # @ @ @ @ # # + @ X @ X ` 8 f.x.i.x.t.t.u.F.M.i.u.<.q.z.;.w.* ( . # O @ @ # + O @ @ @ @ O @ O + + + @ @ , < ",
"S @ @ O O O O O @ O O O O + O @ O @ O   @ . } 6 a.t.d.y.z.t.d.m.m.z.z.8.z.,.>.1.$ } . . O @ O + @ O O O O   O O O   O O @ @ # = ",
"F - # # @ @ O @ @ + - O @ @ O @ @ # @ O o . %.2 5.t.,.d.d.g.S.S.D.m.V.N.8.>.&.N * @.X X O + @ @ # O @ @ @ @ O @ O @ @ O @ O = < ",
"S # # # O O O O @ O @ O @ O O # O @ O O @ X @.3 A -.9.s.2.6.j.A.l.g.g.9.d.7.&.B 2 { O @ O O O + @ O O O O O O O O @ O   @ @ = < ",
"F # @ # O @ O @ @ O O O O + O @ O @ O   # $ R.y e 4 4 w y U U ' ` ^ U 7 4 $ $ $ q L.+ @ O @ O + @ O O O O @ O O O O @ O @ @ # < ",
"F # @ @ O @ @ @ O O + O O O O # @ @ O O O + E.R.{ L ) ) +.$.% 9 : % %.#.( ~ Q | L.I.# # O O O + @ O O O O O   @ O O O O O O # 1 ",
"S @ @ @ O O O O O O O O O O O + @ @ O O O O o X O O @ . . O . = ; o . . O O . . X X O @ O O O O O O O O O O   O O O O   O O @ , ",
"F - @ @ O @ @ @ O O @ O @ @ O @ @ @ @ O @ O + O O O O + O @ + < , # # # + @ # @ + # O # O @ @ + @ @ O O O @ O @ O O O O @ + , 1 ",
"S @ @ @ O @ O O O O @   O O O O O @ O O @ O O   O O O O   O O = # @ O O O O O   O O   O O O O O @ O O O O O   O O O O O + + # , ",
"E - + # O @ O @ + @ # O @ + O # @ @ @ O + O + O O O O O O O + < = # + + + O @ O @ @ @ + @ + O # @ O @ O O O O O O O @ O @ @ = i ",
"D @ + + O O O + O @ @ O O O O @ + + O O O O + @ O + O O O O O = # # O O O O @ O @ O O @ O @ + # @ O O O O @ O O O O O O O O - , ",
"F # + @ + # O + + O @ @ + O O @ @ + @ + @ O + O O + O O O O + , = # @ @ + O + @ + + @ + O + + @ @ + + @ @ @ O @ O O @ O @ @ # , ",
"Y - = = # - @ # # + # # # # @ , # # # @ = @ # + # # + = # # = 1 , , # = = + # # # # @ # @ # # = - # # @ # # + # # + # # # # < 1 ",
"S @ @ @ O O O @ @ O + O O O O O + @ @ @ @   O O O + O O O O + = # - + O O O O O O O O O O + O @ # @ + O O @ O O O O O O O O i @ ",
"T - # # O + O + @ O O O O + O + @ @ @ O @ O @ O O # O + + + + < = # @ + @ O @ O O O O O O @ O @ # @ # @ @ @ O + O + + O O O = , ",
"S # @ @ O O O @ O O   O O O O + O O O O @ O O O O O O O O O + - # @ O O O O O O O O O O O O O @ @ O @ O O O O O O O O O O O # , ",
"F # @ @ O @ O @ O O + O + O O + O O O O @ O + O O + O + @ + @ < = = + + @ O @ O O O O O   @ @ @ + O @ @ O O O O O O + O @ + = , ",
"F # @ @ O @   @ O O O O O O O @ O + O O O O O O O @ O O O O @ , - - @ O O O O O O O   O O O O @ + O O O O O O O O O O @ @ + = , ",
"D # @ @ O O O O O   O O O O O @ O O O O O   O O O O O O @ @ @ < # @ O O O O + O O O O O O O   O O O O O O O O O O O @ O @ + # , ",
"F # @ @ O + O @ O O O O O O O # O O O O @   O O O O O O O O @ < = # + @ O O O O O O O O O O O # O O O O O O O O O + @ O @ @ , , ",
"F @ @ @   O O O O O O O O O O O O O   O O   O O O O O O O O O - + @ O O O O O O O O O O O O O O O O O O O   O O O O O O O O # , ",
"P # # + @ @ O @ O O O O O O O O O + O O O O O O @ @ O @ @ @ # < = - O + + O @ @ + @ O + O @ O + @ O + O O O O O O O @ @ @ @ , < ",
"D @ @ O   O   O O O O   O O O O O O O O O O O O O O   O O O + = @ @ O O @ O O O O O   O   O O O O   O O   @   O O O O O O O - - ",
"Y # # @ @ @ O @ O O O O O O O O O O O O O O O + O @ O @ @ @ # < - = + + O O O O O O O + O O O + @   + O O @ O @ O O O O + + - , ",
"F # # @ @ @ O @ O O O O O O O @ O O O O O   O O O O O @ O @ # < # # O + O O O O @ O O + O O O O @ O O   O O . O O O @ O @ @ - < ",
"Y # # # @ + O + @ O @ O O O O + + @ O O + O + O O O O O @ O # < # # O + @ O @ O + + @ + O @ @ # O O O O O + O O O O @ O + + , 5 ",
"R , o # + # O + @ @ + O + + @ # + + @ O # O + + @ @ O @ @ + # r , , @ @ @ O @ @ + + O + O # + # + O + @ O # O + O @ @ @ @ @ 1 1 ",
"/ 1 < , # = # = # # = # - - @ , # = # # # # = # # = # = = = < S < < # , # @ - # = # + = + = # , = # = # # = + = # # - # , , 1 r ",
"..F D 1 1 1 < 1 1 < 1 < 1 < < a < 1 1 < r < 1 1 < 1 < 1 1 r D U F Y 1 t 1 < t < r < < r < 1 < 1 1 < 1 < < 1 < 1 1 < 1 , t S F T "
};
